<?xml version="1.0" encoding="UTF-8" standalone="no"?>
<!-- Created with Inkscape (http://www.inkscape.org/) -->

<svg
   width="130.93462mm"
   height="7.5660686mm"
   viewBox="0 0 130.93462 7.5660686"
   version="1.1"
   id="svg1"
   xml:space="preserve"
   inkscape:version="1.4.2 (ebf0e94, 2025-05-08)"
   sodipodi:docname="G1.svg"
   xmlns:inkscape="http://www.inkscape.org/namespaces/inkscape"
   xmlns:sodipodi="http://sodipodi.sourceforge.net/DTD/sodipodi-0.dtd"
   xmlns="http://www.w3.org/2000/svg"
   xmlns:svg="http://www.w3.org/2000/svg"><sodipodi:namedview
     id="namedview1"
     pagecolor="#505050"
     bordercolor="#eeeeee"
     borderopacity="1"
     inkscape:showpageshadow="0"
     inkscape:pageopacity="0"
     inkscape:pagecheckerboard="0"
     inkscape:deskcolor="#d1d1d1"
     inkscape:document-units="mm"
     inkscape:zoom="1.6252147"
     inkscape:cx="171.66963"
     inkscape:cy="-222.1245"
     inkscape:window-width="2560"
     inkscape:window-height="1440"
     inkscape:window-x="0"
     inkscape:window-y="0"
     inkscape:window-maximized="1"
     inkscape:current-layer="layer1" /><defs
     id="defs1" /><g
     inkscape:label="Layer 1"
     inkscape:groupmode="layer"
     id="layer1"
     transform="translate(-59.724216,-226.90604)"><path
       style="fill:#666666;fill-opacity:1"
       d="m 118.48042,234.44892 c -0.45403,-0.0194 -1.07315,-0.0561 -1.37584,-0.0815 -0.80444,-0.0674 -2.62324,-0.21281 -2.94216,-0.23525 -0.18605,-0.0131 -0.2916,-0.0414 -0.32591,-0.0874 -0.0378,-0.0507 -0.0884,-0.061 -0.19849,-0.0404 -0.54716,0.10265 -2.7266,0.15279 -8.70774,0.20035 -3.50604,0.0279 -6.406407,0.0385 -6.445247,0.0236 -0.0558,-0.0214 -0.07062,-0.0842 -0.07062,-0.29923 v -0.27213 l -1.386417,0.0166 c -3.208935,0.0384 -5.898802,0.0495 -6.71535,0.0277 l -0.8729,-0.0233 v -0.14184 -0.14183 l -0.66675,9.9e-4 c -0.655671,9.8e-4 -0.893985,0.0366 -1.386417,0.20703 -0.716517,0.24803 -0.596212,0.23521 -2.338916,0.24923 -1.585783,0.0128 -1.61925,0.0113 -1.61925,-0.0701 0,-0.074 -0.03834,-0.0858 -0.34925,-0.10687 -0.192088,-0.013 -1.03505,-0.0335 -1.87325,-0.0454 -1.740092,-0.0248 -3.232879,-0.10751 -4.275667,-0.23681 -0.395817,-0.0491 -0.806595,-0.0795 -0.91284,-0.0677 -0.176764,0.0197 -0.690053,-0.0319 -1.394327,-0.14026 -0.151342,-0.0233 -0.298979,-0.0427 -0.328083,-0.0432 -0.03636,-5.9e-4 -0.05292,-0.0803 -0.05292,-0.25485 v -0.254 l -0.709083,-1e-5 c -0.631001,-1e-5 -2.186206,-0.0932 -2.465917,-0.14771 -0.05821,-0.0114 -0.267758,-0.0312 -0.465667,-0.0441 -0.197908,-0.0129 -0.464608,-0.041 -0.592666,-0.0625 -0.128059,-0.0214 -0.432859,-0.069 -0.677334,-0.10561 -0.450313,-0.0675 -0.965196,-0.1614 -1.312333,-0.23937 -0.26988,-0.0606 -1.133366,-0.20789 -1.947333,-0.33216 -0.218704,-0.0334 -1.2589,-0.0469 -3.34286,-0.0433 -1.663948,0.003 -3.016015,-0.004 -3.004595,-0.0156 0.01142,-0.0114 0.134582,-0.0399 0.273693,-0.0633 0.13911,-0.0234 0.538678,-0.0927 0.887928,-0.15397 0.34925,-0.0613 0.706438,-0.122 0.79375,-0.13487 0.08731,-0.0129 0.15875,-0.0388 0.15875,-0.0575 0,-0.0188 0.909638,-0.0413 2.021417,-0.0501 1.369984,-0.0108 2.069166,-0.0316 2.169583,-0.0647 0.08149,-0.0268 0.395817,-0.10898 0.6985,-0.18259 0.302684,-0.0736 0.569384,-0.1488 0.592667,-0.16709 0.02328,-0.0183 0.213783,-0.0745 0.423333,-0.125 0.20955,-0.0505 0.485775,-0.12622 0.613834,-0.16832 0.621833,-0.20446 0.6146,-0.20402 3.884895,-0.23366 2.470524,-0.0224 3.181252,-0.0412 3.4925,-0.0924 0.214925,-0.0354 0.543171,-0.0895 0.729438,-0.12035 0.186267,-0.0308 0.519642,-0.085 0.740834,-0.12043 0.667224,-0.10682 0.902953,-0.15101 1.058333,-0.1984 0.147381,-0.045 0.433028,-0.0927 1.524,-0.25475 0.991019,-0.1472 1.150424,-0.1665 1.735667,-0.21012 0.534824,-0.0399 6.643337,-0.10976 11.469845,-0.13124 1.606557,-0.007 2.139456,0.003 2.151944,0.0403 0.01992,0.0597 3.720984,0.0675 4.031211,0.008 0.104775,-0.0199 0.32385,-0.0601 0.486833,-0.0893 0.162984,-0.0292 0.306845,-0.0686 0.319692,-0.0877 0.01285,-0.0191 0.127145,-0.0559 0.253995,-0.0818 0.12685,-0.0259 0.29732,-0.0633 0.37881,-0.0831 0.0815,-0.0198 0.24342,-0.0578 0.35983,-0.0846 0.39056,-0.0896 0.50671,-0.11701 0.762,-0.17975 1.62243,-0.39873 0.90577,-0.36472 9.09787,-0.43174 4.00264,-0.0327 7.28876,-0.075 7.3025,-0.0938 0.0623,-0.0855 0.55081,-0.35129 1.03922,-0.56543 0.46414,-0.20349 0.99616,-0.34606 1.58925,-0.42588 0.15134,-0.0204 3.08504,-0.0627 6.51933,-0.0941 5.92281,-0.0541 6.27358,-0.0532 6.81567,0.018 0.69103,0.0908 1.55066,0.23607 1.60874,0.27196 0.0232,0.0144 0.0423,0.17856 0.0423,0.36488 v 0.33876 l 2.86808,-0.0299 c 1.57745,-0.0164 3.13002,-0.0156 3.45017,0.002 l 0.58208,0.0316 v 0.68922 c 0,0.67897 -0.001,0.68961 -0.0952,0.71476 -0.0524,0.014 -0.36195,0.0281 -0.68792,0.0313 -0.32596,0.003 -0.85936,0.0198 -1.18533,0.037 -0.38723,0.0204 -0.15245,0.0248 0.67733,0.0126 0.6985,-0.0102 1.29858,-0.029 1.3335,-0.0418 0.0349,-0.0128 2.9591,-0.0469 6.49817,-0.0757 6.42624,-0.0524 9.06003,-0.0347 10.07533,0.0679 0.2794,0.0282 0.56039,0.0491 0.62442,0.0463 l 0.11642,-0.005 v 0.37644 c 0,0.43069 -0.0487,0.38441 0.51242,0.48742 0.30749,0.0565 0.47242,0.06 1.05833,0.023 0.38175,-0.0241 0.87506,-0.0629 1.09625,-0.0862 0.22119,-0.0233 0.51646,-0.0536 0.65616,-0.0673 0.18558,-0.0182 0.45357,0.0102 0.99484,0.10542 0.40746,0.0717 0.96943,0.15969 1.24883,0.19562 0.66639,0.0857 0.65617,0.0817 0.65617,0.25421 0,0.17489 -0.0273,0.16832 1.05833,0.25451 0.43074,0.0342 1.25995,0.0999 1.84268,0.14603 0.58274,0.0461 1.25901,0.0926 1.50284,0.10333 0.24382,0.0107 0.66239,0.0406 0.93015,0.0665 1.06591,0.10297 1.38605,0.13012 2.7305,0.23157 0.76835,0.058 1.60655,0.10493 1.86266,0.10435 0.25612,-5.9e-4 0.73237,0.0237 1.05834,0.0539 0.43935,0.0407 1.45504,0.0522 3.92641,0.0445 2.33722,-0.007 3.33375,0.003 3.33375,0.0347 0,0.0315 0.67286,0.0411 2.23309,0.0318 2.04194,-0.0122 3.21376,0.0237 3.81,0.11684 0.13318,0.0208 0.13758,0.028 0.13758,0.2252 v 0.20372 l -0.26021,0.0272 c -0.14311,0.015 -1.25278,0.0288 -2.46592,0.0308 -4.26314,0.007 -8.39436,0.0599 -8.45542,0.10824 -0.0319,0.0252 -0.2294,0.0583 -0.43895,0.0733 -0.20955,0.0151 -0.5715,0.0468 -0.80433,0.0705 -0.23284,0.0237 -0.62336,0.062 -0.86784,0.0852 -0.24447,0.0232 -0.635,0.0604 -0.86783,0.0828 -0.23283,0.0224 -0.77576,0.0695 -1.2065,0.10473 -0.43074,0.0352 -0.91652,0.083 -1.0795,0.10622 -0.7125,0.10156 -3.26524,0.25432 -4.24989,0.25432 -0.30924,0 -0.34328,-0.008 -0.34328,-0.0806 0,-0.0784 -0.0584,-0.08 -2.21191,-0.0599 -1.21656,0.0114 -3.89968,0.0333 -5.9625,0.0488 -2.72903,0.0205 -3.76677,0.0414 -3.81,0.0769 -0.0327,0.0268 -0.16419,0.0576 -0.29225,0.0685 -0.12806,0.0108 -0.47096,0.0601 -0.762,0.10947 -0.68942,0.1169 -0.77943,0.11446 -1.90973,-0.0517 l -0.95723,-0.14074 -0.67036,0.0553 c -0.36869,0.0304 -0.80471,0.0751 -0.96893,0.0993 -0.30369,0.0448 -2.16782,0.17427 -3.66409,0.25445 -0.45402,0.0243 -0.96837,0.0519 -1.143,0.0613 -0.17462,0.009 -0.8128,0.0566 -1.41816,0.10495 -0.60537,0.0483 -1.21535,0.0881 -1.35552,0.0884 -0.14017,3.1e-4 -0.38782,0.0374 -0.55033,0.0823 -0.78234,0.21653 -1.5768,0.25127 -6.79365,0.29712 -2.47968,0.0218 -5.20383,0.0597 -6.05367,0.0841 -0.84984,0.0245 -3.73592,0.0546 -6.4135,0.0669 -2.67758,0.0124 -4.98263,0.0291 -5.12233,0.0373 -0.1397,0.008 -0.62548,-0.001 -1.0795,-0.0206 z"
       id="path1" /></g></svg>
