<?xml version="1.0" encoding="UTF-8" standalone="no"?>
<!-- Created with Inkscape (http://www.inkscape.org/) -->

<svg
   width="168.12672mm"
   height="20.251205mm"
   viewBox="0 0 168.12672 20.251205"
   version="1.1"
   id="svg1"
   xml:space="preserve"
   inkscape:version="1.4.2 (ebf0e94, 2025-05-08)"
   sodipodi:docname="G2.svg"
   xmlns:inkscape="http://www.inkscape.org/namespaces/inkscape"
   xmlns:sodipodi="http://sodipodi.sourceforge.net/DTD/sodipodi-0.dtd"
   xmlns="http://www.w3.org/2000/svg"
   xmlns:svg="http://www.w3.org/2000/svg"><sodipodi:namedview
     id="namedview1"
     pagecolor="#505050"
     bordercolor="#eeeeee"
     borderopacity="1"
     inkscape:showpageshadow="0"
     inkscape:pageopacity="0"
     inkscape:pagecheckerboard="0"
     inkscape:deskcolor="#d1d1d1"
     inkscape:document-units="mm"
     inkscape:zoom="1.6252147"
     inkscape:cx="232.58465"
     inkscape:cy="-155.05644"
     inkscape:window-width="2560"
     inkscape:window-height="1440"
     inkscape:window-x="0"
     inkscape:window-y="0"
     inkscape:window-maximized="1"
     inkscape:current-layer="layer1" /><defs
     id="defs1" /><g
     inkscape:label="Layer 1"
     inkscape:groupmode="layer"
     id="layer1"
     transform="translate(-27.177999,-266.80303)"><path
       style="fill:#666666;fill-opacity:1"
       d="m 106.70117,286.96689 c -0.31749,-0.0731 -0.58021,-0.0918 -1.57607,-0.11253 l -1.19506,-0.0248 -0.15305,-0.23284 c -0.0842,-0.12805 -0.21362,-0.35665 -0.28765,-0.508 -0.074,-0.15134 -0.27702,-0.47195 -0.45106,-0.71248 -0.54694,-0.75584 -0.62803,-0.87168 -0.70146,-1.00202 -0.0393,-0.0698 -0.15178,-0.25082 -0.24983,-0.40216 -0.25259,-0.38987 -1.23731,-2.065 -1.48069,-2.51884 -0.11237,-0.20955 -0.36971,-0.67627 -0.57185,-1.03716 -0.600836,-1.07267 -1.108806,-2.02965 -1.640356,-3.09034 -0.204193,-0.40746 -0.387025,-0.75239 -0.406293,-0.76652 -0.01927,-0.0141 -0.190718,-0.0378 -0.381,-0.0526 -0.353063,-0.0275 -0.835222,-0.075 -1.552468,-0.15317 -0.932632,-0.1016 -2.483314,-0.21692 -3.788833,-0.28175 -1.076572,-0.0535 -2.824359,-0.0767 -7.62,-0.10122 -3.849704,-0.0197 -6.481318,-0.0501 -6.900334,-0.0796 -0.372533,-0.0263 -1.144058,-0.0848 -1.7145,-0.13008 -0.570441,-0.0453 -1.341966,-0.10318 -1.7145,-0.12867 -0.372533,-0.0255 -0.829733,-0.0634 -1.016,-0.0842 -0.186266,-0.0209 -0.510116,-0.0501 -0.719666,-0.0651 -0.430876,-0.0307 -1.827325,-0.20904 -2.180167,-0.2784 -0.128058,-0.0252 -0.356658,-0.0711 -0.508,-0.10215 -0.362998,-0.0744 -0.810369,-0.0988 -2.709333,-0.1477 -2.396193,-0.0617 -5.838383,-0.0839 -6.434667,-0.0414 -0.291042,0.0207 -0.881592,0.0583 -1.312334,0.0836 -1.882295,0.11023 -12.883522,0.17824 -13.330412,0.0824 -0.138201,-0.0296 -1.119217,-0.0485 -2.765793,-0.0532 -2.350957,-0.007 -2.569939,-10e-4 -2.784462,0.0686 -0.511938,0.16695 -1.011791,0.32118 -1.3335,0.41145 -0.186266,0.0523 -0.452966,0.12862 -0.592666,0.16969 -0.1397,0.0411 -0.415925,0.11687 -0.613834,0.16845 -0.197908,0.0516 -0.455083,0.12374 -0.5715,0.16036 -0.116416,0.0366 -0.316441,0.0649 -0.4445,0.0628 -2.79658,-0.046 -3.976384,-0.0877 -4.169833,-0.14716 -0.691667,-0.21275 -1.78296,-0.41771 -2.330456,-0.4377 -0.276025,-0.0101 -0.545011,-0.0445 -0.656166,-0.084 -0.326318,-0.11598 -0.753122,-0.1892 -1.111896,-0.19074 -0.190565,-8.2e-4 -0.470307,-0.0287 -0.621649,-0.062 -0.151342,-0.0333 -0.422804,-0.0612 -0.60325,-0.062 l -0.328083,-10e-4 v -0.12396 c 0,-0.11172 0.02338,-0.13271 0.236704,-0.21252 0.710696,-0.26591 0.635461,-0.25619 1.983346,-0.25619 h 1.249055 l 0.184805,-0.18481 c 0.165568,-0.16556 0.235089,-0.1991 0.667864,-0.32221 0.530125,-0.15079 1.426155,-0.4776 2.472726,-0.90186 0.372533,-0.15102 0.848783,-0.33666 1.058333,-0.41254 0.20955,-0.0759 0.504825,-0.19467 0.656167,-0.264 0.390699,-0.17896 1.000958,-0.41225 1.078407,-0.41225 0.08331,0 1.094524,-0.38384 1.12305,-0.4263 0.0437,-0.065 0.538264,-0.22357 1.18521,-0.37993 0.163442,-0.0395 0.585026,-0.15236 0.783166,-0.20966 0.06985,-0.0202 0.174625,-0.0492 0.232834,-0.0644 0.190857,-0.05 0.94513,-0.27942 1.312333,-0.3992 0.197908,-0.0645 0.540808,-0.16983 0.762,-0.23394 0.221192,-0.0641 0.535517,-0.15901 0.6985,-0.21086 0.162983,-0.0519 0.467783,-0.14702 0.677333,-0.21147 0.50417,-0.15508 1.433798,-0.49381 1.4605,-0.53216 0.01164,-0.0167 0.354542,-0.15118 0.762,-0.29878 0.610977,-0.22133 0.766805,-0.29497 0.889,-0.4201 0.109103,-0.11173 0.209554,-0.16541 0.381,-0.20362 0.171498,-0.0382 1.214213,-0.0554 3.958167,-0.065 4.051901,-0.0143 4.06735,-0.0151 5.338597,-0.27971 0.463433,-0.0965 1.780824,-0.14791 5.41407,-0.21148 1.618259,-0.0283 1.715856,-0.0346 2.201333,-0.14192 0.490856,-0.1085 0.555148,-0.1124 1.905001,-0.11534 0.76835,-0.002 1.53035,-0.0233 1.693333,-0.0481 0.405765,-0.0617 2.434167,-0.0945 2.434167,-0.0394 0,0.0497 6.505426,0.10005 11.641667,0.0901 2.662471,-0.005 3.467196,-0.0194 3.852333,-0.0681 0.267758,-0.0339 0.858308,-0.0808 1.312333,-0.10428 0.454025,-0.0235 0.9398,-0.0631 1.0795,-0.0879 0.1397,-0.0249 0.573088,-0.0546 0.963084,-0.066 0.389995,-0.0114 0.709083,-0.0383 0.709083,-0.0596 0,-0.0232 1.536309,-0.0388 3.820583,-0.0389 2.888745,-1.1e-4 4.052898,-0.0153 4.773084,-0.0621 1.876353,-0.12196 2.541423,-0.15243 4.106333,-0.18811 0.94977,-0.0216 1.63385,-0.0546 1.70287,-0.082 0.11834,-0.047 5.36246,-0.0383 5.98063,0.01 0.16298,0.0127 0.47731,0.0333 0.6985,0.0457 0.22119,0.0124 0.55457,0.041 0.74083,0.0636 0.18627,0.0225 0.62442,0.0711 0.97367,0.10795 0.64037,0.0675 1.37583,0.21406 1.37583,0.27414 0,0.0179 0.23813,0.0462 0.52917,0.063 l 0.52917,0.0305 v 0.26518 0.26517 l 1.53458,0.0272 c 0.84402,0.0149 1.66043,0.0386 1.81423,0.0526 l 0.27965,0.0254 -0.0397,0.18626 c -0.0378,0.17717 -0.0289,0.20636 0.18185,0.5987 0.57717,1.07439 1.95066,3.51483 2.38046,4.22966 l 0.47928,0.79713 3.1195,0.0109 c 2.57294,0.009 3.1195,0.0208 3.1195,0.0676 0,0.0432 0.13339,0.0629 0.56092,0.0827 0.3085,0.0143 0.70379,0.0457 0.87841,0.0698 0.39587,0.0546 1.51229,0.1711 1.64042,0.17121 0.0565,5e-5 0.0952,-0.0258 0.0952,-0.0634 0,-0.0437 0.0429,-0.0631 0.13758,-0.0622 0.45402,0.004 1.97287,0.0852 2.2759,0.12137 0.19764,0.0236 0.9118,0.0632 1.58702,0.088 0.67522,0.0248 1.79917,0.0725 2.49767,0.1061 0.6985,0.0335 1.62719,0.0733 2.06375,0.0884 0.63672,0.022 0.79375,0.039 0.79375,0.0863 0,0.0458 0.0827,0.0591 0.37041,0.0599 0.20373,5.3e-4 0.61807,0.039 0.92075,0.0855 1.41362,0.21723 2.74012,0.38576 3.51367,0.44641 0.46567,0.0365 1.31339,0.12213 1.88383,0.19027 0.93578,0.11177 1.9964,0.2062 3.76767,0.33547 0.33761,0.0246 0.96626,0.0721 1.397,0.10559 1.58202,0.12281 2.54414,0.17321 6.05367,0.31714 1.10596,0.0454 2.26801,0.0932 2.58233,0.10634 1.80742,0.0755 3.48119,0.18021 4.7625,0.29792 0.37253,0.0342 1.13453,0.10015 1.69333,0.1465 0.5588,0.0464 1.25413,0.1057 1.54517,0.13188 0.29104,0.0262 1.74837,0.0622 3.2385,0.08 1.49013,0.0178 2.74743,0.0428 2.794,0.0556 0.0466,0.0127 0.35137,0.045 0.67734,0.0718 1.14327,0.0938 1.81233,0.16917 1.86125,0.20977 0.0272,0.0225 0.40053,0.0579 0.82972,0.0786 0.7633,0.0368 0.79388,0.042 1.39887,0.23375 0.34018,0.10784 0.70213,0.20636 0.80433,0.21892 0.1022,0.0126 0.3668,0.0498 0.58799,0.0828 0.91254,0.13602 2.80897,0.20141 4.318,0.14889 0.60181,-0.0209 0.89303,0.0172 1.0459,0.13684 0.0281,0.022 0.0709,0.0277 0.0952,0.0127 0.0243,-0.015 0.0442,-0.01 0.0442,0.012 0,0.0216 0.0862,0.0635 0.19159,0.093 0.27677,0.0775 0.31254,0.17113 0.0735,0.1925 -0.0643,0.006 -0.24079,0.0147 -0.39213,0.0199 -0.25374,0.009 -0.2257,0.0167 0.35983,0.10313 0.34925,0.0515 0.9398,0.15279 1.31233,0.225 0.65806,0.12754 0.83234,0.14962 1.5875,0.20108 0.37766,0.0257 0.56186,0.0496 1.4605,0.18945 0.48318,0.0752 0.85508,0.15355 1.42875,0.30108 0.1531,0.0394 0.15875,0.0474 0.15875,0.22641 0,0.17217 0.01,0.18875 0.13759,0.22937 0.17203,0.0547 0.60927,0.15485 1.13241,0.25927 0.22119,0.0442 0.45932,0.099 0.52917,0.12191 0.0699,0.0229 0.3175,0.0753 0.55033,0.11648 l 0.42334,0.0748 -0.84667,0.072 c -1.03463,0.088 -2.40441,0.22029 -3.66183,0.35366 -0.33761,0.0358 -0.74916,0.0652 -0.91454,0.0652 -0.16539,5e-5 -0.41781,0.0123 -0.56092,0.0273 -0.25994,0.0272 -0.26021,0.0274 -0.26021,0.16518 0,0.13698 -0.002,0.13815 -0.24342,0.16189 -0.13388,0.0132 -0.49106,0.0353 -0.79375,0.0491 -1.0795,0.0494 -4.02019,0.25137 -5.5245,0.37948 -0.40746,0.0347 -1.00753,0.082 -1.3335,0.105 -1.0435,0.0738 -1.0795,0.0802 -1.0795,0.19079 0,0.0917 -0.0199,0.098 -0.39158,0.12348 -0.21537,0.0148 -0.80116,0.0457 -1.30175,0.0687 -1.53636,0.0707 -4.94729,0.3356 -7.366,0.57209 -1.18461,0.11583 -1.81373,0.14443 -4.10634,0.18669 -3.42159,0.0631 -4.80819,0.11017 -5.83141,0.19807 -0.25765,0.0221 -0.26459,0.0259 -0.26459,0.14392 v 0.12119 l -4.83658,0.0183 c -4.7108,0.0178 -5.21501,0.031 -5.9055,0.15406 -0.006,10e-4 -0.0106,0.0582 -0.0106,0.12697 0,0.15435 0.0852,0.1383 -1.48167,0.27898 -0.66357,0.0596 -1.26365,0.12532 -1.3335,0.14612 -0.23361,0.0695 -1.79484,0.17495 -4.08517,0.2758 -1.99052,0.0876 -2.76874,0.1343 -3.65125,0.2189 -0.73583,0.0705 -0.75141,0.074 -0.75141,0.16974 0,0.0846 -0.0213,0.0978 -0.15875,0.0983 -0.37489,10e-4 -0.90394,0.0562 -1.23825,0.12837 -0.42119,0.0909 -1.77842,0.28 -3.302,0.46004 l -1.0795,0.12757 -3.38667,0.019 c -3.90682,0.022 -4.06288,0.0286 -7.6835,0.32513 -1.62671,0.13323 -2.83859,0.22348 -3.937,0.29319 -1.15343,0.0732 -2.75643,0.20117 -3.97933,0.31767 -0.36089,0.0344 -1.46579,0.0817 -2.45534,0.10514 -2.02203,0.0479 -3.14688,0.10507 -3.82847,0.19451 -0.56099,0.0736 -0.54577,0.0741 -1.01869,-0.0347 z"
       id="path1" /></g></svg>
