<?xml version="1.0" encoding="UTF-8" standalone="no"?>
<!-- Created with Inkscape (http://www.inkscape.org/) -->

<svg
   version="1.1"
   id="svg2"
   width="209.9998mm"
   height="297.00009mm"
   viewBox="0 0 793.70004 1122.52"
   sodipodi:docname="_cards_arachnae.svg"
   xml:space="preserve"
   inkscape:version="1.2.2 (b0a8486, 2022-12-01)"
   xmlns:inkscape="http://www.inkscape.org/namespaces/inkscape"
   xmlns:sodipodi="http://sodipodi.sourceforge.net/DTD/sodipodi-0.dtd"
   xmlns:xlink="http://www.w3.org/1999/xlink"
   xmlns="http://www.w3.org/2000/svg"
   xmlns:svg="http://www.w3.org/2000/svg"><defs
     id="defs6"><linearGradient
       inkscape:collect="always"
       id="linearGradient28788"><stop
         style="stop-color:#504693;stop-opacity:0.27055943;"
         offset="0"
         id="stop28784" /><stop
         style="stop-color:#b2adc3;stop-opacity:0;"
         offset="1"
         id="stop28786" /></linearGradient><rect
       x="53.641087"
       y="84.374887"
       width="51.815855"
       height="47.204976"
       id="rect394" /><linearGradient
       inkscape:collect="always"
       id="linearGradient1106"><stop
         style="stop-color:#b2adc3;stop-opacity:0.39446855;"
         offset="0"
         id="stop1102" /><stop
         style="stop-color:#b2adc3;stop-opacity:0;"
         offset="1"
         id="stop1104" /></linearGradient><clipPath
       clipPathUnits="userSpaceOnUse"
       id="clipPath18"><path
         d="M 0,841.89 H 595.275 V 0 H 0 Z"
         id="path16" /></clipPath><clipPath
       clipPathUnits="userSpaceOnUse"
       id="clipPath28"><path
         d="m -297.638,420.945 h 595.276 v -841.89 h -595.276 z"
         id="path26" /></clipPath><clipPath
       clipPathUnits="userSpaceOnUse"
       id="clipPath470"><path
         d="M 0,841.89 H 595.275 V 0 H 0 Z"
         id="path468" /></clipPath><clipPath
       clipPathUnits="userSpaceOnUse"
       id="clipPath480"><path
         d="M -89.292,124.725 H 89.292 v -249.45 H -89.292 Z"
         id="path478" /></clipPath><clipPath
       clipPathUnits="userSpaceOnUse"
       id="clipPath568"><path
         d="M -89.292,124.725 H 89.292 v -249.45 H -89.292 Z"
         id="path566" /></clipPath><clipPath
       clipPathUnits="userSpaceOnUse"
       id="clipPath656"><path
         d="M -89.292,124.725 H 89.292 v -249.45 H -89.292 Z"
         id="path654" /></clipPath><clipPath
       clipPathUnits="userSpaceOnUse"
       id="clipPath744"><path
         d="M -89.292,124.725 H 89.292 v -249.45 H -89.292 Z"
         id="path742" /></clipPath><clipPath
       clipPathUnits="userSpaceOnUse"
       id="clipPath832"><path
         d="M -89.292,124.725 H 89.292 v -249.45 H -89.292 Z"
         id="path830" /></clipPath><clipPath
       clipPathUnits="userSpaceOnUse"
       id="clipPath920"><path
         d="M -89.292,124.725 H 89.292 v -249.45 H -89.292 Z"
         id="path918" /></clipPath><clipPath
       clipPathUnits="userSpaceOnUse"
       id="clipPath1008"><path
         d="M -89.292,124.725 H 89.292 v -249.45 H -89.292 Z"
         id="path1006" /></clipPath><clipPath
       clipPathUnits="userSpaceOnUse"
       id="clipPath1096"><path
         d="M -89.292,124.725 H 89.292 v -249.45 H -89.292 Z"
         id="path1094" /></clipPath><clipPath
       clipPathUnits="userSpaceOnUse"
       id="clipPath1184"><path
         d="M -89.292,124.725 H 89.292 v -249.45 H -89.292 Z"
         id="path1182" /></clipPath><filter
       inkscape:collect="always"
       style="color-interpolation-filters:sRGB"
       id="filter2287"
       x="-0.32821166"
       y="-0.34007544"
       width="1.6564233"
       height="1.6801509"><feGaussianBlur
         inkscape:collect="always"
         stdDeviation="15.635818"
         id="feGaussianBlur2289" /></filter><linearGradient
       inkscape:collect="always"
       xlink:href="#linearGradient28788"
       id="linearGradient1108"
       x1="329.97226"
       y1="-547.25476"
       x2="329.97226"
       y2="-703.51862"
       gradientUnits="userSpaceOnUse"
       gradientTransform="matrix(1.2981948,0,0,1.0726564,10.988423,980.12689)" /><linearGradient
       inkscape:collect="always"
       xlink:href="#linearGradient1106"
       id="linearGradient1164"
       gradientUnits="userSpaceOnUse"
       x1="329.97226"
       y1="-547.25476"
       x2="329.97226"
       y2="-703.51862"
       gradientTransform="matrix(1.299905,0,0,1.3343477,10.008329,1455.9841)" /><linearGradient
       inkscape:collect="always"
       xlink:href="#linearGradient1106"
       id="linearGradient1168"
       gradientUnits="userSpaceOnUse"
       gradientTransform="matrix(1.2999049,0,0,1.3335357,10.008353,1787.8159)"
       x1="329.97226"
       y1="-557.64636"
       x2="329.97226"
       y2="-703.51862" /><rect
       x="53.641087"
       y="84.374886"
       width="51.815853"
       height="47.204975"
       id="rect394-3" /><rect
       x="53.641087"
       y="84.374886"
       width="51.815853"
       height="47.204975"
       id="rect394-3-7" /><rect
       x="53.641087"
       y="84.374887"
       width="51.815855"
       height="47.204976"
       id="rect10955" /><rect
       x="53.641087"
       y="84.374886"
       width="51.815853"
       height="47.204975"
       id="rect10957" /><rect
       x="53.641087"
       y="84.374886"
       width="51.815853"
       height="47.204975"
       id="rect10959" /><rect
       x="53.641087"
       y="84.374887"
       width="51.815855"
       height="47.204976"
       id="rect10973" /><rect
       x="53.641087"
       y="84.374886"
       width="51.815853"
       height="47.204975"
       id="rect10975" /><rect
       x="53.641087"
       y="84.374886"
       width="51.815853"
       height="47.204975"
       id="rect10977" /><rect
       x="53.641087"
       y="84.374886"
       width="51.815853"
       height="47.204975"
       id="rect10977-4" /><rect
       x="53.641087"
       y="84.374886"
       width="51.815853"
       height="47.204975"
       id="rect10977-5" /><rect
       x="53.641087"
       y="84.374886"
       width="51.815853"
       height="47.204975"
       id="rect394-3-1" /><rect
       x="53.641087"
       y="84.374886"
       width="51.815853"
       height="47.204975"
       id="rect394-3-1-3" /><filter
       inkscape:collect="always"
       style="color-interpolation-filters:sRGB"
       id="filter4462"
       x="-0.29966333"
       y="-0.22374519"
       width="1.5993231"
       height="1.4475293"><feGaussianBlur
         inkscape:collect="always"
         stdDeviation="2.6685413"
         id="feGaussianBlur4464" /></filter><filter
       inkscape:collect="always"
       style="color-interpolation-filters:sRGB"
       id="filter4890"
       x="-0.42506829"
       y="-0.24583392"
       width="1.8501364"
       height="1.4916924"><feGaussianBlur
         inkscape:collect="always"
         stdDeviation="2.6352624"
         id="feGaussianBlur4892" /></filter><filter
       inkscape:collect="always"
       style="color-interpolation-filters:sRGB"
       id="filter4904"
       x="-0.36457657"
       y="-0.24160229"
       width="1.7290653"
       height="1.4832257"><feGaussianBlur
         inkscape:collect="always"
         stdDeviation="3.1663239"
         id="feGaussianBlur4906" /></filter><filter
       inkscape:collect="always"
       style="color-interpolation-filters:sRGB"
       id="filter4914"
       x="-0.23098436"
       y="-0.40818186"
       width="1.4618683"
       height="1.8169144"><feGaussianBlur
         inkscape:collect="always"
         stdDeviation="3.1489715"
         id="feGaussianBlur4916" /></filter><filter
       inkscape:collect="always"
       style="color-interpolation-filters:sRGB"
       id="filter4920"
       x="-0.26425633"
       y="-0.21277181"
       width="1.5285467"
       height="1.4255703"><feGaussianBlur
         inkscape:collect="always"
         stdDeviation="2.9060764"
         id="feGaussianBlur4922" /></filter><filter
       inkscape:collect="always"
       style="color-interpolation-filters:sRGB"
       id="filter4926"
       x="-0.24291471"
       y="-0.42583471"
       width="1.4864833"
       height="1.8517606"><feGaussianBlur
         inkscape:collect="always"
         stdDeviation="2.5714701"
         id="feGaussianBlur4928" /></filter><filter
       inkscape:collect="always"
       style="color-interpolation-filters:sRGB"
       id="filter4932"
       x="-0.35647094"
       y="-0.19431199"
       width="1.7129093"
       height="1.3888093"><feGaussianBlur
         inkscape:collect="always"
         stdDeviation="2.6608988"
         id="feGaussianBlur4934" /></filter><filter
       inkscape:collect="always"
       style="color-interpolation-filters:sRGB"
       id="filter4938"
       x="-0.31213129"
       y="-0.2644869"
       width="1.6246571"
       height="1.5290272"><feGaussianBlur
         inkscape:collect="always"
         stdDeviation="3.9798064"
         id="feGaussianBlur4940" /></filter><filter
       inkscape:collect="always"
       style="color-interpolation-filters:sRGB"
       id="filter7842"
       x="-0.29707137"
       y="-0.36292812"
       width="1.5939735"
       height="1.725868"><feGaussianBlur
         inkscape:collect="always"
         stdDeviation="2.8684411"
         id="feGaussianBlur7844" /></filter></defs><sodipodi:namedview
     id="namedview4"
     pagecolor="#505050"
     bordercolor="#eeeeee"
     borderopacity="1"
     inkscape:showpageshadow="0"
     inkscape:pageopacity="0"
     inkscape:pagecheckerboard="0"
     inkscape:deskcolor="#505050"
     showgrid="false"
     inkscape:document-units="mm"
     inkscape:zoom="1.3429477"
     inkscape:cx="249.82358"
     inkscape:cy="665.32747"
     inkscape:window-width="2560"
     inkscape:window-height="1410"
     inkscape:window-x="0"
     inkscape:window-y="0"
     inkscape:window-maximized="1"
     inkscape:current-layer="layer4"
     showguides="false"
     inkscape:lockguides="true"><inkscape:page
       x="0"
       y="0"
       id="page8"
       width="793.70007"
       height="1122.52" /><sodipodi:guide
       position="0,727.55941"
       orientation="0,1"
       id="guide4218"
       inkscape:locked="true"
       inkscape:label=""
       inkscape:color="rgb(0,134,229)" /><sodipodi:guide
       position="0,394.96098"
       orientation="0,1"
       id="guide4220"
       inkscape:locked="true"
       inkscape:label=""
       inkscape:color="rgb(0,134,229)" /><sodipodi:guide
       position="0,1060.1578"
       orientation="0,1"
       id="guide4222"
       inkscape:locked="true"
       inkscape:label=""
       inkscape:color="rgb(0,134,229)" /><sodipodi:guide
       position="0,62.362551"
       orientation="0,1"
       id="guide4224"
       inkscape:locked="true"
       inkscape:label=""
       inkscape:color="rgb(0,134,229)" /><sodipodi:guide
       position="39.68504,1122.52"
       orientation="-1,0"
       id="guide4226"
       inkscape:locked="true"
       inkscape:label=""
       inkscape:color="rgb(0,134,229)" /><sodipodi:guide
       position="277.79528,1122.52"
       orientation="-1,0"
       id="guide4228"
       inkscape:locked="true"
       inkscape:label=""
       inkscape:color="rgb(0,134,229)" /><sodipodi:guide
       position="515.90552,1122.52"
       orientation="-1,0"
       id="guide4230"
       inkscape:locked="true"
       inkscape:label=""
       inkscape:color="rgb(0,134,229)" /><sodipodi:guide
       position="754.01575,1122.52"
       orientation="-1,0"
       id="guide4232"
       inkscape:locked="true"
       inkscape:label=""
       inkscape:color="rgb(0,134,229)" /></sodipodi:namedview><g
     inkscape:groupmode="layer"
     id="layer1"
     inkscape:label="Background"
     style="display:inline"
     sodipodi:insensitive="true"><rect
       style="display:inline;fill:#ffffff;stroke:none;stroke-width:0;stroke-dasharray:none"
       id="rect1020"
       width="793.69995"
       height="1122.5601"
       x="-1.2503887e-13"
       y="-0.051098239"
       inkscape:label="white_full_background" /><rect
       style="display:inline;opacity:1;fill:#edecf1;fill-opacity:1;stroke-width:0.968315"
       id="rect6802"
       width="714.43872"
       height="997.91693"
       x="39.600674"
       y="62.301609"
       ry="0"
       inkscape:label="base_card_color" /><rect
       style="display:inline;fill:url(#linearGradient1168);fill-opacity:1;stroke-width:0.979901"
       id="rect1166"
       width="716.32349"
       height="208.26558"
       x="38.658295"
       y="851.953"
       inkscape:label="card_gradient" /><rect
       style="display:inline;fill:url(#linearGradient1164);fill-opacity:1;stroke-width:0.980198"
       id="rect1162"
       width="716.32355"
       height="208.39241"
       x="38.658272"
       y="519.55145"
       inkscape:label="card_gradient" /><rect
       style="display:inline;fill:url(#linearGradient1108);fill-opacity:1;stroke-width:0.878262"
       id="rect1077"
       width="715.38116"
       height="167.52264"
       x="39.600674"
       y="227.34668"
       inkscape:label="card_gradient" /></g><g
     id="g10"
     inkscape:groupmode="layer"
     inkscape:label="Class Indicator"
     transform="matrix(1.3333333,0,0,-1.3333333,0,1122.52)"
     style="display:inline"
     sodipodi:insensitive="true"><image
       width="90.235031"
       height="127.63891"
       preserveAspectRatio="none"
       xlink:href="composition/corner_arachnae.png"
       id="image1671"
       x="38.374336"
       y="-786.4549"
       transform="matrix(1,0,0,-1,0,-7.4159991e-6)"
       style="display:inline;fill:#ffffff;stroke-width:1.00063;stroke-dasharray:none;image-rendering:optimizeSpeed"
       inkscape:label="1" /><image
       width="90.235031"
       height="127.63891"
       preserveAspectRatio="none"
       xlink:href="composition/corner_arachnae.png"
       id="image9738"
       x="395.91354"
       y="-786.4549"
       transform="matrix(1,0,0,-1,0,-7.4159991e-6)"
       style="display:inline;fill:#ffffff;stroke-width:1.00063;stroke-dasharray:none;image-rendering:optimizeSpeed"
       inkscape:label="3" /><image
       width="90.235031"
       height="127.63891"
       preserveAspectRatio="none"
       xlink:href="composition/corner_arachnae.png"
       id="image9740"
       x="217.01497"
       y="-786.4549"
       transform="matrix(1,0,0,-1,0,-7.4159991e-6)"
       style="display:inline;fill:#ffffff;stroke-width:1.00063;stroke-dasharray:none;image-rendering:optimizeSpeed"
       inkscape:label="2" /><image
       width="90.235031"
       height="127.63891"
       preserveAspectRatio="none"
       xlink:href="composition/corner_arachnae.png"
       id="image9755"
       x="38.374336"
       y="-537.0191"
       transform="scale(1,-1)"
       style="display:inline;fill:#ffffff;stroke-width:1.00063;stroke-dasharray:none;image-rendering:optimizeSpeed"
       inkscape:label="4" /><image
       width="90.235031"
       height="127.63891"
       preserveAspectRatio="none"
       xlink:href="composition/corner_arachnae.png"
       id="image9759"
       x="217.01497"
       y="-537.0191"
       transform="scale(1,-1)"
       style="display:inline;fill:#ffffff;stroke-width:1.00063;stroke-dasharray:none;image-rendering:optimizeSpeed"
       inkscape:label="5" /><image
       width="90.235031"
       height="127.63891"
       preserveAspectRatio="none"
       xlink:href="composition/corner_arachnae.png"
       id="image9757"
       x="395.91354"
       y="-537.0191"
       transform="matrix(1,0,0,-1,0,-7.4159991e-6)"
       style="display:inline;fill:#ffffff;stroke-width:1.00063;stroke-dasharray:none;image-rendering:optimizeSpeed"
       inkscape:label="6" /><image
       width="90.235031"
       height="127.63891"
       preserveAspectRatio="none"
       xlink:href="composition/corner_arachnae.png"
       id="image9761"
       x="38.374336"
       y="-287.58344"
       transform="scale(1,-1)"
       style="display:inline;fill:#ffffff;stroke-width:1.00063;stroke-dasharray:none;image-rendering:optimizeSpeed"
       inkscape:label="7" /><image
       width="90.235031"
       height="127.63891"
       preserveAspectRatio="none"
       xlink:href="composition/corner_arachnae.png"
       id="image9765"
       x="217.01497"
       y="-287.58344"
       transform="scale(1,-1)"
       style="display:inline;fill:#ffffff;stroke-width:1.00063;stroke-dasharray:none;image-rendering:optimizeSpeed"
       inkscape:label="8" /><image
       width="90.235031"
       height="127.63891"
       preserveAspectRatio="none"
       xlink:href="composition/corner_arachnae.png"
       id="image9763"
       x="395.91354"
       y="-287.58344"
       transform="matrix(1,0,0,-1,0,-7.4159991e-6)"
       style="display:inline;fill:#ffffff;stroke-width:1.00063;stroke-dasharray:none;image-rendering:optimizeSpeed"
       inkscape:label="9" /><ellipse
       style="display:inline;opacity:0.798228;mix-blend-mode:normal;fill:#edecf1;fill-opacity:1;stroke-width:0.75;filter:url(#filter2287)"
       id="ellipse4901"
       cx="-159.32098"
       cy="-718.62366"
       transform="matrix(0.67317756,0,0,-0.6750182,397.49183,-258.1683)"
       rx="57.16732"
       ry="55.172997" /><ellipse
       style="display:inline;opacity:0.798228;mix-blend-mode:normal;fill:#edecf1;fill-opacity:1;stroke-width:0.75;filter:url(#filter2287)"
       id="ellipse4905"
       cx="-159.32098"
       cy="-718.62366"
       transform="matrix(0.67317756,0,0,-0.6750182,219.05948,-264.93203)"
       rx="57.16732"
       ry="55.172997" /><ellipse
       style="display:inline;opacity:0.798228;mix-blend-mode:normal;fill:#edecf1;fill-opacity:1;stroke-width:0.75;filter:url(#filter2287)"
       id="ellipse4825"
       cx="-159.32098"
       cy="-718.62366"
       transform="matrix(0.67317756,0,0,-0.6750182,574.18873,-13.592954)"
       rx="57.16732"
       ry="55.172997" /><ellipse
       style="display:inline;opacity:0.798228;mix-blend-mode:normal;fill:#edecf1;fill-opacity:1;stroke-width:0.75;filter:url(#filter2287)"
       id="ellipse4829"
       cx="-159.32098"
       cy="-718.62366"
       transform="matrix(0.67317756,0,0,-0.6750182,392.44826,-10.766858)"
       rx="57.16732"
       ry="55.172997" /><ellipse
       style="display:inline;opacity:0.798228;mix-blend-mode:normal;fill:#edecf1;fill-opacity:1;stroke-width:0.75;filter:url(#filter2287)"
       id="ellipse4833"
       cx="-159.32098"
       cy="-718.62366"
       transform="matrix(0.67317756,0,0,-0.6750182,219.23561,-16.550061)"
       rx="57.16732"
       ry="55.172997" /></g><g
     inkscape:groupmode="layer"
     id="layer3"
     inkscape:label="Characters"
     sodipodi:insensitive="true"><image
       width="159.31096"
       height="225.30251"
       preserveAspectRatio="none"
       xlink:href="sprites/arachne_ranger.png"
       id="image1499"
       x="41.489742"
       y="-777.85785"
       transform="matrix(1.3333333,0,0,1.3333333,0,1122.52)"
       style="display:inline;fill:#ffffff;image-rendering:optimizeSpeed"
       inkscape:label="1" /><image
       width="214.64743"
       height="303.56104"
       preserveAspectRatio="none"
       xlink:href="sprites/arachne_warrior.png"
       id="image4432"
       x="289.50134"
       y="81.742355"
       style="display:inline;image-rendering:optimizeSpeed"
       inkscape:label="2" /><image
       width="159.04713"
       height="224.92937"
       preserveAspectRatio="none"
       xlink:href="sprites/arachne_rogue.png"
       id="image4489"
       x="393.93817"
       y="-776.29541"
       transform="matrix(1.3333333,0,0,1.3333333,0,1122.52)"
       style="display:inline;image-rendering:optimizeSpeed"
       inkscape:label="3" /><image
       width="160.10457"
       height="226.42485"
       preserveAspectRatio="none"
       xlink:href="sprites/arachne_bard.png"
       id="image4547"
       x="37.631466"
       y="-530.83087"
       transform="matrix(1.3333333,0,0,1.3333333,0,1122.52)"
       style="display:inline;image-rendering:optimizeSpeed"
       inkscape:label="4" /><image
       width="167.54205"
       height="236.94318"
       preserveAspectRatio="none"
       xlink:href="sprites/arachne_barbarian.png"
       id="image4571"
       x="-377.90921"
       y="-539.8045"
       transform="matrix(-1.3333333,0,0,1.3333333,0,1122.52)"
       style="display:inline;image-rendering:optimizeSpeed"
       inkscape:label="5" /><image
       width="167.46274"
       height="236.83101"
       preserveAspectRatio="none"
       xlink:href="sprites/arachne_druid.png"
       id="image4583"
       x="-560.96088"
       y="-539.97302"
       transform="matrix(-1.3333333,0,0,1.3333333,0,1122.52)"
       style="display:inline;image-rendering:optimizeSpeed"
       inkscape:label="6" /><image
       width="165.60091"
       height="234.19794"
       preserveAspectRatio="none"
       xlink:href="sprites/arachne_cleric.png"
       id="image4644"
       x="-196.02644"
       y="-287.55142"
       transform="matrix(-1.3333333,0,0,1.3333333,0,1122.52)"
       style="display:inline;image-rendering:optimizeSpeed"
       inkscape:label="7" /><image
       width="168.96127"
       height="238.95026"
       preserveAspectRatio="none"
       xlink:href="sprites/arachne_paladin.png"
       id="image1243"
       x="-384.35742"
       y="-291.46564"
       transform="matrix(-1.3333333,0,0,1.3333333,0,1122.52)"
       style="display:inline;image-rendering:optimizeSpeed"
       inkscape:label="8" /></g><g
     inkscape:groupmode="layer"
     id="layer2"
     inkscape:label="Foreground"
     style="display:inline"
     sodipodi:insensitive="true"><g
       id="g1247"
       inkscape:label="white-card-borders"
       style="display:inline"><rect
         style="display:inline;opacity:1;fill:none;fill-opacity:1;stroke:#ffffff;stroke-width:23.0515;stroke-linecap:butt;stroke-linejoin:miter;stroke-miterlimit:4;stroke-dasharray:none;stroke-opacity:1;paint-order:normal;image-rendering:optimizeSpeed"
         id="rect716"
         width="238.1946"
         height="332.59839"
         x="39.600674"
         y="62.36224"
         rx="19.432751"
         ry="19.442543" /><rect
         style="display:inline;opacity:1;fill:none;fill-opacity:1;stroke:#ffffff;stroke-width:23.0515;stroke-linecap:butt;stroke-linejoin:miter;stroke-miterlimit:4;stroke-dasharray:none;stroke-opacity:1;paint-order:normal;image-rendering:optimizeSpeed"
         id="rect524"
         width="238.1946"
         height="332.59839"
         x="277.71094"
         y="62.36224"
         rx="19.432751"
         ry="19.442543" /><rect
         style="display:inline;opacity:1;fill:none;fill-opacity:1;stroke:#ffffff;stroke-width:23.0515;stroke-linecap:butt;stroke-linejoin:miter;stroke-miterlimit:4;stroke-dasharray:none;stroke-opacity:1;paint-order:normal;image-rendering:optimizeSpeed"
         id="rect540"
         width="238.1946"
         height="332.59839"
         x="515.82117"
         y="62.36224"
         rx="19.432751"
         ry="19.442543" /><rect
         style="display:inline;opacity:1;fill:none;fill-opacity:1;stroke:#ffffff;stroke-width:23.0515;stroke-linecap:butt;stroke-linejoin:miter;stroke-miterlimit:4;stroke-dasharray:none;stroke-opacity:1;paint-order:normal;image-rendering:optimizeSpeed"
         id="rect1115"
         width="238.1946"
         height="332.59839"
         x="39.600674"
         y="394.96066"
         rx="19.432751"
         ry="19.442543" /><rect
         style="display:inline;opacity:1;fill:none;fill-opacity:1;stroke:#ffffff;stroke-width:23.0515;stroke-linecap:butt;stroke-linejoin:miter;stroke-miterlimit:4;stroke-dasharray:none;stroke-opacity:1;paint-order:normal;image-rendering:optimizeSpeed"
         id="rect1117"
         width="238.1946"
         height="332.59839"
         x="277.71094"
         y="394.96066"
         rx="19.432751"
         ry="19.442543" /><rect
         style="display:inline;opacity:1;fill:none;fill-opacity:1;stroke:#ffffff;stroke-width:23.0515;stroke-linecap:butt;stroke-linejoin:miter;stroke-miterlimit:4;stroke-dasharray:none;stroke-opacity:1;paint-order:normal;image-rendering:optimizeSpeed"
         id="rect1119"
         width="238.1946"
         height="332.59839"
         x="515.82117"
         y="394.96066"
         rx="19.432751"
         ry="19.442543" /><rect
         style="display:inline;opacity:1;fill:none;fill-opacity:1;stroke:#ffffff;stroke-width:23.0515;stroke-linecap:butt;stroke-linejoin:miter;stroke-miterlimit:4;stroke-dasharray:none;stroke-opacity:1;paint-order:normal;image-rendering:optimizeSpeed"
         id="rect1139"
         width="238.1946"
         height="332.59839"
         x="39.600674"
         y="727.55908"
         rx="19.432751"
         ry="19.442543" /><rect
         style="display:inline;opacity:1;fill:none;fill-opacity:1;stroke:#ffffff;stroke-width:23.0515;stroke-linecap:butt;stroke-linejoin:miter;stroke-miterlimit:4;stroke-dasharray:none;stroke-opacity:1;paint-order:normal;image-rendering:optimizeSpeed"
         id="rect1141"
         width="238.1946"
         height="332.59839"
         x="277.71094"
         y="727.55908"
         rx="19.432751"
         ry="19.442543" /><rect
         style="display:inline;opacity:1;fill:none;fill-opacity:1;stroke:#ffffff;stroke-width:23.0515;stroke-linecap:butt;stroke-linejoin:miter;stroke-miterlimit:4;stroke-dasharray:none;stroke-opacity:1;paint-order:normal;image-rendering:optimizeSpeed"
         id="rect1143"
         width="238.1946"
         height="332.59839"
         x="515.82117"
         y="727.55908"
         rx="19.432751"
         ry="19.442543" /><rect
         style="display:inline;opacity:1;fill:none;fill-opacity:1;stroke:#ffffff;stroke-width:23.0515;stroke-linecap:butt;stroke-linejoin:miter;stroke-miterlimit:4;stroke-dasharray:none;stroke-opacity:1;paint-order:normal;image-rendering:optimizeSpeed"
         id="rect2332"
         width="714.4151"
         height="997.85583"
         x="39.600674"
         y="62.301609"
         rx="0"
         ry="0"
         inkscape:label="full_border" /></g><g
       id="g2151"
       inkscape:label="cutting-points"
       style="display:inline"><g
         id="g2028"><ellipse
           style="opacity:1;fill:none;fill-opacity:1;stroke:#000000;stroke-width:1.13386;stroke-dasharray:none;stroke-opacity:1"
           id="ellipse2013"
           cx="753.97357"
           cy="1060.3501"
           rx="5.6143551"
           ry="5.5756059" /><path
           style="opacity:1;fill:none;fill-opacity:1;stroke:#000000;stroke-width:1.13386;stroke-dasharray:none;stroke-opacity:1"
           d="m 753.97355,1122.52 0.0844,-73.1187"
           id="path2015"
           sodipodi:nodetypes="cc" /><path
           style="opacity:1;fill:none;fill-opacity:1;stroke:#000000;stroke-width:1.13386;stroke-dasharray:none;stroke-opacity:1"
           d="m 793.70004,1060.35 -50.42019,-0.1925"
           id="path2017"
           sodipodi:nodetypes="cc" /></g><g
         id="g1780"
         transform="translate(0.08436632,0.06063191)"><ellipse
           style="opacity:1;fill:none;fill-opacity:1;stroke:#000000;stroke-width:1.13386;stroke-dasharray:none;stroke-opacity:1"
           id="path1301"
           cx="39.600674"
           cy="62.301609"
           rx="5.6143551"
           ry="5.5756059" /><path
           style="opacity:1;fill:none;fill-opacity:1;stroke:#000000;stroke-width:1.13386;stroke-dasharray:none;stroke-opacity:1"
           d="M 39.600673,71.554269 39.68504,4.0953451e-5"
           id="path1773" /><path
           style="opacity:1;fill:none;fill-opacity:1;stroke:#000000;stroke-width:1.13386;stroke-dasharray:none;stroke-opacity:1"
           d="M 49.214345,62.301609 0,62.362241"
           id="path1775" /></g><g
         id="g1840"
         transform="translate(238.19461)"><ellipse
           style="opacity:1;fill:none;fill-opacity:1;stroke:#000000;stroke-width:1.13386;stroke-dasharray:none;stroke-opacity:1"
           id="ellipse1834"
           cx="39.600674"
           cy="62.301609"
           rx="5.6143551"
           ry="5.5756059" /><path
           style="opacity:1;fill:none;fill-opacity:1;stroke:#000000;stroke-width:1.13386;stroke-dasharray:none;stroke-opacity:1"
           d="M 39.600673,71.554269 39.68504,4.0953451e-5"
           id="path1836" /><path
           style="opacity:1;fill:none;fill-opacity:1;stroke:#000000;stroke-width:1.13386;stroke-dasharray:none;stroke-opacity:1"
           d="m 49.214345,62.301609 -18.781983,0.06063"
           id="path1838"
           sodipodi:nodetypes="cc" /></g><g
         id="g1944"
         transform="translate(476.26266)"><ellipse
           style="opacity:1;fill:none;fill-opacity:1;stroke:#000000;stroke-width:1.13386;stroke-dasharray:none;stroke-opacity:1"
           id="ellipse1938"
           cx="39.600674"
           cy="62.301609"
           rx="5.6143551"
           ry="5.5756059" /><path
           style="opacity:1;fill:none;fill-opacity:1;stroke:#000000;stroke-width:1.13386;stroke-dasharray:none;stroke-opacity:1"
           d="M 39.600673,71.554269 39.68504,4.0953451e-5"
           id="path1940" /><path
           style="opacity:1;fill:none;fill-opacity:1;stroke:#000000;stroke-width:1.13386;stroke-dasharray:none;stroke-opacity:1"
           d="m 49.214345,62.301609 -18.781983,0.06063"
           id="path1942"
           sodipodi:nodetypes="cc" /></g><g
         id="g1952"
         transform="translate(714.33071)"><ellipse
           style="opacity:1;fill:none;fill-opacity:1;stroke:#000000;stroke-width:1.13386;stroke-dasharray:none;stroke-opacity:1"
           id="ellipse1946"
           cx="39.600674"
           cy="62.301609"
           rx="5.6143551"
           ry="5.5756059" /><path
           style="opacity:1;fill:none;fill-opacity:1;stroke:#000000;stroke-width:1.13386;stroke-dasharray:none;stroke-opacity:1"
           d="M 39.600673,71.554269 39.68504,4.0953451e-5"
           id="path1948" /><path
           style="opacity:1;fill:none;fill-opacity:1;stroke:#000000;stroke-width:1.13386;stroke-dasharray:none;stroke-opacity:1"
           d="m 79.369241,62.301609 -48.936879,0.06063"
           id="path1950"
           sodipodi:nodetypes="cc" /></g><g
         id="g1960"
         transform="translate(0.08436632,332.56771)"><ellipse
           style="opacity:1;fill:none;fill-opacity:1;stroke:#000000;stroke-width:1.13386;stroke-dasharray:none;stroke-opacity:1"
           id="ellipse1954"
           cx="39.600674"
           cy="62.301609"
           rx="5.6143551"
           ry="5.5756059" /><path
           style="opacity:1;fill:none;fill-opacity:1;stroke:#000000;stroke-width:1.13386;stroke-dasharray:none;stroke-opacity:1"
           d="M 39.600674,73.918669 39.68504,51.3529"
           id="path1956"
           sodipodi:nodetypes="cc" /><path
           style="opacity:1;fill:none;fill-opacity:1;stroke:#000000;stroke-width:1.13386;stroke-dasharray:none;stroke-opacity:1"
           d="M 49.214345,62.301609 0,62.362241"
           id="path1958" /></g><g
         id="g1968"
         transform="translate(0.08436632,665.30808)"><ellipse
           style="opacity:1;fill:none;fill-opacity:1;stroke:#000000;stroke-width:1.13386;stroke-dasharray:none;stroke-opacity:1"
           id="ellipse1962"
           cx="39.600674"
           cy="62.301609"
           rx="5.6143551"
           ry="5.5756059" /><path
           style="opacity:1;fill:none;fill-opacity:1;stroke:#000000;stroke-width:1.13386;stroke-dasharray:none;stroke-opacity:1"
           d="M 39.600674,73.918669 39.68504,51.3529"
           id="path1964"
           sodipodi:nodetypes="cc" /><path
           style="opacity:1;fill:none;fill-opacity:1;stroke:#000000;stroke-width:1.13386;stroke-dasharray:none;stroke-opacity:1"
           d="M 49.214345,62.301609 0,62.362241"
           id="path1966" /></g><g
         id="g1976"
         transform="translate(0.08436632,998.04845)"><ellipse
           style="opacity:1;fill:none;fill-opacity:1;stroke:#000000;stroke-width:1.13386;stroke-dasharray:none;stroke-opacity:1"
           id="ellipse1970"
           cx="39.600674"
           cy="62.301609"
           rx="5.6143551"
           ry="5.5756059" /><path
           style="opacity:1;fill:none;fill-opacity:1;stroke:#000000;stroke-width:1.13386;stroke-dasharray:none;stroke-opacity:1"
           d="M 39.600674,124.47159 39.68504,51.3529"
           id="path1972"
           sodipodi:nodetypes="cc" /><path
           style="opacity:1;fill:none;fill-opacity:1;stroke:#000000;stroke-width:1.13386;stroke-dasharray:none;stroke-opacity:1"
           d="M 49.214345,62.301609 0,62.362241"
           id="path1974" /></g><g
         id="g2005"><ellipse
           style="opacity:1;fill:none;fill-opacity:1;stroke:#000000;stroke-width:1.13386;stroke-dasharray:none;stroke-opacity:1"
           id="ellipse1978"
           cx="277.71091"
           cy="62.301609"
           rx="5.6143551"
           ry="5.5756059"
           transform="translate(0.08436632,998.04844)" /><path
           style="opacity:1;fill:none;fill-opacity:1;stroke:#000000;stroke-width:1.13386;stroke-dasharray:none;stroke-opacity:1"
           d="m 277.71091,124.47159 0.0844,-73.11869"
           id="path1980"
           sodipodi:nodetypes="cc"
           transform="translate(0.08436632,998.04844)" /><path
           style="opacity:1;fill:none;fill-opacity:1;stroke:#000000;stroke-width:1.13386;stroke-dasharray:none;stroke-opacity:1"
           d="M 287.32458,62.301609 267.01721,62.10905"
           id="path1982"
           transform="translate(0.08436632,998.04844)"
           sodipodi:nodetypes="cc" /></g><g
         id="g2037"><ellipse
           style="opacity:1;fill:none;fill-opacity:1;stroke:#000000;stroke-width:1.13386;stroke-dasharray:none;stroke-opacity:1"
           id="ellipse2007"
           cx="515.86334"
           cy="1060.3501"
           rx="5.6143551"
           ry="5.5756059" /><path
           style="opacity:1;fill:none;fill-opacity:1;stroke:#000000;stroke-width:1.13386;stroke-dasharray:none;stroke-opacity:1"
           d="m 515.86332,1122.52 0.0844,-73.1187"
           id="path2009"
           sodipodi:nodetypes="cc" /><path
           style="opacity:1;fill:none;fill-opacity:1;stroke:#000000;stroke-width:1.13386;stroke-dasharray:none;stroke-opacity:1"
           d="m 525.47699,1060.35 -20.30737,-0.1925"
           id="path2011"
           sodipodi:nodetypes="cc" /></g><g
         id="g2045"
         transform="translate(0,-332.69469)"><ellipse
           style="opacity:1;fill:none;fill-opacity:1;stroke:#000000;stroke-width:1.13386;stroke-dasharray:none;stroke-opacity:1"
           id="ellipse2039"
           cx="753.97357"
           cy="1060.3501"
           rx="5.6143551"
           ry="5.5756059" /><path
           style="opacity:1;fill:none;fill-opacity:1;stroke:#000000;stroke-width:1.13386;stroke-dasharray:none;stroke-opacity:1"
           d="m 753.97357,1070.5452 0.0844,-21.1439"
           id="path2041"
           sodipodi:nodetypes="cc" /><path
           style="opacity:1;fill:none;fill-opacity:1;stroke:#000000;stroke-width:1.13386;stroke-dasharray:none;stroke-opacity:1"
           d="m 793.70004,1060.35 -50.42019,-0.1925"
           id="path2043"
           sodipodi:nodetypes="cc" /></g><g
         id="g2053"
         transform="translate(0,-665.29312)"><ellipse
           style="opacity:1;fill:none;fill-opacity:1;stroke:#000000;stroke-width:1.13386;stroke-dasharray:none;stroke-opacity:1"
           id="ellipse2047"
           cx="753.97357"
           cy="1060.3501"
           rx="5.6143551"
           ry="5.5756059" /><path
           style="opacity:1;fill:none;fill-opacity:1;stroke:#000000;stroke-width:1.13386;stroke-dasharray:none;stroke-opacity:1"
           d="m 753.97357,1070.5452 0.0844,-21.1439"
           id="path2049"
           sodipodi:nodetypes="cc" /><path
           style="opacity:1;fill:none;fill-opacity:1;stroke:#000000;stroke-width:1.13386;stroke-dasharray:none;stroke-opacity:1"
           d="m 793.70004,1060.35 -50.42019,-0.1925"
           id="path2051"
           sodipodi:nodetypes="cc" /></g><g
         id="g2061"
         transform="translate(-238.11025,-665.29312)"><ellipse
           style="opacity:1;fill:none;fill-opacity:1;stroke:#000000;stroke-width:1.13386;stroke-dasharray:none;stroke-opacity:1"
           id="ellipse2055"
           cx="753.97357"
           cy="1060.3501"
           rx="5.6143551"
           ry="5.5756059" /><path
           style="opacity:1;fill:none;fill-opacity:1;stroke:#000000;stroke-width:1.13386;stroke-dasharray:none;stroke-opacity:1"
           d="m 753.97357,1070.5452 0.0844,-21.1439"
           id="path2057"
           sodipodi:nodetypes="cc" /><path
           style="opacity:1;fill:none;fill-opacity:1;stroke:#000000;stroke-width:1.10665;stroke-dasharray:none;stroke-opacity:1"
           d="m 764.34876,1060.3503 -21.88423,-0.193"
           id="path2059"
           sodipodi:nodetypes="cc" /></g><g
         id="g2069"
         transform="translate(-476.17829,-665.29312)"><ellipse
           style="opacity:1;fill:none;fill-opacity:1;stroke:#000000;stroke-width:1.13386;stroke-dasharray:none;stroke-opacity:1"
           id="ellipse2063"
           cx="753.97357"
           cy="1060.3501"
           rx="5.6143551"
           ry="5.5756059" /><path
           style="opacity:1;fill:none;fill-opacity:1;stroke:#000000;stroke-width:1.13386;stroke-dasharray:none;stroke-opacity:1"
           d="m 753.97357,1070.5452 0.0844,-21.1439"
           id="path2065"
           sodipodi:nodetypes="cc" /><path
           style="opacity:1;fill:none;fill-opacity:1;stroke:#000000;stroke-width:1.10665;stroke-dasharray:none;stroke-opacity:1"
           d="m 764.34876,1060.3503 -21.88423,-0.193"
           id="path2067"
           sodipodi:nodetypes="cc" /></g><g
         id="g2077"
         transform="translate(-238.11025,-332.69474)"><ellipse
           style="opacity:1;fill:none;fill-opacity:1;stroke:#000000;stroke-width:1.13386;stroke-dasharray:none;stroke-opacity:1"
           id="ellipse2071"
           cx="753.97357"
           cy="1060.3501"
           rx="5.6143551"
           ry="5.5756059" /><path
           style="opacity:1;fill:none;fill-opacity:1;stroke:#000000;stroke-width:1.13386;stroke-dasharray:none;stroke-opacity:1"
           d="m 753.97357,1070.5452 0.0844,-21.1439"
           id="path2073"
           sodipodi:nodetypes="cc" /><path
           style="opacity:1;fill:none;fill-opacity:1;stroke:#000000;stroke-width:1.10665;stroke-dasharray:none;stroke-opacity:1"
           d="m 764.34876,1060.3503 -21.88423,-0.193"
           id="path2075"
           sodipodi:nodetypes="cc" /></g><g
         id="g2085"
         transform="translate(-476.17829,-332.69474)"><ellipse
           style="opacity:1;fill:none;fill-opacity:1;stroke:#000000;stroke-width:1.13386;stroke-dasharray:none;stroke-opacity:1"
           id="ellipse2079"
           cx="753.97357"
           cy="1060.3501"
           rx="5.6143551"
           ry="5.5756059" /><path
           style="opacity:1;fill:none;fill-opacity:1;stroke:#000000;stroke-width:1.13386;stroke-dasharray:none;stroke-opacity:1"
           d="m 753.97357,1070.5452 0.0844,-21.1439"
           id="path2081"
           sodipodi:nodetypes="cc" /><path
           style="opacity:1;fill:none;fill-opacity:1;stroke:#000000;stroke-width:1.10665;stroke-dasharray:none;stroke-opacity:1"
           d="m 764.34876,1060.3503 -21.88423,-0.193"
           id="path2083"
           sodipodi:nodetypes="cc" /></g></g></g><g
     inkscape:groupmode="layer"
     id="layer5"
     inkscape:label="Text Shadows"
     sodipodi:insensitive="true"><path
       style="opacity:0.776109;mix-blend-mode:normal;fill:#312238;fill-opacity:1;stroke:#2e2141;stroke-width:1.88977;stroke-linecap:round;stroke-linejoin:round;stroke-dasharray:none;stroke-opacity:1;filter:url(#filter4890)"
       id="path4888"
       d="m 69.983253,99.037794 c -0.533345,1.443656 -0.656498,3.005696 -0.831181,4.525146 -0.166415,1.43136 -0.301007,2.8649 -0.401498,4.30219 -0.0562,1.39595 -0.07531,2.79269 -0.118831,4.1892 -0.05806,1.3188 -0.106508,2.63787 -0.127318,3.95784 -0.0012,0.91568 -0.01101,1.83127 -0.01118,2.74696 0.0025,0.74071 0.0014,1.48095 0.101324,2.21588 0.08539,0.62347 0.28151,1.19752 0.65536,1.70344 0.419963,0.45806 0.934055,0.81605 1.445507,1.16364 2.772359,1.24116 5.590937,3.89124 8.805205,4.71593 0.55739,0.1002 1.104034,0.0361 1.65428,-0.062 0.590442,-0.11392 1.05451,-0.50463 1.532564,-0.84356 0.486591,-0.28857 0.918099,-0.64877 1.318226,-1.04574 0.415476,-0.42216 0.693615,-0.94386 0.941412,-1.47555 0.278839,-0.82791 0.519653,-1.68061 0.648115,-2.54491 -0.997769,-2.00673 -0.177135,-0.68964 -3.439295,-3.13764 0,0 -0.269834,-0.13642 -0.269834,-0.13642 v 0 c -3.1432,-0.87256 -2.095365,-1.37486 -3.450312,-0.49769 -0.03873,0.30988 -0.05218,0.62292 -0.100162,0.93151 -0.07542,0.48501 -0.261779,0.95115 -0.435393,1.40677 -0.201639,0.45581 -0.455044,0.87374 -0.824664,1.21513 -0.345368,0.36185 -0.747596,0.65845 -1.158143,0.94232 -0.434021,0.26122 -0.867874,0.48174 -1.384766,0.50577 -0.488661,0.0378 -0.976418,-0.0218 -1.432051,-0.2106 -2.79729,-1.04386 -6.673014,-3.94248 5.110276,3.14607 -0.535979,-0.29718 -1.039297,-0.64456 -1.539736,-0.99768 -0.46427,-0.32877 -0.799473,-0.73059 -0.940592,-1.29587 -0.150368,-0.69877 -0.220278,-1.40554 -0.195489,-2.12148 -0.02238,-0.93473 -0.08187,-1.86767 -0.103962,-2.80239 -0.04321,-1.33236 -0.06551,-2.66547 -0.01834,-3.99824 0.04316,-1.4106 0.08001,-2.82265 0.04458,-4.23384 -0.03266,-1.49442 -0.05755,-2.98989 -0.0415,-4.48458 0.03448,-0.77298 0.03043,-0.94142 0.111668,-1.71434 0.102195,-0.97233 0.311442,-1.93247 0.341527,-2.91215 0,0 -5.88579,-3.153136 -5.88579,-3.153136 z"
       inkscape:label="1" /><path
       style="opacity:0.776109;mix-blend-mode:normal;fill:#312238;fill-opacity:1;stroke:#2e2141;stroke-width:1.51181;stroke-linecap:round;stroke-linejoin:round;stroke-dasharray:none;stroke-opacity:1;filter:url(#filter4462)"
       id="path4460"
       d="m 309.01619,100.37873 c 0.63522,-0.22084 1.2819,-0.413587 1.91453,-0.641169 1.84193,-0.662612 -0.6012,0.150639 1.36055,-0.48933 1.38119,-0.426804 2.81279,-0.539904 4.24891,-0.469807 0.43506,0.04771 0.85564,0.125154 1.22022,0.380456 0.0894,0.06261 0.34434,0.266055 0.24936,0.212264 -5.20909,-2.950072 -9.81106,-5.708612 -7.12159,-4.097415 0.30593,0.237977 0.53572,0.4854 0.49364,0.891061 -0.13461,0.472336 -0.48365,0.824761 -0.81859,1.166074 -0.4342,0.408928 -0.92237,0.753081 -1.40945,1.094954 -0.41624,0.32067 -0.84624,0.622986 -1.26582,0.939075 -0.32994,0.232825 -0.61788,0.510883 -0.86599,0.827707 -0.1804,0.20748 -0.43037,0.85878 -0.10595,1.05479 7.56843,4.57273 5.05327,3.78191 8.32108,4.7723 0.75958,0.26922 1.50487,0.57347 2.23085,0.92299 0.11258,0.0568 0.22517,0.11361 0.33776,0.17043 0.2436,0.12294 0.37926,0.18696 0.61459,0.32347 0.0961,0.0557 0.38035,0.22955 0.28405,0.17421 -5.96151,-3.42597 -9.98705,-5.76814 -7.18505,-4.1382 0.42076,0.26976 0.86381,0.50945 1.1992,0.88511 0.19243,0.23949 0.3554,0.48175 0.33613,0.79616 -0.0544,0.30012 -0.22238,0.55153 -0.37943,0.80545 -0.14059,0.18818 -0.2526,0.39535 -0.3674,0.59978 -0.12898,0.23372 -0.2255,0.48951 -0.38679,0.70362 -0.11355,0.15092 -0.23253,0.28428 -0.38819,0.39155 -0.24685,0.15443 -0.48585,0.31906 -0.74418,0.45465 -0.38864,0.1749 -0.78729,0.32761 -1.1834,0.48514 -0.50222,0.18226 -1.00449,0.36369 -1.48821,0.59129 -0.57189,0.26146 -1.09235,0.61344 -1.6313,0.93302 -0.5929,0.30351 -1.1366,0.67881 -1.66528,1.08115 -0.0752,0.0663 -0.15614,0.12675 -0.22563,0.19906 -0.0843,0.0877 -0.15375,0.18864 -0.23444,0.27967 -0.35706,0.40279 -0.70672,0.79262 -1.01515,1.23524 -0.49851,0.67809 -0.811,1.45291 -1.10888,2.23293 -0.2277,0.75334 -0.27492,1.52866 -0.24464,2.30948 0.071,0.64118 0.1611,1.27995 0.36061,1.89474 0.10455,0.23984 0.41075,0.84053 0.62879,0.96959 8.98165,5.31647 5.72166,4.62935 9.54047,5.38688 0.9022,0.15036 1.7952,-0.051 2.68426,-0.18859 1.0453,-0.13287 2.08281,-0.31116 3.11757,-0.50844 0.69002,-0.12947 1.37071,-0.29965 2.04977,-0.47643 0.17805,-0.0464 0.35964,-0.0808 0.53401,-0.13949 0.18252,-0.0614 0.35615,-0.14658 0.53423,-0.21986 0.6957,-0.31632 1.39362,-0.63952 2.0126,-1.09358 0.20547,-0.15072 0.55329,-0.44943 0.75083,-0.61602 0.41012,-0.40601 0.80963,-0.83609 1.09707,-1.34086 0.15484,-0.27193 0.19037,-0.39895 0.30089,-0.68961 0.13413,-0.47016 0.27071,-0.95504 0.27556,-1.44846 0.003,-0.31434 -0.0416,-0.45221 -0.10333,-0.76133 -0.1475,-0.44817 -0.38993,-0.85143 -0.73155,-1.17809 -0.0733,-0.0701 -0.14461,-0.14571 -0.23247,-0.19643 -3.10397,-1.79199 -6.22583,-3.55281 -9.33875,-5.32922 -0.37484,-0.11462 -0.76917,-0.1006 -1.15311,-0.1556 -0.13003,-0.0181 -0.25845,-0.0531 -0.39009,-0.0596 -0.0244,-0.001 -0.0877,-0.0187 -0.0733,9.6e-4 0.0486,0.0662 0.12632,0.10497 0.18948,0.15745 2.20248,1.68735 0.94289,0.71414 3.77049,2.93032 0,0 0.24144,0.182 0.24144,0.182 v 0 c 3.11137,2.27107 1.71812,1.27583 4.16749,3.00282 0.31572,0.17822 0.37416,0.21249 0.71078,0.23393 0.3046,0.043 0.58447,0.15034 0.83915,0.32676 -2.95142,-1.6989 -5.91111,-3.3835 -8.85424,-5.0967 -0.0874,-0.0509 0.18986,0.0699 0.28364,0.10775 0.3655,0.14764 0.69294,0.34594 0.95352,0.64759 0.0572,0.0672 0.12505,0.12657 0.17152,0.20155 0.25609,0.41314 0.15786,0.90039 0.0404,1.33916 -0.19091,0.65289 -0.50508,1.16371 -1.02713,1.61305 -0.70176,0.64055 -1.50693,1.15688 -2.419,1.44474 -1.01919,0.263 -2.04469,0.49284 -3.07806,0.69404 -1.01085,0.19251 -2.02953,0.3422 -3.05028,0.47164 -0.82842,0.074 -1.68289,0.12131 -2.44936,-0.26094 -3.00457,-1.82334 -3.81999,-2.31584 8.30439,4.83189 0.0915,0.0539 -0.20202,-0.068 -0.29674,-0.11608 -0.25678,-0.13029 -0.47428,-0.3348 -0.68168,-0.52964 -0.46565,-0.50912 -0.75772,-1.06132 -0.91419,-1.73835 -0.19995,-0.7053 -0.36094,-1.43422 -0.30636,-2.17211 0.0106,-0.12123 0.0125,-0.24352 0.0317,-0.36367 0.095,-0.5937 0.38024,-1.16045 0.6857,-1.66928 0.42758,-0.55102 0.8641,-1.04469 1.44773,-1.43678 0.47307,-0.38228 0.98587,-0.7132 1.51705,-1.00896 0.53945,-0.28557 1.08653,-0.56087 1.64342,-0.81043 0.49017,-0.18999 0.9872,-0.36157 1.47448,-0.55911 0.44342,-0.16666 0.89212,-0.32002 1.29295,-0.57925 0.30362,-0.18629 0.61891,-0.36232 0.88504,-0.60108 0.18087,-0.19126 0.34809,-0.39979 0.48813,-0.62272 0.13789,-0.24337 0.25808,-0.49526 0.39955,-0.73637 0.12458,-0.20354 0.25936,-0.40179 0.35761,-0.62013 0.18555,-0.35396 0.36115,-0.71863 0.48384,-1.09926 0.12518,-0.50412 0.14706,-0.98514 -0.0976,-1.46041 -0.1221,-0.23747 -0.24701,-0.51619 -0.42362,-0.71947 -0.19057,-0.21936 -0.46671,-0.36044 -0.6889,-0.54154 -3.0009,-2.06944 -6.19095,-3.89833 -9.51888,-5.38875 -0.73877,-0.30803 -1.49818,-0.56757 -2.21587,-0.9242 -2.4757,-1.517258 -7.98132,-4.888141 7.16734,4.18791 0.0519,0.0311 -0.12238,-0.0205 -0.18146,-0.007 -0.18053,0.0402 -0.25182,0.25017 -0.37363,0.2424 0.21007,-0.25086 0.48009,-0.44292 0.73119,-0.64943 0.41608,-0.31792 0.8285,-0.64056 1.24901,-0.95264 0.48416,-0.40021 0.95929,-0.81335 1.40257,-1.25875 0.45028,-0.47186 0.89827,-0.97089 1.10134,-1.60393 0.15806,-0.67672 0.13957,-1.115431 -0.2189,-1.728566 -1.87109,-2.725504 -0.20171,-0.370273 -7.96087,-4.809172 -0.0892,-0.05105 -0.19884,-0.05392 -0.30043,-0.06968 -0.39558,-0.06137 -0.79861,-0.0286 -1.19462,0.004 -1.3718,0.15152 -2.7192,0.469374 -4.01208,0.956955 -0.26734,0.105803 -1.11191,0.430788 -1.37526,0.570835 -0.53126,0.28251 -1.01195,0.691005 -1.37124,1.171773 0,0 6.13992,3.888465 6.13992,3.888465 z"
       inkscape:label="2" /><path
       style="opacity:0.776109;mix-blend-mode:normal;fill:#312238;fill-opacity:1;stroke:#2e2141;stroke-width:1.88977;stroke-linecap:round;stroke-linejoin:round;stroke-dasharray:none;stroke-opacity:1;filter:url(#filter4904)"
       id="path4902"
       d="m 550.90631,94.212025 c -0.16975,0.244452 -0.26044,0.531389 -0.41018,0.786264 -0.0927,0.157685 -0.21201,0.298421 -0.30731,0.454513 -0.28486,0.46657 -0.4901,0.964712 -0.68974,1.471273 -0.34874,0.883716 -0.46013,1.818098 -0.48704,2.759781 -0.007,0.799414 0.16588,1.585044 0.34941,2.358774 0.19659,0.74251 0.32084,1.49965 0.42692,2.25934 0.065,0.65346 0.16448,1.30237 0.27044,1.95025 0.1235,0.77259 0.11841,1.55764 0.11749,2.33776 0.01,0.82326 -0.081,1.64301 -0.29152,2.4386 -0.0766,0.36299 -0.22728,0.66711 -0.48484,0.92523 -0.0909,0.12655 -0.30953,0.15741 -0.35443,0.31145 -0.0478,0.17971 -0.008,0.0621 -0.17148,0.33101 2.57185,1.64339 5.1261,3.31465 7.71555,4.93018 0.0208,0.013 0.79,0.12104 0.84006,0.13032 0.90937,0.13925 1.73514,0.49337 2.52556,0.94987 2.84596,1.72349 -0.0883,-0.0583 -6.58227,-3.7764 -0.14944,-0.0856 0.29288,0.18124 0.4379,0.27409 0.36529,0.23389 0.72345,0.47924 1.0837,0.72077 0.43378,0.30299 0.87903,0.53805 1.15244,1.00335 0.23512,0.57624 0.36756,1.19639 0.45391,1.81151 0.15012,0.70138 0.0748,1.35627 -0.18199,2.01748 -0.35232,0.75472 -0.9821,1.26343 -1.70194,1.64428 -0.84817,0.38946 -1.75869,0.63376 -2.65467,0.88993 -0.78077,0.24009 -1.58337,0.39517 -2.38829,0.527 -0.75519,0.13356 -1.51342,0.22998 -2.28081,0.18558 -0.67398,-0.0711 -1.35009,-0.14575 -2.00009,-0.34279 -0.10061,-0.0403 -0.20566,-0.0708 -0.30184,-0.12074 -0.21901,-0.11367 -0.81855,-0.54993 -0.6042,-0.4277 2.65409,1.51348 5.28532,3.06675 7.93525,4.58749 0.12034,0.0691 -0.23642,-0.14638 -0.34562,-0.23196 -0.10626,-0.0833 -0.19931,-0.18214 -0.29896,-0.27321 -0.54694,-0.57288 -0.89746,-1.27002 -1.13944,-2.01563 -0.1542,-0.52613 -0.28014,-1.05891 -0.43941,-1.58346 -0.0646,-0.21244 -0.11737,-0.42766 -0.13907,-0.64855 -3.6e-4,-0.0758 0.003,-0.13537 0.0594,-0.18748 0.0184,-0.11059 0.20634,-0.18486 0.0231,-0.22456 0,0 -8.71622,-4.47403 -8.71622,-4.47403 v 0 c -0.17281,-0.0182 -0.0197,-0.0922 0.005,-0.14374 -0.0156,0.1565 -0.0978,0.29236 -0.1256,0.44744 -0.0672,0.34231 -0.0443,0.6865 0.0445,1.02396 0.14582,0.55754 0.36611,1.09141 0.51586,1.64823 0.24842,0.83561 0.48911,1.67223 1.00302,2.39289 2.19358,3.13146 4.19887,2.90635 9.14892,5.77678 0.33898,0.19656 0.74156,0.25582 1.11896,0.32829 0.69136,0.0811 1.38737,0.17932 2.08484,0.12486 0.76629,-0.0811 1.52034,-0.23586 2.2751,-0.38941 0.78775,-0.18404 1.55466,-0.42927 2.29713,-0.75287 0.85501,-0.36539 1.70583,-0.74169 2.51052,-1.21028 0.86216,-0.57925 1.502,-1.2039 1.96776,-2.14967 0.35899,-0.81759 0.50071,-1.56428 0.3944,-2.45761 -0.10421,-0.6638 -0.22004,-1.32504 -0.35175,-1.98406 -0.2011,-0.78966 -0.32174,-1.05155 -1.01339,-1.53201 -3.23638,-2.23165 -6.67026,-4.17317 -10.14761,-6.00197 -0.88509,-0.38893 -1.80233,-0.66284 -2.7518,-0.84807 -0.22297,-0.0584 -0.42146,-0.1029 -0.63582,-0.18619 -0.0705,-0.0274 -0.2683,-0.1385 -0.20499,-0.0971 2.4804,1.62021 4.972,3.22322 7.458,4.83483 -0.15719,0.24141 -0.14768,0.13544 -0.1456,0.28404 0.15268,0.0354 0.31896,-0.32738 0.43052,-0.3889 0.41365,-0.4867 0.39792,-0.814 0.53894,-1.41723 0.18176,-0.87065 0.31469,-1.749 0.32408,-2.64083 0.0189,-0.81612 0.0232,-1.63476 -0.0364,-2.44931 -0.0812,-0.66597 -0.25406,-1.3162 -0.33151,-1.98323 -0.12147,-0.80944 -0.29085,-1.61185 -0.50208,-2.40267 -0.22109,-0.78643 -0.51327,-1.55302 -0.68534,-2.35284 -0.15955,-0.88893 -0.25317,-1.79298 -0.0372,-2.68262 0.12283,-0.51386 0.27597,-1.016617 0.40987,-1.527416 0.0454,-0.173089 0.0668,-0.352992 0.12619,-0.52177 0.0318,-0.09027 0.32033,-0.638616 0.37887,-0.751134 0,0 -6.48345,-3.739925 -6.48345,-3.739925 z"
       inkscape:label="3" /><path
       style="opacity:0.656724;fill:#312238;fill-opacity:1;stroke:#2e2141;stroke-width:1.88977;stroke-linecap:round;stroke-linejoin:round;stroke-dasharray:none;stroke-opacity:1;filter:url(#filter4926)"
       id="path4924"
       d="m 70.729877,449.86209 c 1.763685,-0.39217 3.573224,-0.52633 5.370652,-0.66828 1.664353,-0.13048 3.331395,-0.24607 5.001541,-0.24034 0.912104,0.0452 1.829403,0.0426 2.738537,0.13514 0.03805,9.8e-4 0.541023,0.0392 0.537363,0.11095 -0.0027,0.0535 -0.0088,0.17928 -0.05439,0.15119 -2.549863,-1.57032 -5.043969,-3.22942 -7.565953,-4.84413 -0.08371,0.57072 -0.322942,1.11205 -0.533169,1.64599 -0.281669,0.7964 -0.542259,1.60027 -0.822715,2.39753 -0.256048,0.83535 -0.561374,1.65334 -0.789165,2.49728 -0.229933,0.8144 -0.583583,1.58546 -0.870525,2.37929 -0.166676,0.42697 -0.25032,0.87169 -0.268323,1.32771 1.015219,3.45063 5.563647,4.88737 9.028151,5.48198 0.902821,0.16697 1.822841,0.13087 2.73609,0.11738 1.013355,-0.01 2.025543,-0.0475 3.02858,-0.19709 0.716845,-0.11472 1.447778,-0.21097 2.089376,-0.56771 0.548164,-0.47815 0.90921,-1.12227 1.254115,-1.75287 0.379828,-0.70746 0.594797,-1.48427 0.916777,-2.21542 0.09597,-0.27626 0.55293,-1.43781 0.338195,-1.68175 -0.304508,-0.34592 -0.70891,-0.58907 -1.063365,-0.8836 -1.051591,-0.61348 -2.103181,-1.22696 -3.154772,-1.84044 0,0 -0.272922,-0.13013 -0.272922,-0.13013 v 0 c -1.000144,-0.42245 -2.000287,-0.84489 -3.000431,-1.26734 -0.345225,-0.0953 -0.677663,-0.27678 -1.035677,-0.28578 -0.09973,-0.002 -0.09309,1.47404 -0.111432,1.60283 -0.04967,0.73001 -0.29713,1.42262 -0.670929,2.05162 -0.274535,0.44948 -0.542084,0.99255 -1.049182,1.2104 -0.582018,0.2053 -1.183958,0.33766 -1.797216,0.41098 -0.973395,0.096 -1.94909,0.15274 -2.927968,0.12615 -0.887644,-0.0173 -1.786064,-0.0673 -2.628404,-0.37484 -0.103436,-0.046 -0.210495,-0.0846 -0.310308,-0.13801 -0.08666,-0.0464 -0.332091,-0.21029 -0.247399,-0.16042 11.542151,6.7965 10.296317,5.70002 7.35922,4.41484 -0.03786,-0.0101 -0.07979,-0.0105 -0.113596,-0.0303 -0.172993,-0.10147 -0.0497,-0.65077 -0.0413,-0.80039 0.215125,-0.82327 0.519321,-1.61575 0.801503,-2.41813 0.29367,-0.83096 0.474687,-1.69524 0.748792,-2.53303 0.197372,-0.80413 0.374481,-1.6152 0.684802,-2.3859 0.231453,-0.59109 0.501941,-1.16502 0.737451,-1.75432 -2.508309,-1.69938 -5.016618,-3.39875 -7.524927,-5.09813 -0.03879,0.0393 -0.07152,0.0856 -0.116381,0.11782 -0.125536,0.09 -0.354209,0.0127 -0.488318,0.055 -0.848198,0.0542 -1.701925,-0.0117 -2.550186,0.0624 -1.600786,0.0961 -3.192939,0.2863 -4.786335,0.46357 -1.889598,0.2073 -3.782181,0.37182 -5.679165,0.49594 0,0 7.103311,5.01233 7.103311,5.01233 z"
       inkscape:label="4" /><path
       style="opacity:0.776109;mix-blend-mode:normal;fill:#312238;fill-opacity:1;stroke:#2e2141;stroke-width:1.88977;stroke-linecap:round;stroke-linejoin:round;stroke-dasharray:none;stroke-opacity:1;filter:url(#filter4920)"
       id="path4918"
       d="m 301.28662,453.64789 c 0.73,0.99022 1.68523,1.77336 2.66799,2.49886 3.65864,2.36614 7.34722,5.13046 11.68163,6.01219 1.38165,0.11734 2.78237,0.03 4.1485,-0.19874 1.09478,-0.27676 2.15893,-0.68779 3.17485,-1.1795 0.94255,-0.45063 1.78724,-1.06252 2.57883,-1.73832 0.74715,-0.67609 1.52167,-1.31718 2.16475,-2.09635 0.0918,-0.12878 0.18821,-0.25442 0.27544,-0.38635 0.17618,-0.26646 0.32963,-0.54739 0.50264,-0.81591 0.27856,-0.43234 0.57324,-0.84491 0.83477,-1.28835 0.44024,-0.76397 0.77718,-1.57988 1.0856,-2.4039 0.2247,-0.68851 0.49627,-1.35833 0.64898,-2.06748 0.13172,-0.58631 0.20718,-1.18294 0.20052,-1.78366 0.004,-0.30478 -0.0761,-0.59955 -0.17395,-0.8853 -0.0369,-0.1149 -0.0506,-0.24563 -0.13795,-0.33502 -0.0991,-0.1758 -0.0515,-0.41851 -0.0216,-0.60792 0.0231,-0.21785 0.0639,-0.43253 0.10433,-0.64752 0.049,-0.12921 0.0492,-0.26115 0.0579,-0.39664 0.22136,-3.51032 -5.81527,-6.64155 -8.95668,-5.07241 -0.67462,0.24765 -1.33885,0.51606 -2.01541,0.75956 -1.25665,0.41561 -2.55806,0.66998 -3.87396,0.79421 -1.03044,0.0942 -2.0522,-0.0216 -3.06125,-0.22433 -0.81167,-0.18227 -1.61731,-0.38544 -2.43493,-0.54005 -0.78767,-0.10372 -1.52072,-0.26843 -2.23488,-0.61889 -2.79007,-1.77177 -5.79994,-3.40218 7.75835,4.43391 -0.13012,-0.0448 -0.24718,-0.11512 -0.3641,-0.18585 -0.1908,-0.11096 -0.3247,-0.26372 -0.41402,-0.46266 -0.0962,-0.16637 -0.13517,-0.35158 -0.1857,-0.53442 -0.0146,-0.13959 -0.0526,-0.28408 -0.0157,-0.42266 -0.0315,-0.0408 0.0336,-0.0904 -0.0352,-0.0952 -0.10115,-0.11777 -0.12534,-0.28913 -0.0985,-0.4408 0.19844,-0.53267 0.46887,-1.03677 0.68825,-1.56257 0.32214,-0.91057 0.70443,-1.79576 1.12278,-2.66563 0.38237,-0.63106 0.72149,-1.29841 1.15379,-1.89844 0.27909,-0.38738 0.56257,-0.69034 0.87821,-1.04794 0.93951,-1.01077 2.0346,-1.85249 3.13505,-2.67742 0.87969,-0.58651 1.72952,-1.21082 2.49107,-1.94573 0.26365,-0.25578 0.54616,-0.48499 0.8403,-0.70196 0.0923,0.0722 0.0704,0.0582 -0.32805,-0.22436 0,0 -7.60442,-4.79085 -7.60442,-4.79085 v 0 c -0.40835,-0.20455 -0.34065,-0.31266 -0.50669,-0.0681 -0.12574,0.29857 -0.3376,0.54378 -0.54766,0.789 -0.69678,0.71339 -1.44056,1.36452 -2.26238,1.93437 -1.14667,0.86154 -2.24583,1.79091 -3.25034,2.81616 -0.87436,0.94043 -1.74118,1.90277 -2.32778,3.05639 -0.47608,0.85686 -0.85407,1.75483 -1.24553,2.65212 -0.27031,0.53893 -0.5929,1.04799 -0.8726,1.58207 -0.1161,0.27508 -0.22641,0.55201 -0.2428,0.84738 -0.0236,0.15296 0.0109,0.0405 0.0288,0.16584 0.10519,0.0948 0.0993,0.22051 0.11714,0.35717 0.0216,0.2441 0.0701,0.48419 0.12344,0.72316 0.094,0.28428 0.1458,0.58174 0.30281,0.84217 0.0713,0.10531 0.24209,0.37638 0.34875,0.43878 3.03184,1.77374 5.61467,4.09023 8.90897,5.02276 0.72724,0.17945 1.47674,0.24223 2.20581,0.41509 0.80745,0.1755 1.6116,0.37275 2.43242,0.47811 1.04524,0.10609 2.0981,0.11524 3.13988,-0.0421 1.34751,-0.22049 2.66631,-0.56169 3.99843,-0.85754 0.52352,-0.0978 1.04173,-0.19945 1.5705,-0.26347 0.12324,-0.0149 0.39339,-0.0535 0.53118,-0.0456 0.0591,0.003 0.11628,0.0223 0.17442,0.0335 2.86989,2.24799 -10.59066,-2.29172 -8.31181,-4.90535 0.0602,-0.002 0.0942,-0.0668 0.16122,-0.0328 0.0681,0.18295 0.0228,0.3847 0.0177,0.57414 -0.0157,0.26723 -0.0861,0.52528 -0.12817,0.78891 -0.0274,0.18981 0.0164,0.3616 0.0918,0.53735 0.0846,0.2618 0.19536,0.51325 0.31542,0.76074 0.16957,0.49618 0.11573,1.01716 0.0609,1.53065 -0.12611,0.67523 -0.35375,1.31611 -0.57815,1.96389 -0.23487,0.77932 -0.50809,1.55217 -0.8945,2.27073 -0.49216,0.80355 -1.03048,1.57342 -1.63364,2.29844 -0.61318,0.71471 -1.28451,1.38427 -2.03338,1.95736 -0.76476,0.58788 -1.5457,1.15557 -2.44138,1.53254 -0.96932,0.41843 -1.94738,0.82762 -3.00251,0.97356 -1.27734,0.18919 -2.57821,0.27306 -3.84554,-0.041 -0.55673,-0.14386 -1.11357,-0.29298 -1.6458,-0.51486 -0.19112,-0.0797 -0.74148,-0.36741 -0.56313,-0.26221 6.18359,3.64739 10.12239,5.77263 6.89639,4.02592 -1.11428,-0.68168 -2.18906,-1.43642 -3.09124,-2.38899 0,0 -8.23931,-3.50196 -8.23931,-3.50196 z"
       inkscape:label="5" /><path
       style="opacity:0.776109;mix-blend-mode:normal;fill:#312238;fill-opacity:1;stroke:#2e2141;stroke-width:1.88977;stroke-linecap:round;stroke-linejoin:round;stroke-dasharray:none;stroke-opacity:1;filter:url(#filter4914)"
       id="path4912"
       d="m 541.0766,452.02069 c 0.27455,0.71358 0.54629,1.43641 0.99178,2.06595 0.31242,0.4415 0.60592,0.72262 0.97567,1.11131 0.16513,0.14883 0.32354,0.30546 0.49538,0.44648 0.16264,0.13347 0.32484,0.27064 0.50691,0.37606 4.76434,2.75868 6.15133,4.4063 10.20938,5.24466 1.15002,0.23743 2.32677,0.19661 3.49367,0.19783 1.14658,0.0135 2.29091,-0.077 3.42176,-0.26219 1.12809,-0.15612 2.18354,-0.57676 3.17808,-1.11592 0.88521,-0.5366 1.70901,-1.16843 2.52452,-1.8042 0.73344,-0.52127 1.31569,-1.19443 1.8047,-1.94231 0.26162,-0.43521 0.49772,-0.8855 0.72228,-1.34079 1.6442,-3.12032 -1.16506,-0.94192 -8.54951,-4.71766 0.0617,0.48193 0.10817,0.96046 0.22119,1.43449 0.1781,0.71174 0.53351,1.26815 1.02033,1.80552 0.42141,0.45478 0.90468,0.84252 1.38533,1.23116 2.61668,2.39112 0.71029,0.67091 8.88863,5.09932 0.0933,0.0505 0.20917,-0.0353 0.31296,-0.0571 0.38903,-0.0813 0.77389,-0.16316 1.15619,-0.27189 0.79981,-0.27548 1.52679,-0.72339 2.24765,-1.15905 0.52734,-0.29757 0.96259,-0.71163 1.32966,-1.18769 0.23497,-0.29107 0.38447,-0.61614 0.45539,-0.98129 0.0884,-0.45807 -0.17425,-0.77121 -0.49395,-1.06067 -3.00006,-2.15425 -0.56586,-0.42098 -9.00427,-5.22953 -0.4693,-0.26743 -1.14621,-0.44184 -1.67027,-0.55613 -0.89725,-0.20413 -1.80877,-0.33003 -2.70898,-0.51901 -0.46178,-0.0653 -0.87116,-0.30478 -1.31278,-0.43286 -0.208,-0.0603 -0.48933,-0.0959 -0.69974,-0.12821 -0.87394,-0.0732 -1.74971,-0.0388 -2.62384,-0.10975 -0.90601,-0.0765 -1.72653,-0.42258 -2.53077,-0.82078 -2.92644,-1.63629 -6.64295,-3.8064 7.24414,4.17086 0.1135,0.0652 -0.22768,-0.12936 -0.33823,-0.19944 -0.27987,-0.17743 -0.3607,-0.24906 -0.62139,-0.44988 -0.6303,-0.51137 -1.18656,-1.10511 -1.74021,-1.69638 -0.40927,-0.43319 -0.74583,-0.92563 -1.13781,-1.37359 -0.13416,-0.22027 -0.43427,-0.37926 -0.48474,-0.6415 0.0876,-0.33377 0.3018,-0.6198 0.54478,-0.85808 0.15049,-0.12447 0.30494,-0.23991 0.46683,-0.34894 0.0246,-0.0166 0.0941,-0.0258 0.0748,-0.0483 -0.10953,-0.12707 -0.26018,-0.21185 -0.39027,-0.31778 -2.83469,-1.80651 -1.65682,-1.03782 -3.54753,-2.28456 0,0 -0.24933,-0.17104 -0.24933,-0.17104 v 0 c -1.96722,-1.21535 -0.74672,-0.46825 -3.67297,-2.22247 -0.1639,-0.0781 -0.31786,-0.18195 -0.4917,-0.23438 -0.0297,-0.009 -0.0431,0.0445 -0.0648,0.0666 -0.1607,0.16248 -0.32694,0.32046 -0.46922,0.49951 -0.32419,0.38557 -0.64516,0.78108 -0.83291,1.25462 -0.19,0.48785 -0.26164,0.94234 0.0403,1.40362 0.35572,0.52895 0.83276,0.96527 1.19768,1.4892 0.53859,0.61318 1.10575,1.2018 1.66147,1.79921 2.96141,2.78373 6.73847,4.58331 10.45278,6.20125 0.86987,0.31709 1.76021,0.52869 2.6927,0.52478 0.85896,0.0356 1.73265,0.0353 2.56649,0.2706 0.67676,0.2155 1.33968,0.47399 2.05472,0.54155 0.87389,0.14633 1.75331,0.28631 2.59708,0.56546 0.42001,0.16539 0.83156,0.33839 1.23106,0.54977 0.12392,0.0656 0.48818,0.27594 0.36688,0.20565 -8.03296,-4.65453 -10.81213,-6.04483 -7.78848,-4.52545 0.21744,0.11126 0.49307,0.32424 0.74189,0.23082 0.2045,-0.0323 -0.011,0.30946 -0.0495,0.37345 -0.27127,0.37899 -0.61173,0.68324 -1.01694,0.91717 -0.67097,0.37754 -1.3689,0.71486 -2.1361,0.84061 -0.31908,0.0323 -0.66478,0.0971 -0.97047,-0.0444 -0.0722,-0.0334 -0.25913,-0.18367 -0.19001,-0.14431 8.58537,4.88926 11.33742,5.88324 8.10293,4.69763 -0.54155,-0.34157 -1.06363,-0.71691 -1.55031,-1.13337 -0.48542,-0.41459 -0.99502,-0.8167 -1.27619,-1.4065 -0.17418,-0.3927 -0.27174,-0.77748 -0.2463,-1.21025 -15.39023,-8.21333 -7.92599,-7.73354 -8.75143,-4.42182 -0.14522,0.43325 -0.29165,0.86826 -0.52294,1.2653 -0.39966,0.66871 -0.90191,1.24701 -1.52165,1.72492 -0.772,0.6065 -1.56426,1.19195 -2.42633,1.66595 -0.90889,0.46702 -1.86777,0.78783 -2.88587,0.91666 -1.09916,0.12636 -2.20111,0.18263 -3.30766,0.18756 -1.08781,0.009 -2.18184,-0.0214 -3.24365,-0.28467 -0.45072,-0.12179 -0.64916,-0.16242 -1.08848,-0.33484 -0.18727,-0.0735 -0.72518,-0.34622 -0.55229,-0.24336 2.37964,1.41572 4.78939,2.78028 7.17609,4.18408 0.20214,0.11889 -0.4202,-0.20933 -0.62186,-0.32903 -0.21258,-0.12618 -0.41297,-0.27184 -0.61946,-0.40776 -0.19221,-0.15679 -0.39245,-0.30423 -0.57665,-0.47036 -0.81942,-0.73908 -1.4661,-1.62501 -1.98357,-2.59629 0,0 -7.5926,-3.46382 -7.5926,-3.46382 z"
       inkscape:label="6" /><path
       style="opacity:0.776109;mix-blend-mode:normal;fill:#312238;fill-opacity:1;stroke:#2e2141;stroke-width:1.88977;stroke-linecap:round;stroke-linejoin:round;stroke-dasharray:none;stroke-opacity:1;filter:url(#filter4932)"
       id="path4930"
       d="m 69.677232,770.61183 c 1.940715,-0.97941 3.978343,-1.73358 6.021472,-2.46548 1.799339,-0.62243 3.625644,-1.1672 5.483875,-1.58289 0.544464,-0.0617 1.109848,-0.29052 1.666121,-0.22977 0.01851,0.016 0.0471,0.0249 0.05554,0.0479 0.0097,0.0264 0.01702,0.099 -0.0069,0.0842 -2.612395,-1.61197 -5.129698,-3.3811 -7.797378,-4.89983 -0.116085,-0.0661 -0.124951,0.23619 -0.183536,0.35623 -0.211482,0.43335 -0.297909,0.64829 -0.498262,1.10956 -0.929043,2.37379 -1.904745,4.7291 -2.863532,7.09099 -1.07407,2.78479 -2.114827,5.58214 -3.077269,8.40754 -0.681361,2.1538 -1.268451,4.3353 -1.771504,6.53712 -0.275122,1.4119 -0.609339,2.81258 -1.029186,4.1885 -0.129012,0.60072 -0.455055,1.13839 -0.600581,1.72928 0.01096,0.10361 -0.0058,0.21409 0.03287,0.31084 0.03323,0.0832 0.09612,0.15989 0.17336,0.20519 2.787458,1.63474 5.593433,3.23795 8.407195,4.82698 0.32334,0.18261 0.848992,0.22777 1.206135,0.26926 0.873165,0.07 1.790146,0.189 2.636355,-0.11488 0.180604,-0.0649 0.349694,-0.15815 0.524541,-0.23722 0.991649,-0.57583 1.830216,-1.37395 2.670752,-2.14554 0.449671,-0.41296 0.791633,-0.92108 1.240337,-1.33332 0.206355,-0.0924 0.415457,-0.1617 0.03553,-0.37982 -1.386526,-0.79604 -2.803459,-1.5379 -4.205188,-2.30685 0,0 -0.281542,-0.11026 -0.281542,-0.11026 v 0 c -1.390034,-0.7611 -2.787566,-1.50867 -4.170102,-2.28331 -0.27001,-0.15129 -0.24499,-0.30468 -0.160086,0.0376 -0.04619,0.52175 -0.393554,0.92102 -0.72559,1.30394 -0.696853,0.7477 -1.459653,1.44921 -2.435899,1.80888 -0.894922,0.24469 -1.779691,0.23251 -2.681778,0.0121 -0.351563,-0.12262 -0.442413,-0.14131 -0.762289,-0.29821 -0.102991,-0.0505 -0.401714,-0.22167 -0.302471,-0.16414 2.620715,1.51926 5.244668,3.03292 7.867003,4.54938 -0.08209,-0.0184 -0.162149,-0.0569 -0.246259,-0.0552 -0.08337,0.002 -0.161053,0.0433 -0.241579,0.065 -0.05671,0.0118 -0.114117,0.0499 -0.170141,0.0353 -0.233513,-0.0612 0.09951,-1.26554 0.122338,-1.42833 0.305101,-1.4427 0.628553,-2.88203 0.868032,-4.33768 0.347705,-2.22749 0.780149,-4.44257 1.435017,-6.60297 0.840912,-2.84427 1.779571,-5.66282 2.990207,-8.3742 0.974711,-2.31085 1.96283,-4.62915 3.24255,-6.79143 0.245491,-0.39993 0.345094,-0.58592 0.612721,-0.94422 0.06827,-0.0914 0.308042,-0.19513 0.217375,-0.26438 -12.926118,-9.87375 -5.568279,-7.65269 -7.599468,-5.16551 -0.483767,0.19651 -0.994939,0.3159 -1.485024,0.49494 -1.731048,0.60237 -3.447268,1.24736 -5.170087,1.87269 -2.098702,0.77568 -4.186872,1.57955 -6.290498,2.34209 0,0 7.246872,4.83006 7.246872,4.83006 z"
       inkscape:label="7" /><path
       style="opacity:0.776109;mix-blend-mode:normal;fill:#312238;fill-opacity:1;stroke:#2e2141;stroke-width:1.88977;stroke-linecap:round;stroke-linejoin:round;stroke-dasharray:none;stroke-opacity:1;filter:url(#filter4938)"
       id="path4936"
       d="m 311.79642,755.86888 c -0.51301,0.63096 -0.93543,1.30105 -1.31422,2.02064 -0.18776,0.35671 -0.38951,0.70789 -0.54223,1.08095 -0.41216,1.00677 -0.54035,1.70602 -0.79692,2.75942 -0.31965,1.74746 -0.3264,3.58194 0.41826,5.23096 0.39995,0.88567 0.6774,1.14035 1.26863,1.8773 0.90519,1.01 2.08338,1.69897 3.10328,2.57604 0.0465,0.0515 0.11295,0.0904 0.13943,0.1545 0.18647,0.45152 -0.69631,1.62317 -0.92368,1.9833 -0.68437,1.06908 -1.31296,2.17223 -1.99379,3.24345 -0.1245,0.23539 -0.75574,1.04765 -1.07831,0.97204 -0.0407,-0.01 -0.0716,-0.0431 -0.10748,-0.0647 -0.55834,-0.36657 -1.27563,-0.19052 -1.89097,-0.10059 -0.96201,0.13027 -1.87699,0.44658 -2.76288,0.83179 -0.98162,0.42508 -1.87065,1.0047 -2.69421,1.68112 -0.4682,0.42254 -0.90909,0.88832 -1.23506,1.43263 -0.15445,0.2579 -0.39429,0.77464 -0.52311,1.04341 -0.42091,0.94021 -0.66731,1.91953 -0.56549,2.95463 0.0199,0.20192 0.0634,0.40081 0.095,0.60122 0.21179,1.05286 0.77414,1.9596 1.5942,2.64928 0.17343,0.14586 0.36317,0.27114 0.54476,0.40671 3.65661,0.20404 6.49279,4.69871 10.27791,5.72323 1.10716,0.29967 2.25876,0.40598 3.39667,0.5088 1.36594,0.0354 2.74554,0.19899 4.11187,0.0695 0.25248,-0.0239 0.50192,-0.073 0.75288,-0.10956 1.32344,-0.31977 2.64933,-0.70231 3.862,-1.33588 0.26956,-0.14083 0.52619,-0.30517 0.78928,-0.45775 1.56275,-0.88262 2.80606,-2.02648 4.02768,-3.32027 0.96694,-1.0549 1.77593,-2.2357 2.59101,-3.40737 0.56971,-0.7674 0.94273,-1.62915 1.24173,-2.52837 0.10987,-0.40661 0.1666,-0.82354 0.26271,-1.23206 0.15829,-0.58962 0.0596,-0.0867 -1.24853,-0.89725 0,0 -7.53451,-3.1526 -7.53451,-3.1526 v 0 c -1.24538,-0.74872 -1.69355,-0.63595 -1.16518,-0.75137 0.27274,0.18426 0.19268,0.62831 0.17023,0.90304 -0.10831,0.83206 -0.43463,1.60123 -0.86046,2.32112 -0.70303,1.16477 -1.46826,2.29907 -2.36435,3.32535 -1.11821,1.19981 -2.37844,2.25736 -3.83595,3.02695 -1.43019,0.66432 -2.90453,1.28709 -4.49203,1.43319 -1.54656,0.1144 -3.09973,0.0968 -4.64204,-0.0791 -0.84263,-0.1062 -1.67359,-0.2237 -2.48586,-0.48478 -3.34812,-1.07614 -8.70116,-5.69835 6.93249,4.24678 -1.10221,-0.57982 -2.16789,-1.27431 -2.71258,-2.44278 -0.23597,-0.6616 -0.446,-1.38379 -0.36521,-2.09808 0.0401,-0.35438 0.17343,-0.61818 0.30519,-0.944 0.38639,-0.79265 0.88917,-1.50997 1.57381,-2.0767 0.75417,-0.6088 1.59192,-1.0945 2.50712,-1.42222 0.86853,-0.28597 1.75402,-0.51014 2.67324,-0.54111 0.50629,-0.002 0.33744,-0.0172 0.83037,0.0421 0.33028,0.0397 0.69522,0.13706 1.02705,0.0483 0.10679,-0.0286 0.20171,-0.0905 0.30257,-0.13575 0.0958,-0.069 0.20201,-0.12534 0.28729,-0.20691 0.45434,-0.43457 0.39424,-1.1421 0.74207,-1.64431 0.52669,-1.12798 1.10453,-2.2326 1.81136,-3.26022 0.53587,-0.7814 1.26925,-1.67072 1.33281,-2.66237 0.0124,-0.1929 -0.0338,-0.3851 -0.0507,-0.57766 -0.0963,-0.13987 -0.17226,-0.29629 -0.28905,-0.41961 -0.23993,-0.25334 -0.80305,-0.6078 -1.07321,-0.7882 -0.78324,-0.52301 -1.57318,-1.03865 -2.29887,-1.64179 -0.25779,-0.24782 -0.53529,-0.47664 -0.77336,-0.74345 -0.49794,-0.55805 -0.97201,-1.24336 -1.23557,-1.94912 -0.45082,-1.20715 -0.44473,-2.51944 -0.29288,-3.77681 0.10241,-0.43637 0.17163,-0.88188 0.30723,-1.3091 0.4842,-1.52544 1.45907,-2.80489 2.44824,-4.03444 0,0 -7.57971,-4.55145 -7.57971,-4.55145 z"
       inkscape:label="8" /><path
       style="opacity:0.741603;mix-blend-mode:normal;fill:#312238;fill-opacity:1;stroke:#2e2141;stroke-width:2.09764;stroke-linecap:round;stroke-linejoin:round;stroke-dasharray:none;stroke-opacity:1;filter:url(#filter7842)"
       id="path7840"
       d="m 550.84035,777.50477 c 1.08477,-0.33581 2.19117,-0.61898 3.33108,-0.67078 0.23129,-0.0105 0.46305,10e-4 0.69458,0.002 0.40317,0.0871 0.85328,0.13684 1.20682,0.38198 0.12348,0.0856 0.42726,0.41363 0.29663,0.33939 -2.48955,-1.47182 -4.97909,-2.94365 -7.46864,-4.41547 0.0286,0.0225 0.0826,0.0313 0.0858,0.0675 0.008,0.0917 -0.037,0.18047 -0.0555,0.2707 -0.0709,0.15211 -0.13078,0.30986 -0.21272,0.45632 -0.17154,0.30657 -0.51987,0.78896 -0.72374,1.06669 -0.38527,0.52484 -0.79101,1.03114 -1.1691,1.56137 -0.67477,0.89531 -1.2432,1.85749 -1.71474,2.87299 -0.38695,0.91014 -0.77536,1.81987 -1.20756,2.70961 -0.2852,0.57952 -0.62139,1.13462 -0.82762,1.74906 -0.14,0.45345 -0.15045,0.92613 -0.14667,1.39605 -0.001,0.74081 0.24143,1.20132 0.64342,1.80422 0.38073,0.52953 0.84959,0.97925 1.35778,1.38363 3.7114,-2.9872 5.51398,4.35626 8.84029,4.9491 0.27275,0.0486 0.55367,0.073 0.82828,0.11048 0.38219,0.0341 0.75807,0.17329 1.14454,0.16407 0.14051,-0.003 0.54916,-0.0654 0.68538,-0.0847 0.65194,-0.0731 1.27677,-0.25889 1.88455,-0.49833 0.45803,-0.23815 0.94295,-0.43968 1.37244,-0.72849 0.0579,-0.0476 0.11887,-0.0917 0.17357,-0.14289 0.0713,-0.0668 0.32709,-0.35085 0.38264,-0.40791 0.23733,-0.24375 0.49199,-0.47121 0.74148,-0.70225 0.49124,-0.52086 1.01286,-1.00642 1.58084,-1.44206 0.32187,-0.22759 0.68779,-0.37368 1.08194,-0.39629 0.23679,0.002 0.47153,0.0664 0.69309,0.14578 0.24875,0.0934 0.5146,0.16953 0.73782,0.31917 0.0618,0.0414 0.23885,0.17635 0.17418,0.13957 -2.88447,-1.6403 -5.75729,-3.30098 -8.63593,-4.95147 0.38579,0.13916 0.6734,0.39732 0.91543,0.72002 0.25466,0.33882 0.42562,0.72751 0.63384,1.09412 1.99406,3.19 6.08174,6.35719 9.8031,5.4961 0.54556,-0.14923 0.95975,-0.53061 1.38591,-0.88023 0.0718,-0.0732 0.17415,-0.12579 0.21554,-0.21965 0.0437,-0.0991 0.10667,-0.25384 0.0242,-0.32412 -0.90647,-0.77274 -1.94453,-1.37784 -2.8823,-2.1123 -0.28376,-0.22224 -0.51737,-0.50196 -0.77606,-0.75295 0,0 -0.25821,-0.15732 -0.25821,-0.15732 v 0 c -0.36729,-0.13664 -0.75052,-0.23637 -1.10189,-0.40992 -0.0273,-0.0135 -2.41569,-2.06988 -3.68354,-1.711 -0.0965,0.0273 -0.17373,0.10033 -0.2606,0.1505 -0.32525,0.20295 -0.67218,0.40865 -1.05551,0.23767 -0.0822,-0.0462 -0.30383,-0.22221 -0.22176,-0.17573 2.94483,1.66751 5.88581,3.34201 8.81267,5.04089 0.1786,0.10366 -0.62017,-0.13306 -0.446,-0.14163 -0.34307,-0.25246 -0.55249,-0.60198 -0.73898,-0.98089 -0.22468,-0.40551 -0.41728,-0.83521 -0.75878,-1.16095 -1.92271,-1.10515 -6.39299,-5.07229 -10.13633,-5.3784 -0.33537,0.0104 -0.6584,0.0452 -0.95491,0.21703 -0.41723,0.23752 -0.83019,0.48318 -1.17441,0.82378 -0.52656,0.49458 -0.99598,1.04781 -1.5486,1.51565 -0.41052,0.38759 -0.82358,0.7731 -1.30556,1.07194 -0.34665,0.24796 -0.68086,0.50575 -1.09591,0.63399 -0.4839,0.19165 -0.98518,0.34858 -1.50343,0.41239 -0.51477,0.007 -1.02526,-0.0939 -1.53074,-0.18435 -0.26116,-0.0635 -0.50877,-0.12704 -0.75172,-0.24485 -0.0632,-0.0306 -0.1248,-0.0647 -0.18578,-0.0996 -0.061,-0.0349 -0.24091,-0.14498 -0.18005,-0.1098 2.62949,1.5202 5.25733,3.04326 7.88599,4.56489 -0.5971,-0.28026 -1.13712,-0.6574 -1.59888,-1.1312 -0.21287,-0.21794 -0.58471,-0.59595 -0.71824,-0.87349 -0.0464,-0.0965 -0.0712,-0.2701 -0.0901,-0.37269 -0.0465,-0.37849 -0.0268,-0.7586 -7.9e-4,-1.13836 0.10218,-0.59403 0.3184,-1.15717 0.55943,-1.70832 0.40311,-0.90984 0.77571,-1.83086 1.1493,-2.75305 0.42642,-0.97223 0.91399,-1.91461 1.51646,-2.79163 0.74795,-1.08338 1.48135,-2.177 2.22103,-3.26611 0.0156,-0.0318 0.49965,-0.91822 0.3612,-1.01631 -6.82718,-4.83753 -4.99053,-5.62291 -8.6886,-4.59824 -1.41229,0.19644 -2.81621,0.44715 -4.21985,0.69671 0,0 6.60844,4.56875 6.60844,4.56875 z"
       inkscape:label="9" /></g><g
     inkscape:groupmode="layer"
     id="layer4"
     inkscape:label="Text"><text
       xml:space="preserve"
       id="text392"
       style="font-style:normal;font-variant:normal;font-weight:normal;font-stretch:normal;line-height:0;font-family:Momentz;-inkscape-font-specification:Momentz;white-space:pre;shape-inside:url(#rect394);display:inline;opacity:1;fill:#ffffff;fill-opacity:1;stroke:#2e2141;stroke-width:0.559746;stroke-linecap:butt;stroke-linejoin:bevel;stroke-dasharray:none;stroke-opacity:1;paint-order:normal"
       transform="matrix(4.2323053,0.29447463,-0.29447463,4.2323053,-138.12424,-270.41634)"
       inkscape:label="1"><tspan
         x="53.640625"
         y="89.144231"
         id="tspan722">1</tspan></text><text
       xml:space="preserve"
       id="text392-6-0"
       style="font-style:normal;font-variant:normal;font-weight:normal;font-stretch:normal;line-height:0;font-family:Momentz;-inkscape-font-specification:Momentz;white-space:pre;shape-inside:url(#rect394-3-1);display:inline;fill:#ffffff;fill-opacity:1;stroke:#2e2141;stroke-width:0.462058;stroke-linecap:butt;stroke-linejoin:bevel;stroke-dasharray:none;stroke-opacity:1;paint-order:normal"
       transform="matrix(4.0898872,0,0,4.0898872,78.666039,-243.9566)"
       inkscape:label="2"><tspan
         x="53.640625"
         y="89.144231"
         id="tspan724">2</tspan></text><text
       xml:space="preserve"
       id="text392-6-5"
       style="font-style:normal;font-variant:normal;font-weight:normal;font-stretch:normal;line-height:0;font-family:Momentz;-inkscape-font-specification:Momentz;white-space:pre;shape-inside:url(#rect394-3-7);display:inline;fill:#ffffff;fill-opacity:1;stroke:#2e2141;stroke-width:0.559746;stroke-linecap:butt;stroke-linejoin:bevel;stroke-dasharray:none;stroke-opacity:1;paint-order:normal"
       transform="matrix(4.1181732,0,0,4.1181732,318.41384,-243.86783)"
       inkscape:label="3"><tspan
         x="53.640625"
         y="89.144231"
         id="tspan726">3</tspan></text><text
       xml:space="preserve"
       id="text10945"
       style="font-style:normal;font-variant:normal;font-weight:normal;font-stretch:normal;line-height:0;font-family:Momentz;-inkscape-font-specification:Momentz;white-space:pre;shape-inside:url(#rect10955);display:inline;opacity:1;fill:#ffffff;fill-opacity:1;stroke:#2e2141;stroke-width:0.559746;stroke-linecap:butt;stroke-linejoin:bevel;stroke-dasharray:none;stroke-opacity:1;paint-order:normal"
       transform="matrix(3.9553731,0,0,3.9553731,-151.73101,102.21885)"
       inkscape:label="4"><tspan
         x="53.640625"
         y="89.144231"
         id="tspan728">4</tspan></text><text
       xml:space="preserve"
       id="text10949"
       style="font-style:normal;font-variant:normal;font-weight:normal;font-stretch:normal;line-height:0;font-family:Momentz;-inkscape-font-specification:Momentz;white-space:pre;shape-inside:url(#rect10957);display:inline;fill:#ffffff;fill-opacity:1;stroke:#2e2141;stroke-width:0.559463;stroke-linecap:butt;stroke-linejoin:bevel;stroke-dasharray:none;stroke-opacity:1;paint-order:normal"
       transform="matrix(4.3192749,0,0,4.3192749,69.166756,71.627687)"
       inkscape:label="5"><tspan
         x="53.640625"
         y="89.144231"
         id="tspan730">5</tspan></text><path
       id="rect11476-4"
       style="fill:#ffffff;stroke:#2e2141;stroke-width:2.09764;stroke-linecap:round;stroke-linejoin:round;stroke-dasharray:none"
       d="m 569.62829,448.28632 3.10525,0.13386 c 1.11935,0.0483 2.63339,1.14764 2.63339,3.32002 0,2.17236 -0.90563,2.88349 -2.01433,3.19628 l -3.32395,0.93778 c -1.10871,0.3128 -2.4219,-1.49435 -2.4219,-3.66671 0,-2.17237 0.9022,-3.96949 2.02154,-3.92123 z"
       sodipodi:nodetypes="sssssss"
       inkscape:label="dot" /><text
       xml:space="preserve"
       id="text10953"
       style="font-style:normal;font-variant:normal;font-weight:normal;font-stretch:normal;line-height:0;font-family:Momentz;-inkscape-font-specification:Momentz;white-space:pre;shape-inside:url(#rect10959);display:inline;fill:#ffffff;fill-opacity:1;stroke:#2e2141;stroke-width:0.559746;stroke-linecap:butt;stroke-linejoin:bevel;stroke-dasharray:none;stroke-opacity:1;paint-order:normal"
       transform="matrix(4.1181732,0,0,4.1181732,316.54862,89.104427)"
       inkscape:label="6"><tspan
         x="53.640625"
         y="89.144231"
         id="tspan732">6</tspan></text><text
       xml:space="preserve"
       id="text10963"
       style="font-style:normal;font-variant:normal;font-weight:normal;font-stretch:normal;line-height:0;font-family:Momentz;-inkscape-font-specification:Momentz;white-space:pre;shape-inside:url(#rect10973);display:inline;opacity:1;fill:#ffffff;fill-opacity:1;stroke:#2e2141;stroke-width:0.559746;stroke-linecap:butt;stroke-linejoin:bevel;stroke-dasharray:none;stroke-opacity:1;paint-order:normal"
       transform="matrix(4.2653193,0,0,4.2653193,-167.33982,409.08147)"
       inkscape:label="7"><tspan
         x="53.640625"
         y="89.144231"
         id="tspan734">7</tspan></text><text
       xml:space="preserve"
       id="text10967"
       style="font-style:normal;font-variant:normal;font-weight:normal;font-stretch:normal;line-height:0;font-family:Momentz;-inkscape-font-specification:Momentz;white-space:pre;shape-inside:url(#rect10975);display:inline;fill:#ffffff;fill-opacity:1;stroke:#2e2141;stroke-width:0.559463;stroke-linecap:butt;stroke-linejoin:bevel;stroke-dasharray:none;stroke-opacity:1;paint-order:normal"
       transform="matrix(-4.4526197,0,0,-4.4526197,570.92629,1146.3138)"
       inkscape:label="8"><tspan
         x="53.640625"
         y="89.144231"
         id="tspan736">8</tspan></text><path
       id="rect11476"
       style="opacity:1;fill:#ffffff;stroke:#2e2141;stroke-width:2.09764;stroke-linecap:round;stroke-linejoin:round;stroke-dasharray:none"
       d="m 566.70694,780.82371 3.10525,0.13386 c 1.11935,0.0483 2.63339,1.14764 2.63339,3.32002 0,2.17236 -0.90563,2.88349 -2.01433,3.19628 l -3.32395,0.93778 c -1.10871,0.3128 -2.4219,-1.49435 -2.4219,-3.66671 0,-2.17237 0.9022,-3.96949 2.02154,-3.92123 z"
       sodipodi:nodetypes="sssssss"
       inkscape:label="dot" /><text
       xml:space="preserve"
       id="text10971"
       style="font-style:normal;font-variant:normal;font-weight:normal;font-stretch:normal;line-height:0;font-family:Momentz;-inkscape-font-specification:Momentz;white-space:pre;shape-inside:url(#rect10977);display:inline;fill:#ffffff;fill-opacity:1;stroke:#2e2141;stroke-width:0.559746;stroke-linecap:butt;stroke-linejoin:bevel;stroke-dasharray:none;stroke-opacity:1;paint-order:normal"
       transform="matrix(4.1181732,0,0,4.1181732,316.60438,421.17483)"
       inkscape:label="9"><tspan
         x="53.640625"
         y="89.144231"
         id="tspan738">9</tspan></text></g></svg>
