<?xml version="1.0" encoding="UTF-8" standalone="no"?>
<!-- Created with Inkscape (http://www.inkscape.org/) -->

<svg
   width="160.5703mm"
   height="7.9814577mm"
   viewBox="0 0 160.5703 7.9814577"
   version="1.1"
   id="svg1"
   xml:space="preserve"
   inkscape:version="1.4.2 (ebf0e94, 2025-05-08)"
   sodipodi:docname="G3.svg"
   xmlns:inkscape="http://www.inkscape.org/namespaces/inkscape"
   xmlns:sodipodi="http://sodipodi.sourceforge.net/DTD/sodipodi-0.dtd"
   xmlns="http://www.w3.org/2000/svg"
   xmlns:svg="http://www.w3.org/2000/svg"><sodipodi:namedview
     id="namedview1"
     pagecolor="#505050"
     bordercolor="#eeeeee"
     borderopacity="1"
     inkscape:showpageshadow="0"
     inkscape:pageopacity="0"
     inkscape:pagecheckerboard="0"
     inkscape:deskcolor="#d1d1d1"
     inkscape:document-units="mm"
     inkscape:zoom="1.6252147"
     inkscape:cx="236.27647"
     inkscape:cy="-225.20101"
     inkscape:window-width="2560"
     inkscape:window-height="1440"
     inkscape:window-x="0"
     inkscape:window-y="0"
     inkscape:window-maximized="1"
     inkscape:current-layer="layer1" /><defs
     id="defs1" /><g
     inkscape:label="Layer 1"
     inkscape:groupmode="layer"
     id="layer1"
     transform="translate(-51.392662,-258.85031)"><path
       style="fill:#666666;fill-opacity:1"
       d="m 93.048666,266.79055 c 0,-0.0774 -0.417098,-0.19068 -0.740834,-0.20111 -0.1397,-0.005 -0.293413,-0.0225 -0.341585,-0.0401 -0.04817,-0.0175 -0.724446,0.0249 -1.502833,0.0944 -1.557677,0.13899 -1.525629,0.14026 -2.367748,-0.0937 -0.303371,-0.0843 -0.387204,-0.0872 -1.883834,-0.0649 -0.861483,0.0128 -1.699683,0.0342 -1.862666,0.0475 -0.276204,0.0225 -2.036527,0.20165 -2.487084,0.25312 -0.158066,0.018 -0.201083,0.01 -0.201083,-0.0385 0,-0.0701 -0.198227,-0.13519 -1.354667,-0.44482 -0.430741,-0.11532 -1.078442,-0.29452 -1.439333,-0.39821 -0.641325,-0.18427 -1.058334,-0.26283 -1.058334,-0.19939 0,0.0174 -0.119062,0.0297 -0.264583,0.0272 -0.145521,-0.002 -0.788751,0.0204 -1.4294,0.0508 -1.17301,0.0557 -1.663696,0.0467 -4.232683,-0.0772 -0.454025,-0.0219 -1.158875,-0.0421 -1.566334,-0.0449 -0.407458,-0.003 -0.851683,-0.019 -0.987167,-0.0359 -0.152237,-0.019 -0.766731,0.007 -1.608667,0.0678 -1.514444,0.10958 -2.114314,0.0966 -3.557025,-0.0771 -0.392165,-0.0472 -0.739827,-0.0756 -0.772584,-0.063 -0.03876,0.0149 -0.05956,-0.006 -0.05956,-0.0605 0,-0.0728 -0.02946,-0.0833 -0.232833,-0.0833 -0.178741,0 -0.232833,-0.0147 -0.232833,-0.0635 0,-0.0801 -0.06645,-0.08 -1.227667,0.002 -0.736895,0.052 -0.992773,0.0547 -1.344084,0.0144 -0.238654,-0.0274 -0.433916,-0.069 -0.433916,-0.0924 0,-0.0371 -1.781838,-0.0327 -7.895167,0.0194 -0.1397,0.001 -0.325438,-0.0115 -0.41275,-0.0282 l -0.15875,-0.0304 v -0.52578 c 0,-0.46211 0.009,-0.52909 0.07408,-0.55312 0.04075,-0.015 0.08361,-0.0405 0.09525,-0.0566 0.02637,-0.0364 0.439665,-0.1583 0.804334,-0.23721 0.399141,-0.0864 1.692296,-0.1823 2.4765,-0.18373 1.096897,-0.002 2.089616,-0.12372 2.186417,-0.26809 0.01508,-0.0225 0.06747,-0.0304 0.116416,-0.0176 0.04895,0.0128 0.089,0.006 0.089,-0.0151 0,-0.0211 0.03651,-0.0384 0.08114,-0.0384 0.04463,0 0.08749,-0.0169 0.09525,-0.0375 0.0078,-0.0206 0.166331,-0.0251 0.352778,-0.01 0.481448,0.0391 1.145925,-10e-4 1.132416,-0.0689 -0.0058,-0.0291 0.0098,-0.0529 0.03477,-0.0529 0.05861,0 0.16631,-0.1077 0.16631,-0.16631 0,-0.0249 0.01905,-0.0453 0.04233,-0.0453 0.02328,0 0.04233,-0.0182 0.04233,-0.0404 0,-0.0222 0.04286,-0.0841 0.09525,-0.13759 0.05239,-0.0534 0.123825,-0.13756 0.15875,-0.18693 0.06246,-0.0883 0.13505,-0.0929 4.423834,-0.27821 2.398183,-0.10365 4.369858,-0.17518 4.3815,-0.15897 0.05033,0.0701 0.321888,0.0816 1.016,0.0431 0.556874,-0.0309 0.803383,-0.0628 0.992729,-0.12851 0.138542,-0.0481 0.262367,-0.10287 0.275166,-0.12176 0.0128,-0.0189 0.151859,-0.0793 0.309022,-0.13419 0.157162,-0.0549 0.28575,-0.11741 0.28575,-0.13888 0,-0.0215 0.02857,-0.0281 0.0635,-0.0147 0.03493,0.0134 0.0635,0.009 0.0635,-0.01 0,-0.0189 0.13335,-0.0798 0.296333,-0.13527 0.162983,-0.0555 0.296333,-0.11502 0.296333,-0.13229 0,-0.0173 0.02612,-0.0214 0.05804,-0.009 0.03192,0.0122 0.0868,-0.006 0.12196,-0.0417 0.03516,-0.0351 0.07259,-0.0553 0.08318,-0.0446 0.01059,0.0106 0.125228,-0.0172 0.254742,-0.0618 0.193907,-0.0667 0.309664,-0.0769 0.655654,-0.0579 0.439666,0.0242 0.703698,-0.0243 0.747105,-0.13747 0.0185,-0.0482 0.132212,-0.0596 0.564661,-0.0565 0.29782,0.002 0.646266,-0.007 0.774324,-0.0208 0.128058,-0.0136 0.356658,-0.0355 0.508,-0.0487 0.151342,-0.0132 0.341842,-0.0329 0.423333,-0.0438 1.38932,-0.18579 1.73358,-0.19026 4.656667,-0.0605 1.765635,0.0784 2.375386,0.0885 3.8735,0.0639 0.9779,-0.016 2.149475,-0.0491 2.6035,-0.0734 0.454025,-0.0244 1.063625,-0.0373 1.354667,-0.0287 0.291042,0.009 0.857779,0.0154 1.259417,0.0152 0.559224,-3.2e-4 0.73025,0.0121 0.73025,0.0529 0,0.0767 0.486936,0.0692 0.791684,-0.0123 0.135015,-0.0361 0.369307,-0.0815 0.520649,-0.1008 0.417194,-0.0534 1.336452,-0.25105 1.693333,-0.36419 0.174625,-0.0554 0.45085,-0.11328 0.613834,-0.12873 0.162983,-0.0154 0.358443,-0.0535 0.434355,-0.0845 0.07591,-0.0311 1.304637,-0.22907 2.7305,-0.44001 1.425863,-0.21093 2.63402,-0.39283 2.684793,-0.40421 0.05511,-0.0124 0.09777,-0.059 0.105832,-0.11569 0.0115,-0.081 0.0541,-0.10237 0.28868,-0.14505 0.15134,-0.0275 0.41804,-0.062 0.59267,-0.0765 0.17462,-0.0146 0.36512,-0.0342 0.42333,-0.0436 0.3278,-0.0529 1.82491,-0.0646 3.15384,-0.0246 0.8382,0.0252 2.20027,0.0653 3.02683,0.0891 2.01285,0.0579 3.20634,0.11419 4.14867,0.1958 0.61865,0.0536 1.05053,0.0618 2.05596,0.0391 0.70005,-0.0158 1.3287,-0.0358 1.397,-0.0445 0.0683,-0.009 0.429,-0.0276 0.80154,-0.042 0.37253,-0.0144 0.76305,-0.034 0.86783,-0.0435 0.10477,-0.01 0.40957,-0.028 0.67733,-0.041 0.93173,-0.0453 1.92833,-0.10576 2.26484,-0.13733 0.18626,-0.0175 2.11031,-0.0334 4.27566,-0.0354 2.16535,-0.002 5.33718,-0.008 7.0485,-0.0143 3.57141,-0.0122 5.31138,0.0485 6.04619,0.21092 0.10439,0.0231 0.59544,0.0308 1.143,0.018 2.68805,-0.0629 3.74505,-0.043 4.36781,0.0821 0.5133,0.1031 3.38846,0.2735 5.37634,0.31864 3.77659,0.0858 3.12928,0.10623 6.1595,-0.19475 l 2.70933,-0.26911 1.778,0.32085 c 1.2046,0.21739 1.83897,0.31417 1.96705,0.3001 0.10562,-0.0116 0.4512,0.0239 0.78316,0.0805 0.48464,0.0826 0.91396,0.11346 2.32979,0.16769 1.88289,0.0721 2.01083,0.0822 2.01083,0.15859 0,0.0321 0.0745,0.0524 0.20109,0.0547 0.11059,0.002 0.37253,0.0245 0.58208,0.05 0.20955,0.0255 0.82868,0.0688 1.37583,0.0962 0.60476,0.0303 1.15693,0.0817 1.40823,0.13085 0.22736,0.0445 0.65599,0.0984 0.9525,0.11967 0.7092,0.051 1.31383,0.12218 1.46617,0.1727 0.0675,0.0224 0.27756,0.0407 0.46678,0.0407 0.18923,0 0.49595,0.0179 0.6816,0.0398 0.31827,0.0375 0.98195,0.0716 2.09439,0.10757 0.58382,0.0189 2.60102,0.2854 2.96122,0.39126 0.1408,0.0414 0.25602,0.099 0.25606,0.12814 3e-5,0.0291 0.0191,0.0529 0.0424,0.0529 0.0233,0 0.0423,0.0355 0.0423,0.079 0,0.0716 0.052,0.0816 0.56092,0.10756 1.68735,0.0861 3.40512,0.15577 4.81541,0.19542 0.89687,0.0252 1.64275,0.0643 1.7145,0.0899 0.0699,0.0249 0.59373,0.0613 1.16417,0.0808 0.57044,0.0195 1.15603,0.0576 1.30132,0.0848 0.1982,0.037 0.45183,0.0378 1.016,0.003 0.49616,-0.0306 0.80944,-0.0323 0.92118,-0.005 0.0931,0.0227 0.32173,0.0511 0.508,0.0632 0.18627,0.0121 0.49107,0.0425 0.67733,0.0675 0.20753,0.0279 0.93293,0.04 1.87328,0.0313 1.46143,-0.0135 1.53461,-0.0105 1.53458,0.0629 -5e-5,0.15715 0.11075,0.20075 0.63183,0.24866 0.46529,0.0428 0.50795,0.0539 0.51961,0.13559 0.0118,0.0826 0.0475,0.091 0.49954,0.11676 0.26776,0.0153 0.62971,0.0479 0.80433,0.0725 0.65795,0.0927 1.36967,0.12613 1.75683,0.0824 0.20955,-0.0236 0.61913,-0.0336 0.91017,-0.0221 0.48883,0.0193 0.55821,0.0329 0.91017,0.17766 0.20955,0.0862 0.40235,0.17421 0.42845,0.19558 0.0261,0.0214 0.20708,0.0742 0.40217,0.11748 0.19509,0.0433 0.53569,0.12783 0.75688,0.18794 0.75165,0.20425 1.8786,0.36787 2.53032,0.36736 0.26402,-2.1e-4 0.3333,0.0163 0.48684,0.11578 0.0984,0.0638 0.18945,0.13015 0.20221,0.14742 0.0204,0.0275 0.35791,0.0697 1.07746,0.13456 0.11642,0.0105 0.33549,0.0411 0.48683,0.068 0.18905,0.0336 0.62626,0.0407 1.397,0.0229 1.67101,-0.0388 2.37027,-0.035 2.58234,0.0139 0.10477,0.0242 0.41434,0.0562 0.68791,0.0711 0.43538,0.0238 0.49742,0.0364 0.49742,0.10131 0,0.0657 -0.0613,0.0764 -0.53975,0.0942 -0.29686,0.011 -0.88714,0.0186 -1.31172,0.0169 -0.5141,-0.002 -0.77786,0.0121 -0.78958,0.0424 -0.0275,0.071 -0.56235,0.2007 -0.70771,0.17162 -0.12499,-0.025 -2.65612,0.0756 -3.04695,0.12114 -0.10663,0.0124 -0.7829,-0.006 -1.50283,-0.0399 -0.71993,-0.0344 -1.45183,-0.0653 -1.62646,-0.0688 -0.30029,-0.006 -0.88036,0.0376 -0.93568,0.0702 -0.0844,0.0497 -1.02367,0.0617 -1.26565,0.0161 -0.15134,-0.0285 -0.41804,-0.067 -0.59267,-0.0856 -0.17462,-0.0186 -0.4699,-0.0646 -0.65617,-0.10219 -0.32285,-0.0652 -0.36041,-0.0644 -0.80433,0.0178 -0.69884,0.12934 -1.30143,0.18192 -2.286,0.19946 -0.48895,0.009 -1.10807,0.0317 -1.37583,0.051 -0.26776,0.0193 -0.74163,0.0266 -1.05304,0.016 -0.40505,-0.0137 -0.57492,-0.005 -0.59683,0.0304 -0.0198,0.032 -1.16869,0.1684 -3.2438,0.3851 -3.50409,0.36592 -4.00855,0.39415 -4.52473,0.25326 -0.16256,-0.0444 -0.30318,-0.0731 -0.31248,-0.0638 -0.009,0.009 -0.0513,-10e-4 -0.0933,-0.024 -0.042,-0.0225 -0.15859,-0.0511 -0.25902,-0.0636 -0.29284,-0.0363 -0.40347,-0.0593 -0.52968,-0.10987 -0.0652,-0.0261 -0.18527,-0.0626 -0.26676,-0.0811 -0.48817,-0.1106 -0.82258,-0.21277 -0.85291,-0.26059 -0.0191,-0.0302 -0.0354,-0.0358 -0.0361,-0.0125 -7.9e-4,0.0258 -0.0135,0.0246 -0.0324,-0.003 -0.0374,-0.0544 -0.28067,-0.15363 -0.7931,-0.3235 -0.34821,-0.11544 -0.46843,-0.13126 -1.397,-0.18389 -0.99624,-0.0565 -1.46107,-0.0894 -1.75683,-0.12439 -0.0815,-0.01 -0.33751,-0.0403 -0.56894,-0.0681 -0.43584,-0.0524 -1.47889,-0.0307 -2.2674,0.047 -0.22119,0.0218 -0.57361,0.0406 -0.78316,0.0418 -0.20955,10e-4 -0.4572,0.0217 -0.55034,0.0456 -0.10234,0.0263 -1.49227,0.0579 -3.51366,0.08 -1.9321,0.0211 -3.47841,0.0557 -3.66184,0.0819 -0.27225,0.0388 -1.66073,0.14747 -3.09871,0.24246 -0.37352,0.0247 -0.41169,0.0351 -0.42333,0.11542 -0.0104,0.0718 -0.0879,0.11116 -0.41496,0.21069 -0.48193,0.14667 -0.9795,0.32681 -1.03505,0.37472 -0.0673,0.0581 -0.25752,0.0398 -1.31831,-0.12695 -0.81977,-0.12883 -1.07309,-0.15408 -1.29116,-0.12871 -0.6612,0.0769 -4.36712,0.12935 -9.98681,0.14125 -3.60454,0.008 -6.42773,0.0315 -6.94267,0.0587 -0.4773,0.0252 -1.90605,0.0468 -3.175,0.0481 -1.26946,10e-4 -2.96406,0.0298 -3.76766,0.0635 -0.80328,0.0337 -1.75578,0.062 -2.11667,0.063 -0.36089,9.4e-4 -1.02764,0.029 -1.48167,0.0623 -1.4443,0.1061 -3.91104,0.17248 -4.14843,0.11164 -0.11297,-0.029 -0.28783,-0.0419 -0.38857,-0.0288 -0.10074,0.0131 -0.54511,0.0436 -0.9875,0.0677 -0.44238,0.0241 -1.43298,0.12169 -2.20133,0.21681 l -1.397,0.17294 -2.07433,-0.028 c -1.14089,-0.0154 -2.25531,-0.0352 -2.4765,-0.044 -0.2212,-0.009 -0.72602,-0.0276 -1.12184,-0.0419 -0.39581,-0.0142 -0.87206,-0.034 -1.05833,-0.0439 -0.18627,-0.01 -0.67204,-0.029 -1.0795,-0.0424 -0.40746,-0.0134 -0.80751,-0.0316 -0.889,-0.0404 -0.0815,-0.009 -0.31009,-0.0288 -0.508,-0.0444 -0.35481,-0.028 -0.42718,-0.0362 -0.71967,-0.0822 -0.24555,-0.0386 -0.46261,-0.0666 -0.65788,-0.0849 -0.1018,-0.01 -0.26689,-0.0282 -0.36685,-0.0414 -0.57381,-0.076 -0.98496,-0.0981 -2.46777,-0.13301 -1.15322,-0.0271 -1.41303,-0.0262 -1.46421,0.005 -0.0832,0.0514 -1.02451,0.0967 -1.13122,0.0544 -0.0626,-0.0248 -0.17166,-0.0437 -0.24225,-0.042 -0.39772,0.01 -1.95426,0.16352 -3.49115,0.34454 -0.96626,0.1138 -1.94714,0.22776 -2.17974,0.25324 -0.58496,0.0641 -3.114106,0.0524 -3.789257,-0.0175 -0.204131,-0.0211 -0.695914,0.0204 -1.905,0.16104 -1.905006,0.22152 -2.582333,0.26904 -2.582333,0.18119 z"
       id="path1" /></g></svg>
