<?xml version="1.0" encoding="UTF-8" standalone="no"?>
<!-- Created with Inkscape (http://www.inkscape.org/) -->

<svg
   width="161.46182mm"
   height="12.191803mm"
   viewBox="0 0 161.46182 12.191803"
   version="1.1"
   id="svg1"
   xml:space="preserve"
   inkscape:version="1.4.2 (ebf0e94, 2025-05-08)"
   sodipodi:docname="G5.svg"
   xmlns:inkscape="http://www.inkscape.org/namespaces/inkscape"
   xmlns:sodipodi="http://sodipodi.sourceforge.net/DTD/sodipodi-0.dtd"
   xmlns="http://www.w3.org/2000/svg"
   xmlns:svg="http://www.w3.org/2000/svg"><sodipodi:namedview
     id="namedview1"
     pagecolor="#505050"
     bordercolor="#eeeeee"
     borderopacity="1"
     inkscape:showpageshadow="0"
     inkscape:pageopacity="0"
     inkscape:pagecheckerboard="0"
     inkscape:deskcolor="#d1d1d1"
     inkscape:document-units="mm"
     inkscape:zoom="2.2984007"
     inkscape:cx="257.57041"
     inkscape:cy="-70.048708"
     inkscape:window-width="2560"
     inkscape:window-height="1440"
     inkscape:window-x="0"
     inkscape:window-y="0"
     inkscape:window-maximized="1"
     inkscape:current-layer="layer1" /><defs
     id="defs1" /><g
     inkscape:label="Layer 1"
     inkscape:groupmode="layer"
     id="layer1"
     transform="translate(-56.713595,-228.05633)"><path
       style="fill:#666666;fill-opacity:1"
       d="m 163.50192,240.20556 c -0.31045,-0.0539 -0.91884,-0.10747 -3.09034,-0.27221 -2.88102,-0.21857 -2.67291,-0.19261 -4.572,-0.57026 -0.34925,-0.0694 -0.91122,-0.17491 -1.24883,-0.23434 -0.33761,-0.0594 -0.68059,-0.12571 -0.76218,-0.14728 -0.0816,-0.0216 -0.51975,-0.0993 -0.97367,-0.17263 -0.79924,-0.1292 -0.88416,-0.13447 -2.68798,-0.16699 -1.11315,-0.0201 -2.10967,-0.0594 -2.4765,-0.0977 -0.33761,-0.0352 -0.83291,-0.0843 -1.10067,-0.10896 -0.26776,-0.0247 -0.68686,-0.0647 -0.93133,-0.0889 -0.79275,-0.0785 -2.08416,-0.19612 -2.77284,-0.25255 -3.53524,-0.28969 -5.93948,-0.61558 -8.23383,-1.11608 -1.02463,-0.22352 -1.31233,-0.30803 -1.31233,-0.38548 0,-0.0477 -0.38568,-0.0611 -2.23309,-0.0776 -1.22819,-0.011 -2.37595,-0.0394 -2.55058,-0.0632 -0.17462,-0.0238 -0.5461,-0.0648 -0.8255,-0.091 -0.66874,-0.0628 -2.1114,-0.21793 -3.58003,-0.38489 -0.44387,-0.0505 -11.75308,-0.0505 -17.1633,-7e-5 -2.80569,0.0261 -4.03876,0.0533 -4.67784,0.10293 -2.27036,0.17637 -4.534807,0.20914 -6.603997,0.0956 -1.127968,-0.0619 -1.825311,-0.0739 -3.407833,-0.0588 -1.948154,0.0186 -2.798513,0.0658 -3.788833,0.2101 -0.524416,0.0764 -7.037204,0.0759 -7.366001,-6.2e-4 -0.128058,-0.0298 -0.509058,-0.0909 -0.846666,-0.13591 -0.337609,-0.045 -0.871009,-0.13161 -1.185334,-0.19257 -0.314325,-0.061 -0.866775,-0.16594 -1.227666,-0.23329 -1.149399,-0.2145 -2.228298,-0.44499 -2.475369,-0.52883 -0.236525,-0.0803 -0.651516,-0.18323 -1.101798,-0.27339 -0.20955,-0.042 -0.483613,-0.0972 -0.609028,-0.12282 -0.125416,-0.0256 -0.310257,-0.0465 -0.410758,-0.0465 -0.100502,0 -0.226489,-0.0188 -0.279972,-0.0418 -0.129999,-0.0558 -0.795742,-0.12024 -0.795742,-0.077 0,0.0187 -1.504874,0.0341 -3.344164,0.0341 h -3.344164 l -1.026753,-0.27098 c -0.564714,-0.14904 -1.207728,-0.2933 -1.428919,-0.32058 -0.221192,-0.0273 -0.678392,-0.0948 -1.016,-0.15015 -0.337609,-0.0553 -0.832909,-0.1217 -1.100667,-0.14755 -0.68625,-0.0663 -0.677333,-0.0635 -0.677333,-0.21221 0,-0.12189 -0.0069,-0.12631 -0.201084,-0.12935 -0.110596,-0.002 -0.334433,-0.0107 -0.497416,-0.0199 -0.162984,-0.009 -0.854502,-0.0246 -1.536708,-0.0342 -0.682206,-0.01 -1.248409,-0.0256 -1.258228,-0.0354 -0.04479,-0.0448 -0.09032,-1.11533 -0.04859,-1.14235 0.02422,-0.0157 0.111942,-0.0401 0.194944,-0.0542 0.238384,-0.0405 0.510745,-0.12354 0.510745,-0.15568 0,-0.0162 0.08096,-0.0415 0.179917,-0.0562 0.291949,-0.0436 0.586388,-0.11153 0.854729,-0.19727 0.250989,-0.0802 0.970283,-0.23913 1.611188,-0.35598 0.454785,-0.0829 1.306024,-0.17602 2.307166,-0.25233 0.454025,-0.0346 1.006475,-0.0913 1.227667,-0.12596 0.221192,-0.0347 0.826029,-0.0862 1.344083,-0.11453 0.518055,-0.0283 0.941917,-0.0669 0.941917,-0.0857 0,-0.0188 0.0381,-0.0342 0.08467,-0.0342 0.04657,0 0.08467,-0.0177 0.08467,-0.0393 0,-0.0216 0.185738,-0.08 0.41275,-0.12982 0.227013,-0.0498 0.443743,-0.10702 0.481622,-0.12716 0.03788,-0.0201 0.137892,-0.0496 0.22225,-0.0654 0.08436,-0.0158 0.153378,-0.0436 0.153378,-0.0617 0,-0.0596 0.248638,-0.0792 2.942167,-0.23208 2.53135,-0.14372 3.323167,-0.22088 3.323167,-0.32385 0,-0.0188 0.02858,-0.0231 0.0635,-0.01 0.03493,0.0134 0.0635,0.006 0.0635,-0.0154 0,-0.0219 0.142875,-0.0754 0.3175,-0.11884 0.174625,-0.0435 0.3175,-0.0954 0.3175,-0.11542 0,-0.02 0.01988,-0.0241 0.04419,-0.009 0.0243,0.015 0.07109,0.005 0.103979,-0.0223 0.03288,-0.0273 0.07967,-0.0373 0.103978,-0.0223 0.0243,0.015 0.04419,0.0103 0.04419,-0.0104 0,-0.0208 0.142875,-0.0733 0.3175,-0.11681 0.174625,-0.0435 0.3175,-0.0963 0.3175,-0.11744 0,-0.0211 0.02858,-0.0274 0.0635,-0.014 0.03493,0.0134 0.0635,0.01 0.0635,-0.008 0,-0.0177 0.180975,-0.0782 0.402167,-0.1345 0.221192,-0.0563 0.402167,-0.11681 0.402167,-0.1345 0,-0.0177 0.02857,-0.0212 0.0635,-0.008 0.03512,0.0135 0.0635,10e-4 0.0635,-0.0274 0,-0.031 0.03407,-0.0429 0.08467,-0.0297 0.04657,0.0122 0.08467,0.008 0.08467,-0.009 0,-0.0174 0.104775,-0.0567 0.232833,-0.0875 0.128059,-0.0307 0.232834,-0.0727 0.232834,-0.0933 0,-0.0206 0.02381,-0.0335 0.05292,-0.0288 0.0291,0.005 0.106545,-0.0135 0.17209,-0.0405 0.06554,-0.027 0.146507,-0.0491 0.179916,-0.0491 0.03341,0 0.06074,-0.0173 0.06074,-0.0384 0,-0.0211 0.0381,-0.0284 0.08467,-0.0162 0.04657,0.0122 0.08467,0.003 0.08467,-0.0209 0,-0.0237 0.09525,-0.0659 0.211666,-0.0938 0.116417,-0.0279 0.211667,-0.0692 0.211667,-0.0917 0,-0.0225 0.0381,-0.0289 0.08467,-0.0141 0.04657,0.0148 0.08467,0.008 0.08467,-0.0153 0,-0.0232 0.104775,-0.0656 0.232834,-0.0943 0.128058,-0.0287 0.232833,-0.0702 0.232833,-0.0922 0,-0.0221 0.02858,-0.0292 0.0635,-0.0158 0.03492,0.0134 0.0635,0.008 0.0635,-0.0113 0,-0.0954 0.437986,-0.0657 2.761008,0.1877 1.380221,0.15055 2.662295,0.27378 2.849055,0.27386 0.186759,8e-5 2.158434,0.10593 4.3815,0.23522 l 4.041937,0.23507 5.961946,-0.004 c 6.309403,-0.004 6.193513,-0.001 7.436553,-0.19543 0.0815,-0.0127 0.4625,0.0157 0.84667,0.0631 1.00335,0.12394 1.82033,0.16221 1.82034,0.0853 0,-0.0443 0.0719,-0.0607 0.28575,-0.0652 0.93325,-0.0193 2.00647,-0.0571 2.46591,-0.0869 0.67857,-0.0439 2.68249,-0.0443 3.25967,-6e-4 0.24447,0.0185 0.70167,0.053 1.016,0.0766 0.31432,0.0237 0.81915,0.0686 1.12183,0.0999 0.55887,0.0578 0.86368,0.0536 0.90724,-0.0124 0.0358,-0.0542 1.12134,-0.29653 1.46343,-0.32668 0.16381,-0.0145 1.36593,0.0319 2.68816,0.10366 3.54495,0.19236 4.02362,0.20698 10.55155,0.32232 5.67398,0.10025 6.34694,0.12433 6.48762,0.23214 0.14711,0.11275 0.62318,0.12705 4.26717,0.12818 l 3.77616,10e-4 3.683,-0.24062 c 2.255,-0.14733 3.76097,-0.22885 3.88409,-0.21025 0.13743,0.0208 0.20108,0.0506 0.20108,0.0941 0,0.0445 0.0256,0.0556 0.0847,0.0369 0.065,-0.0206 0.0847,-0.008 0.0847,0.0561 0,0.13062 0.15591,0.14213 0.85697,0.0633 0.89277,-0.10042 3.29069,-0.10072 3.29144,-4.1e-4 1.5e-4,0.0188 0.0178,0.0234 0.0392,0.0102 0.0214,-0.0132 0.18847,0.0108 0.37128,0.0533 0.26274,0.0612 0.40316,0.0705 0.67018,0.0443 0.18579,-0.0182 0.54352,-0.0382 0.79495,-0.0444 0.52125,-0.0129 0.50376,-0.0236 0.57784,0.35294 l 0.0488,0.24788 0.87628,8.5e-4 c 0.88676,8.5e-4 1.12065,0.0256 1.95579,0.20702 0.22119,0.048 0.48868,0.0876 0.59443,0.0879 0.23605,6.8e-4 1.10453,0.1126 1.47909,0.1906 0.45511,0.0948 0.60358,0.13889 0.93411,0.27753 0.57006,0.23912 0.66274,0.25745 1.50087,0.29675 1.06789,0.0501 1.83407,0.11207 2.08286,0.16849 0.11173,0.0253 0.27934,0.0639 0.37247,0.0858 0.0931,0.0218 0.55986,0.069 1.03717,0.10471 0.91771,0.0687 0.96477,0.0759 1.62983,0.24651 0.52621,0.13502 1.09208,0.25169 1.87562,0.38673 0.33308,0.0574 0.68605,0.13168 0.78436,0.16506 0.30886,0.10486 0.82034,0.15209 1.86969,0.17265 1.25099,0.0245 1.83668,0.0566 1.94733,0.10686 0.22817,0.10352 0.82303,0.12722 3.1937,0.12722 1.37507,0 2.50014,0.016 2.50014,0.0356 0,0.0803 0.51169,0.13384 1.69977,0.17779 0.84349,0.0312 1.32132,0.0663 1.45664,0.10703 0.11076,0.0333 0.26503,0.0606 0.34282,0.0606 0.0778,0 0.14144,0.019 0.14144,0.0423 0,0.0233 0.0365,0.0423 0.0811,0.0423 0.0446,0 0.0887,0.0227 0.0979,0.0504 0.0127,0.038 0.77855,0.0584 3.10445,0.0829 4.81726,0.0507 5.95013,0.0684 6.17798,0.0967 0.11641,0.0145 0.72601,0.0934 1.35466,0.1754 0.62865,0.082 1.2192,0.1575 1.31234,0.16773 0.0931,0.0102 0.3122,0.0368 0.48683,0.059 0.30433,0.0387 0.53629,0.0574 1.37583,0.11055 0.5018,0.0318 1.51,0.1707 1.78358,0.24576 0.17685,0.0485 0.38147,0.0525 1.10066,0.0213 1.02902,-0.0446 1.13713,-0.038 2.53443,0.15495 0.0466,0.006 0.14658,0.0256 0.22225,0.0427 l 0.13758,0.031 v 0.27617 0.27618 l 0.97609,-0.023 c 0.72446,-0.0171 1.02938,-0.009 1.18279,0.0315 0.11368,0.03 0.21544,0.0458 0.22613,0.0351 0.0266,-0.0266 0.38265,0.0715 0.40899,0.11262 0.0116,0.0182 0.95229,-0.0189 2.09032,-0.0824 l 2.06915,-0.11543 0.59785,0.14284 c 0.32882,0.0786 0.6042,0.16128 0.61196,0.18381 0.008,0.0225 0.0506,0.041 0.0952,0.041 0.069,0 0.0811,0.0312 0.0811,0.20852 v 0.20853 l -2.59292,0.0166 c -2.13752,0.0137 -2.68213,0.0291 -3.10091,0.088 -0.2794,0.0393 -0.64135,0.0899 -0.80434,0.1124 -0.65594,0.0907 -2.08773,0.40803 -2.4765,0.54896 -0.0582,0.0211 -0.24871,0.0807 -0.42333,0.13248 -0.43106,0.12776 -0.508,0.16678 -0.508,0.25765 0,0.0428 -0.005,0.0779 -0.0106,0.0779 -0.006,0 -0.33444,0.0485 -0.73025,0.10778 -0.62887,0.0942 -0.75572,0.10171 -1.00542,0.0597 -0.18065,-0.0304 -0.28575,-0.0682 -0.28575,-0.10285 0,-0.0301 -0.0429,-0.0686 -0.0952,-0.0856 -0.15848,-0.0513 -2.19075,-0.0792 -2.19075,-0.0301 0,0.0237 -0.0381,0.0331 -0.0847,0.021 -0.0466,-0.0122 -0.0847,-0.003 -0.0847,0.0212 0,0.0238 -0.036,0.0339 -0.0799,0.0224 -0.0439,-0.0115 -0.0916,-0.002 -0.10588,0.0211 -0.0143,0.0231 -0.0641,0.0321 -0.11061,0.0199 -0.0465,-0.0122 -0.0846,-0.003 -0.0846,0.0214 0,0.0239 -0.0762,0.0564 -0.16934,0.0722 -0.0931,0.0157 -0.16933,0.0443 -0.16933,0.0635 0,0.0192 -0.0762,0.0478 -0.16933,0.0635 -0.0931,0.0157 -0.16934,0.0482 -0.16934,0.0722 0,0.0239 -0.0381,0.0336 -0.0847,0.0214 -0.0466,-0.0122 -0.0847,-0.005 -0.0847,0.0162 0,0.0211 -0.0381,0.0384 -0.0847,0.0384 -0.0466,0 -0.0847,0.019 -0.0847,0.0423 0,0.0233 -0.0476,0.0423 -0.10584,0.0423 -0.0627,0 -0.10583,0.0243 -0.10583,0.0595 0,0.0387 -0.0296,0.0518 -0.0847,0.0374 -0.0565,-0.0148 -0.0847,-0.001 -0.0847,0.0405 0,0.13908 -0.41206,0.15892 -3.31965,0.15986 -3.02131,9.7e-4 -3.53093,0.0275 -3.64992,0.19027 -0.0467,0.0638 -0.15173,0.0812 -0.65989,0.10892 -2.23677,0.12214 -3.7777,0.23111 -3.84356,0.27182 -0.0215,0.0133 -0.5397,0.0422 -1.1516,0.0642 -1.14889,0.0414 -1.33312,0.0639 -2.91172,0.35474 -0.75311,0.13876 -0.90673,0.17299 -1.60866,0.35842 -0.63035,0.16652 -0.69939,0.18776 -0.75668,0.23275 -0.0334,0.0262 -0.38479,0.0575 -0.8255,0.0736 -0.88023,0.032 -1.44755,0.0949 -3.22266,0.35754 l -1.27,0.18788 -4.04283,0.002 -4.04284,0.002 -0.46566,0.10077 c -0.25612,0.0554 -0.57997,0.13016 -0.71967,0.16606 -0.2085,0.0536 -0.57057,0.0656 -2.02142,0.0668 -1.54214,0.001 -1.76741,0.01 -1.76741,0.065 0,0.0548 -0.13772,0.0628 -1.00542,0.0585 -0.55298,-0.003 -1.10067,-0.0215 -1.21708,-0.0417 z"
       id="path1" /></g></svg>
