<?xml version="1.0" encoding="UTF-8" standalone="no"?>
<!-- Created with Inkscape (http://www.inkscape.org/) -->

<svg
   width="29.559303mm"
   height="20.318453mm"
   viewBox="0 0 29.559303 20.318454"
   version="1.1"
   id="svg1"
   inkscape:version="1.4.2 (ebf0e94, 2025-05-08)"
   sodipodi:docname="goblin.svg"
   xmlns:inkscape="http://www.inkscape.org/namespaces/inkscape"
   xmlns:sodipodi="http://sodipodi.sourceforge.net/DTD/sodipodi-0.dtd"
   xmlns:xlink="http://www.w3.org/1999/xlink"
   xmlns="http://www.w3.org/2000/svg"
   xmlns:svg="http://www.w3.org/2000/svg">
  <sodipodi:namedview
     id="namedview1"
     pagecolor="#505050"
     bordercolor="#eeeeee"
     borderopacity="1"
     inkscape:showpageshadow="0"
     inkscape:pageopacity="0"
     inkscape:pagecheckerboard="0"
     inkscape:deskcolor="#d1d1d1"
     inkscape:document-units="mm"
     inkscape:zoom="9.1936027"
     inkscape:cx="77.880242"
     inkscape:cy="59.606666"
     inkscape:window-width="2560"
     inkscape:window-height="1440"
     inkscape:window-x="0"
     inkscape:window-y="0"
     inkscape:window-maximized="1"
     inkscape:current-layer="svg1" />
  <defs
     id="defs1">
    <radialGradient
       inkscape:collect="always"
       xlink:href="#linearGradient44"
       id="radialGradient45"
       cx="59.759689"
       cy="771.03619"
       fx="59.759689"
       fy="771.03619"
       r="44.167023"
       gradientTransform="matrix(0.29901561,0,0,-0.26104844,-10.721147,208.01586)"
       gradientUnits="userSpaceOnUse" />
    <linearGradient
       id="linearGradient44"
       inkscape:collect="always">
      <stop
         style="stop-color:#9bc100;stop-opacity:1;"
         offset="0.20338836"
         id="stop44" />
      <stop
         style="stop-color:#386602;stop-opacity:1;"
         offset="1"
         id="stop45" />
    </linearGradient>
  </defs>
  <path
     style="display:inline;fill:url(#radialGradient45);stroke-width:0.352778"
     d="m 7.3565546,20.314931 c -0.1907724,-0.01785 -0.5625074,-0.06411 -0.7846992,-0.09766 -0.4283512,-0.06467 -1.0479351,-0.184524 -1.0706516,-0.207102 -0.00636,-0.0063 -0.00493,-0.08759 0.00325,-0.185645 0.030314,-0.363055 0.041454,-0.631028 0.041496,-0.998337 1.21e-4,-1.062665 -0.1443535,-1.716669 -0.4602211,-2.083325 -0.096329,-0.11182 -0.2412866,-0.197746 -0.4036956,-0.239293 -0.1163906,-0.02978 -0.4463987,-0.02307 -0.6123542,0.01245 -0.4550688,0.09738 -0.9871851,0.372516 -1.5211949,0.78655 -0.172047,0.133392 -0.613216,0.521345 -0.671136,0.590183 -0.01936,0.02304 -0.107838,0.118202 -0.19662,0.211547 l -0.161422,0.169714 -0.03698,-0.02907 -0.03698,-0.02907 -0.0085,0.04156 c -0.0047,0.02286 -0.01383,0.04688 -0.02034,0.0534 -0.0154,0.01538 -0.291185,-0.170981 -0.55329,-0.373931 -0.217215,-0.16819 -0.51213,-0.418585 -0.729164,-0.619086 L 0,17.193974 V 8.5969861 0 h 11.487126 11.487137 l 0.07573,0.053047 c 0.268309,0.1879494 0.755396,0.6565758 1.005512,0.9674013 0.07799,0.096919 0.194667,0.2556651 0.259278,0.3527742 0.06461,0.097106 0.168536,0.2346889 0.230932,0.3057384 0.264188,0.3008207 0.492841,0.6220813 0.610669,0.8580226 0.03408,0.068217 0.0753,0.1417814 0.09161,0.1634807 0.106998,0.1422682 0.216066,0.4157627 0.262418,0.6580293 0.0218,0.113852 0.02441,0.4221692 0.0046,0.5331742 -0.0076,0.042683 -0.02678,0.118357 -0.04251,0.1681763 -0.02586,0.081844 -0.04087,0.1033956 -0.155738,0.2237281 -0.207553,0.2174381 -0.433578,0.3610151 -0.72119,0.4581243 l -0.149398,0.050444 0.08034,0.034219 c 0.171118,0.072877 0.656876,0.3205868 0.956589,0.4878105 0.618715,0.3452142 0.956938,0.5601899 1.430528,0.909253 0.105152,0.077502 0.254529,0.18657 0.331953,0.2423724 0.08199,0.059094 0.137118,0.1073609 0.132031,0.1155912 -0.0053,0.0085 -0.0028,0.010336 0.0066,0.00466 0.01806,-0.011183 0.241158,0.1584713 0.230677,0.1754258 -0.0038,0.00621 -8.8e-5,0.015558 0.0083,0.020743 0.01009,0.00624 0.01178,0.00374 0.0049,-0.00734 -0.0069,-0.011289 -0.0044,-0.01464 0.0078,-0.010195 0.01002,0.00363 0.01669,0.013229 0.01489,0.021308 -0.0018,0.00811 0.0041,0.013264 0.01309,0.01143 0.009,-0.00176 0.01496,0.00388 0.01326,0.012629 -0.0018,0.00875 0.0047,0.012876 0.01425,0.00921 0.0095,-0.00363 0.02565,0.0036 0.03581,0.016051 0.01573,0.019403 0.01577,0.021131 7.4e-5,0.011642 -0.01256,-0.00755 -0.01538,-0.00624 -0.0089,0.00423 0.0052,0.00843 0.01453,0.012171 0.02071,0.00836 0.017,-0.010513 0.139111,0.095963 0.419742,0.3659963 0.339785,0.3269509 0.33952,0.3266652 0.711602,0.7667131 0.178749,0.2113986 0.382856,0.4502397 0.453577,0.5307506 0.09188,0.1045986 0.143814,0.1773979 0.181945,0.2550266 l 0.05336,0.1086414 -0.0071,0.1503998 c -0.0073,0.1543297 -0.04386,0.4292282 -0.07973,0.5994506 -0.166596,0.7904303 -0.527297,1.4827073 -1.175692,2.2564623 -0.254423,0.303611 -0.947745,1.008542 -1.496893,1.521958 -0.275766,0.257817 -0.280229,0.26127 -0.415706,0.321631 l -0.136948,0.06101 h -0.160003 c -0.508691,0 -0.715899,-0.256438 -0.754912,-0.934279 -0.0071,-0.122735 -0.01274,-0.558614 -0.01263,-0.968616 2.82e-4,-0.93376 -0.01538,-1.24262 -0.08592,-1.693643 C 25.161312,9.7375166 25.002813,9.1851583 24.817231,8.7493473 24.729756,8.5439248 24.53649,8.1739315 24.409469,7.96871 24.361336,7.8909472 24.311213,7.8096708 24.29809,7.7880878 24.231888,7.6792665 24.064526,7.4375643 23.99989,7.3574449 23.90294,7.2372641 23.762051,7.1187167 23.607965,7.0276577 23.538757,6.9867566 23.440935,6.9286436 23.390583,6.8985093 23.271771,6.8274069 22.850128,6.6106497 22.690891,6.5388135 22.249566,6.3397164 21.835703,6.2206856 21.461528,6.1852279 c -0.379626,-0.035976 -0.856863,0.015346 -1.137814,0.1224033 -0.135208,0.051509 -0.170018,0.066714 -0.170018,0.074263 0,0.00388 0.08975,0.029986 0.199445,0.057976 0.40528,0.1034485 0.936942,0.2941743 1.23008,0.4412791 0.579661,0.2908864 1.038621,0.7402442 1.313696,1.2862101 0.126767,0.2516117 0.264795,0.6801308 0.264795,0.8220851 0,0.06127 -0.09668,0.2206801 -0.317335,0.5232188 -0.528891,0.7251667 -1.188652,1.4105037 -1.866745,1.9391137 -0.33771,0.26326 -1.091729,0.702013 -1.435876,0.835515 -0.0824,0.03196 -0.09784,0.03447 -0.113701,0.01838 -0.021,-0.02131 -0.104226,-0.187329 -0.178452,-0.355978 -0.05641,-0.12816 -0.05925,-0.157984 -0.03146,-0.329639 0.04165,-0.257256 0.08615,-0.687236 0.111659,-1.07896 0.01748,-0.268439 0.01797,-1.2015047 7.06e-4,-1.3339868 C 19.298062,8.9582623 19.233667,8.7202678 19.125271,8.4485831 18.931905,7.9639264 18.68507,7.5790952 18.456039,7.4052216 18.358661,7.33129 18.195773,7.2439563 18.094709,7.2114867 c -0.03643,-0.011712 -0.122518,-0.046725 -0.191318,-0.077833 -0.0688,-0.03108 -0.180381,-0.072097 -0.247959,-0.091098 -0.06758,-0.019015 -0.143706,-0.04343 -0.169172,-0.054282 -0.195249,-0.083217 -0.416051,-0.1404973 -0.622547,-0.1615017 -0.172909,-0.017604 -0.498715,-0.018309 -0.587726,-0.00141 -0.134891,0.025788 -0.338331,0.089694 -0.513462,0.1612547 l -0.0688,0.028116 0.863406,0.428311 c 0.474873,0.2355713 0.866633,0.4367182 0.870577,0.4469981 0.0039,0.010266 -0.02253,0.1695309 -0.05883,0.3538961 -0.0363,0.1843652 -0.10447,0.5544467 -0.15149,0.8224061 -0.204306,1.1643322 -0.268896,1.4470842 -0.392539,1.7184012 -0.136391,0.29929 -0.198323,0.257585 -0.391145,-0.263408 -0.04792,-0.129477 -0.120082,-0.320746 -0.160361,-0.425048 -0.349083,-0.9039365 -0.698028,-1.4851767 -1.400696,-2.3331663 -0.09,-0.1086167 -0.165374,-0.1996545 -0.16749,-0.2023039 -0.0067,-0.00836 -0.173803,0.088036 -0.251201,0.1449141 -0.224241,0.1648001 -0.48167,0.4997449 -0.618528,0.8047778 -0.08424,0.1877448 -0.15678,0.4502643 -0.181088,0.6553094 -0.03257,0.2747398 -0.01209,0.6895218 0.04691,0.9500909 0.163685,0.722884 0.5412,1.304596 1.07678,1.659202 0.206674,0.136839 0.523485,0.318237 0.751476,0.430283 0.188815,0.09279 0.428106,0.157995 0.733398,0.199852 0.319727,0.04384 1.020758,0.04428 1.258318,7.06e-4 0.273222,-0.05001 0.489728,-0.148869 0.655759,-0.299431 0.05581,-0.05061 0.05745,-0.05115 0.08163,-0.02699 0.04472,0.04472 0.05732,0.160757 0.0573,0.527689 -1.7e-5,0.378622 -0.01342,0.504285 -0.08477,0.795122 -0.118619,0.483465 -0.370737,1.014243 -0.766908,1.614558 -0.06052,0.09171 -0.116264,0.166748 -0.123866,0.166748 -0.0076,0 -0.10601,-0.07244 -0.218683,-0.160987 -0.390242,-0.306659 -0.506414,-0.387053 -0.684732,-0.47384 -0.102976,-0.05012 -0.131376,-0.05832 -0.201905,-0.05832 -0.106638,0 -0.138535,0.01595 -0.172815,0.08653 -0.03681,0.07577 -0.03763,0.212573 -0.0021,0.348315 0.03272,0.124933 0.178914,0.438905 0.373444,0.802044 0.08235,0.153719 0.149721,0.287295 0.149721,0.296838 0,0.01912 -0.256068,0.273861 -0.470819,0.468396 -0.38171,0.345775 -0.952776,0.807459 -0.978839,0.791354 -0.0067,-0.0042 -0.14804,-0.279795 -0.314057,-0.612545 -0.500865,-1.003889 -0.6546,-1.226217 -0.84789,-1.226217 -0.0875,0 -0.138358,0.03544 -0.216132,0.150618 -0.18879,0.27958 -0.359252,0.842469 -0.480708,1.587356 -0.02274,0.13947 -0.07301,0.508818 -0.1117,0.820772 -0.03869,0.311948 -0.07409,0.573229 -0.07865,0.580616 -0.01312,0.0212 -0.445534,0.233917 -0.902055,0.443678 -0.82363,0.37845 -1.157772,0.527572 -1.16529,0.520051 -0.0042,-0.0042 -0.0027,-0.153257 0.0034,-0.331241 0.03409,-1.001465 -0.09665,-1.854468 -0.397729,-2.5948 -0.169655,-0.417181 -0.294157,-0.611004 -0.454423,-0.707446 -0.04445,-0.02674 -0.06902,-0.03147 -0.163479,-0.03126 -0.1024768,1.98e-4 -0.1183215,0.004 -0.202714,0.04822 -0.1270011,0.06659 -0.2227305,0.146191 -0.3463276,0.287979 -0.3449616,0.395729 -0.6947902,1.015767 -1.1605193,2.056917 -0.2559389,0.57216 -0.4542324,1.092785 -0.6575171,1.726339 l -0.1007127,0.313881 -0.064128,0.0014 c -0.035271,7.05e-4 -0.087669,-0.0011 -0.116441,-0.0036 z M 22.397994,4.135963 C 22.372206,4.1017788 22.323483,4.0297028 22.289754,3.975756 22.076107,3.6340661 21.964237,3.4960136 21.71655,3.2684155 21.548538,3.1140293 21.321983,2.948252 21.254042,2.9299851 c -0.0487,-0.013088 -0.505811,-0.040548 -0.681847,-0.040947 -0.108304,-2.469e-4 -0.522025,0.023424 -0.614681,0.035172 -0.185373,0.023495 -0.469732,0.080384 -0.693151,0.1386628 -0.140265,0.03659 -0.278568,0.069395 -0.30734,0.072901 l -0.05231,0.00635 0.09155,0.029245 c 0.964332,0.314699 1.932509,0.6203703 2.896846,0.9289979 0.02516,0.010019 0.100657,0.024483 0.167734,0.032173 0.123669,0.014146 0.303031,0.048017 0.314338,0.059323 0.0035,0.00353 0.0205,0.00617 0.03796,0.00617 0.0315,0 0.0314,-3.351e-4 -0.01513,-0.062121 z M 13.621069,3.4986206 c 0.269531,-0.014852 0.59717,-0.077534 0.869708,-0.1663594 0.06833,-0.022296 0.139731,-0.041254 0.158659,-0.042185 0.08086,-0.00399 0.136012,-0.1072762 0.13045,-0.2443339 C 14.77911,3.0269743 14.694017,2.8651164 14.59076,2.6860887 14.364469,2.2937399 13.755945,1.2836771 13.643879,1.1144002 l -0.0804,-0.1214437 -0.01427,0.056053 c -0.0078,0.030833 -0.02543,0.094305 -0.03908,0.1410617 -0.02446,0.083816 -0.05819,0.2582157 -0.151758,0.7847012 -0.08783,0.4941676 -0.234657,1.2936361 -0.251878,1.371413 -0.01113,0.050281 0.0023,0.1256489 0.02493,0.1396189 0.01535,0.00949 0.279946,0.029563 0.319627,0.024271 0.01439,-0.00212 0.09089,-0.00706 0.170018,-0.01143 z m 3.762834,-0.9293507 c 0.581716,-0.293564 1.161591,-0.7236319 1.6911,-1.2542238 0.220013,-0.2204614 0.3463,-0.367351 0.3463,-0.4028016 0,-0.027305 -0.187926,-0.2081177 -0.314116,-0.3022036 C 18.970063,0.5078024 18.787186,0.4054404 18.571212,0.3100317 18.484459,0.2717057 18.289791,0.209998 18.191941,0.1898085 c -0.05395,-0.011148 -0.106915,-0.023636 -0.117705,-0.027728 -0.03022,-0.011571 -0.143861,-0.013441 -0.143861,-0.00247 0,0.0054 -0.0231,0.047569 -0.05134,0.093701 -0.146589,0.2394973 -0.317914,0.6052609 -0.432626,0.9236146 -0.08199,0.2275311 -0.218058,0.7085612 -0.299664,1.0593458 -0.02259,0.097106 -0.04973,0.2093136 -0.06031,0.2493433 -0.01058,0.040037 -0.01923,0.099928 -0.01923,0.133096 0,0.1001571 0.02916,0.095599 0.316697,-0.049509 z"
     id="path44"
     sodipodi:nodetypes="csscssscscscccsssscccccsssssssscsscssssscscccccccccscssssccsssscsscssscssssssscsssssscssscssccscccscsssssssssssssssscsssssssssssssssssssscscsscccssscccccsscscscccscssccscccsscssssccsscssssccscsssscc"
     inkscape:label="goblin" />
</svg>
