<?xml version="1.0" encoding="UTF-8" standalone="no"?>
<!-- Created with Inkscape (http://www.inkscape.org/) -->

<svg
   width="29.029112mm"
   height="20.294971mm"
   viewBox="0 0 29.029112 20.294973"
   version="1.1"
   id="svg1"
   inkscape:version="1.4.2 (ebf0e94, 2025-05-08)"
   sodipodi:docname="goblin.svg"
   xml:space="preserve"
   xmlns:inkscape="http://www.inkscape.org/namespaces/inkscape"
   xmlns:sodipodi="http://sodipodi.sourceforge.net/DTD/sodipodi-0.dtd"
   xmlns:xlink="http://www.w3.org/1999/xlink"
   xmlns="http://www.w3.org/2000/svg"
   xmlns:svg="http://www.w3.org/2000/svg"><sodipodi:namedview
     id="namedview1"
     pagecolor="#505050"
     bordercolor="#eeeeee"
     borderopacity="1"
     inkscape:showpageshadow="0"
     inkscape:pageopacity="0"
     inkscape:pagecheckerboard="0"
     inkscape:deskcolor="#d1d1d1"
     inkscape:document-units="mm"
     inkscape:zoom="4.5968014"
     inkscape:cx="25.561252"
     inkscape:cy="51.55759"
     inkscape:window-width="2560"
     inkscape:window-height="1440"
     inkscape:window-x="0"
     inkscape:window-y="0"
     inkscape:window-maximized="1"
     inkscape:current-layer="svg1" /><defs
     id="defs1"><linearGradient
       id="linearGradient1"
       inkscape:collect="always"><stop
         style="stop-color:#9bc100;stop-opacity:1;"
         offset="0.21443969"
         id="stop1" /><stop
         style="stop-color:#386602;stop-opacity:1;"
         offset="1"
         id="stop2" /></linearGradient><radialGradient
       inkscape:collect="always"
       xlink:href="#linearGradient44"
       id="radialGradient45"
       cx="59.759689"
       cy="771.03619"
       fx="59.759689"
       fy="771.03619"
       r="44.167023"
       gradientTransform="matrix(0.29901561,0,0,-0.26104844,-10.721147,208.01586)"
       gradientUnits="userSpaceOnUse" /><linearGradient
       id="linearGradient44"
       inkscape:collect="always"><stop
         style="stop-color:#9bc100;stop-opacity:1;"
         offset="0.20338836"
         id="stop44" /><stop
         style="stop-color:#386602;stop-opacity:1;"
         offset="1"
         id="stop45" /></linearGradient><radialGradient
       inkscape:collect="always"
       xlink:href="#linearGradient1"
       id="radialGradient2"
       cx="6.8463049"
       cy="5.8309741"
       fx="6.8463049"
       fy="5.8309741"
       r="14.514556"
       gradientTransform="matrix(1.4027605,0,0,0.86171217,-2.7744406,2.0942243)"
       gradientUnits="userSpaceOnUse" /></defs><path
     style="display:none;fill:url(#radialGradient45);stroke-width:0.352778"
     d="m 7.3565546,20.314931 c -0.1907724,-0.01785 -0.5625074,-0.06411 -0.7846992,-0.09766 -0.4283512,-0.06467 -1.0479351,-0.184524 -1.0706516,-0.207102 -0.00636,-0.0063 -0.00493,-0.08759 0.00325,-0.185645 0.030314,-0.363055 0.041454,-0.631028 0.041496,-0.998337 1.21e-4,-1.062665 -0.1443535,-1.716669 -0.4602211,-2.083325 -0.096329,-0.11182 -0.2412866,-0.197746 -0.4036956,-0.239293 -0.1163906,-0.02978 -0.4463987,-0.02307 -0.6123542,0.01245 -0.4550688,0.09738 -0.9871851,0.372516 -1.5211949,0.78655 -0.172047,0.133392 -0.613216,0.521345 -0.671136,0.590183 -0.01936,0.02304 -0.107838,0.118202 -0.19662,0.211547 l -0.161422,0.169714 -0.03698,-0.02907 -0.03698,-0.02907 -0.0085,0.04156 c -0.0047,0.02286 -0.01383,0.04688 -0.02034,0.0534 -0.0154,0.01538 -0.291185,-0.170981 -0.55329,-0.373931 -0.217215,-0.16819 -0.51213,-0.418585 -0.729164,-0.619086 L 0,17.193974 V 8.5969861 0 h 11.487126 11.487137 l 0.07573,0.053047 c 0.268309,0.1879494 0.755396,0.6565758 1.005512,0.9674013 0.07799,0.096919 0.194667,0.2556651 0.259278,0.3527742 0.06461,0.097106 0.168536,0.2346889 0.230932,0.3057384 0.264188,0.3008207 0.492841,0.6220813 0.610669,0.8580226 0.03408,0.068217 0.0753,0.1417814 0.09161,0.1634807 0.106998,0.1422682 0.216066,0.4157627 0.262418,0.6580293 0.0218,0.113852 0.02441,0.4221692 0.0046,0.5331742 -0.0076,0.042683 -0.02678,0.118357 -0.04251,0.1681763 -0.02586,0.081844 -0.04087,0.1033956 -0.155738,0.2237281 -0.207553,0.2174381 -0.433578,0.3610151 -0.72119,0.4581243 l -0.149398,0.050444 0.08034,0.034219 c 0.171118,0.072877 0.656876,0.3205868 0.956589,0.4878105 0.618715,0.3452142 0.956938,0.5601899 1.430528,0.909253 0.105152,0.077502 0.254529,0.18657 0.331953,0.2423724 0.08199,0.059094 0.137118,0.1073609 0.132031,0.1155912 -0.0053,0.0085 -0.0028,0.010336 0.0066,0.00466 0.01806,-0.011183 0.241158,0.1584713 0.230677,0.1754258 -0.0038,0.00621 -8.8e-5,0.015558 0.0083,0.020743 0.01009,0.00624 0.01178,0.00374 0.0049,-0.00734 -0.0069,-0.011289 -0.0044,-0.01464 0.0078,-0.010195 0.01002,0.00363 0.01669,0.013229 0.01489,0.021308 -0.0018,0.00811 0.0041,0.013264 0.01309,0.01143 0.009,-0.00176 0.01496,0.00388 0.01326,0.012629 -0.0018,0.00875 0.0047,0.012876 0.01425,0.00921 0.0095,-0.00363 0.02565,0.0036 0.03581,0.016051 0.01573,0.019403 0.01577,0.021131 7.4e-5,0.011642 -0.01256,-0.00755 -0.01538,-0.00624 -0.0089,0.00423 0.0052,0.00843 0.01453,0.012171 0.02071,0.00836 0.017,-0.010513 0.139111,0.095963 0.419742,0.3659963 0.339785,0.3269509 0.33952,0.3266652 0.711602,0.7667131 0.178749,0.2113986 0.382856,0.4502397 0.453577,0.5307506 0.09188,0.1045986 0.143814,0.1773979 0.181945,0.2550266 l 0.05336,0.1086414 -0.0071,0.1503998 c -0.0073,0.1543297 -0.04386,0.4292282 -0.07973,0.5994506 -0.166596,0.7904303 -0.527297,1.4827073 -1.175692,2.2564623 -0.254423,0.303611 -0.947745,1.008542 -1.496893,1.521958 -0.275766,0.257817 -0.280229,0.26127 -0.415706,0.321631 l -0.136948,0.06101 h -0.160003 c -0.508691,0 -0.715899,-0.256438 -0.754912,-0.934279 -0.0071,-0.122735 -0.01274,-0.558614 -0.01263,-0.968616 2.82e-4,-0.93376 -0.01538,-1.24262 -0.08592,-1.693643 C 25.161312,9.7375166 25.002813,9.1851583 24.817231,8.7493473 24.729756,8.5439248 24.53649,8.1739315 24.409469,7.96871 24.361336,7.8909472 24.311213,7.8096708 24.29809,7.7880878 24.231888,7.6792665 24.064526,7.4375643 23.99989,7.3574449 23.90294,7.2372641 23.762051,7.1187167 23.607965,7.0276577 23.538757,6.9867566 23.440935,6.9286436 23.390583,6.8985093 23.271771,6.8274069 22.850128,6.6106497 22.690891,6.5388135 22.249566,6.3397164 21.835703,6.2206856 21.461528,6.1852279 c -0.379626,-0.035976 -0.856863,0.015346 -1.137814,0.1224033 -0.135208,0.051509 -0.170018,0.066714 -0.170018,0.074263 0,0.00388 0.08975,0.029986 0.199445,0.057976 0.40528,0.1034485 0.936942,0.2941743 1.23008,0.4412791 0.579661,0.2908864 1.038621,0.7402442 1.313696,1.2862101 0.126767,0.2516117 0.264795,0.6801308 0.264795,0.8220851 0,0.06127 -0.09668,0.2206801 -0.317335,0.5232188 -0.528891,0.7251667 -1.188652,1.4105037 -1.866745,1.9391137 -0.33771,0.26326 -1.091729,0.702013 -1.435876,0.835515 -0.0824,0.03196 -0.09784,0.03447 -0.113701,0.01838 -0.021,-0.02131 -0.104226,-0.187329 -0.178452,-0.355978 -0.05641,-0.12816 -0.05925,-0.157984 -0.03146,-0.329639 0.04165,-0.257256 0.08615,-0.687236 0.111659,-1.07896 0.01748,-0.268439 0.01797,-1.2015047 7.06e-4,-1.3339868 C 19.298062,8.9582623 19.233667,8.7202678 19.125271,8.4485831 18.931905,7.9639264 18.68507,7.5790952 18.456039,7.4052216 18.358661,7.33129 18.195773,7.2439563 18.094709,7.2114867 18.058279,7.1997747 17.972191,7.1647617 17.903391,7.1336537 17.834591,7.1025737 17.72301,7.0615567 17.655432,7.0425557 17.587852,7.0235407 17.511726,6.9991257 17.48626,6.9882737 17.291011,6.9050567 17.070209,6.8477764 16.863713,6.826772 16.690804,6.809168 16.364998,6.808463 16.275987,6.825362 16.141096,6.85115 15.937656,6.915056 15.762525,6.9866167 l -0.0688,0.028116 0.863406,0.428311 c 0.474873,0.2355713 0.866633,0.4367182 0.870577,0.4469981 0.0039,0.010266 -0.02253,0.1695309 -0.05883,0.3538961 -0.0363,0.1843652 -0.10447,0.5544467 -0.15149,0.8224061 -0.204306,1.164332 -0.268896,1.447084 -0.392539,1.718401 -0.136391,0.29929 -0.198323,0.257585 -0.391145,-0.263408 -0.04792,-0.129477 -0.120082,-0.320746 -0.160361,-0.425048 -0.349083,-0.9039363 -0.698028,-1.4851765 -1.400696,-2.3331661 -0.09,-0.1086167 -0.165374,-0.1996545 -0.16749,-0.2023039 -0.0067,-0.00836 -0.173803,0.088036 -0.251201,0.1449141 -0.224241,0.1648001 -0.48167,0.4997449 -0.618528,0.8047778 -0.08424,0.1877448 -0.15678,0.4502643 -0.181088,0.6553094 -0.03257,0.2747398 -0.01209,0.6895218 0.04691,0.9500907 0.163685,0.722884 0.5412,1.304596 1.07678,1.659202 0.206674,0.136839 0.523485,0.318237 0.751476,0.430283 0.188815,0.09279 0.428106,0.157995 0.733398,0.199852 0.319727,0.04384 1.020758,0.04428 1.258318,7.06e-4 0.273222,-0.05001 0.489728,-0.148869 0.655759,-0.299431 0.05581,-0.05061 0.05745,-0.05115 0.08163,-0.02699 0.04472,0.04472 0.05732,0.160757 0.0573,0.527689 -1.7e-5,0.378622 -0.01342,0.504285 -0.08477,0.795122 -0.118619,0.483465 -0.370737,1.014243 -0.766908,1.614558 -0.06052,0.09171 -0.116264,0.166748 -0.123866,0.166748 -0.0076,0 -0.10601,-0.07244 -0.218683,-0.160987 -0.390242,-0.306659 -0.506414,-0.387053 -0.684732,-0.47384 -0.102976,-0.05012 -0.131376,-0.05832 -0.201905,-0.05832 -0.106638,0 -0.138535,0.01595 -0.172815,0.08653 -0.03681,0.07577 -0.03763,0.212573 -0.0021,0.348315 0.03272,0.124933 0.178914,0.438905 0.373444,0.802044 0.08235,0.153719 0.149721,0.287295 0.149721,0.296838 0,0.01912 -0.256068,0.273861 -0.470819,0.468396 -0.38171,0.345775 -0.952776,0.807459 -0.978839,0.791354 -0.0067,-0.0042 -0.14804,-0.279795 -0.314057,-0.612545 -0.500865,-1.003889 -0.6546,-1.226217 -0.84789,-1.226217 -0.0875,0 -0.138358,0.03544 -0.216132,0.150618 -0.18879,0.27958 -0.359252,0.842469 -0.480708,1.587356 -0.02274,0.13947 -0.07301,0.508818 -0.1117,0.820772 -0.03869,0.311948 -0.07409,0.573229 -0.07865,0.580616 -0.01312,0.0212 -0.445534,0.233917 -0.902055,0.443678 -0.82363,0.37845 -1.157772,0.527572 -1.16529,0.520051 -0.0042,-0.0042 -0.0027,-0.153257 0.0034,-0.331241 0.03409,-1.001465 -0.09665,-1.854468 -0.397729,-2.5948 -0.169655,-0.417181 -0.294157,-0.611004 -0.454423,-0.707446 -0.04445,-0.02674 -0.06902,-0.03147 -0.163479,-0.03126 -0.1024768,1.98e-4 -0.1183215,0.004 -0.202714,0.04822 -0.1270011,0.06659 -0.2227305,0.146191 -0.3463276,0.287979 -0.3449616,0.395729 -0.6947902,1.015767 -1.1605193,2.056917 -0.2559389,0.57216 -0.4542324,1.092785 -0.6575171,1.726339 l -0.1007127,0.313881 -0.064128,0.0014 c -0.035271,7.05e-4 -0.087669,-0.0011 -0.116441,-0.0036 z M 22.397994,4.135963 C 22.372206,4.1017788 22.323483,4.0297028 22.289754,3.975756 22.076107,3.6340661 21.964237,3.4960136 21.71655,3.2684155 21.548538,3.1140293 21.321983,2.948252 21.254042,2.9299851 c -0.0487,-0.013088 -0.505811,-0.040548 -0.681847,-0.040947 -0.108304,-2.469e-4 -0.522025,0.023424 -0.614681,0.035172 -0.185373,0.023495 -0.469732,0.080384 -0.693151,0.1386628 -0.140265,0.03659 -0.278568,0.069395 -0.30734,0.072901 l -0.05231,0.00635 0.09155,0.029245 c 0.964332,0.314699 1.932509,0.6203703 2.896846,0.9289979 0.02516,0.010019 0.100657,0.024483 0.167734,0.032173 0.123669,0.014146 0.303031,0.048017 0.314338,0.059323 0.0035,0.00353 0.0205,0.00617 0.03796,0.00617 0.0315,0 0.0314,-3.351e-4 -0.01513,-0.062121 z M 13.621069,3.4986206 c 0.269531,-0.014852 0.59717,-0.077534 0.869708,-0.1663594 0.06833,-0.022296 0.139731,-0.041254 0.158659,-0.042185 0.08086,-0.00399 0.136012,-0.1072762 0.13045,-0.2443339 C 14.77911,3.0269743 14.694017,2.8651164 14.59076,2.6860887 14.364469,2.2937399 13.755945,1.2836771 13.643879,1.1144002 l -0.0804,-0.1214437 -0.01427,0.056053 c -0.0078,0.030833 -0.02543,0.094305 -0.03908,0.1410617 -0.02446,0.083816 -0.05819,0.2582157 -0.151758,0.7847012 -0.08783,0.4941676 -0.234657,1.2936361 -0.251878,1.371413 -0.01113,0.050281 0.0023,0.1256489 0.02493,0.1396189 0.01535,0.00949 0.279946,0.029563 0.319627,0.024271 0.01439,-0.00212 0.09089,-0.00706 0.170018,-0.01143 z m 3.762834,-0.9293507 c 0.581716,-0.293564 1.161591,-0.7236319 1.6911,-1.2542238 0.220013,-0.2204614 0.3463,-0.367351 0.3463,-0.4028016 0,-0.027305 -0.187926,-0.2081177 -0.314116,-0.3022036 C 18.970063,0.5078024 18.787186,0.4054404 18.571212,0.3100317 18.484459,0.2717057 18.289791,0.209998 18.191941,0.1898085 c -0.05395,-0.011148 -0.106915,-0.023636 -0.117705,-0.027728 -0.03022,-0.011571 -0.143861,-0.013441 -0.143861,-0.00247 0,0.0054 -0.0231,0.047569 -0.05134,0.093701 -0.146589,0.2394973 -0.317914,0.6052609 -0.432626,0.9236146 -0.08199,0.2275311 -0.218058,0.7085612 -0.299664,1.0593458 -0.02259,0.097106 -0.04973,0.2093136 -0.06031,0.2493433 -0.01058,0.040037 -0.01923,0.099928 -0.01923,0.133096 0,0.1001571 0.02916,0.095599 0.316697,-0.049509 z"
     id="path44"
     sodipodi:nodetypes="csscssscscscccsssscccccsssssssscsscssssscscccccccccscssssccsssscsscssscssssssscsssssscssscssccscccscsssssssssssssssscsssssssssssssssssssscscsscccssscccccsscscscccscssccscccsscssssccsscssssccscsssscc"
     inkscape:label="goblin" /><path
     style="fill:url(#radialGradient2)"
     d="M 7.3730112,20.288118 C 7.2183672,20.2748 6.7178265,20.213103 6.5305679,20.184279 6.197929,20.133077 5.5293804,20.005477 5.5141968,19.990293 c -0.00274,-0.0027 0.014089,-0.106765 0.037396,-0.23117 0.023307,-0.124405 0.042376,-0.237945 0.042375,-0.252313 -2e-7,-0.01437 0.014113,-0.131917 0.031363,-0.261222 0.04511,-0.338147 0.059304,-0.71283 0.043004,-1.135199 -0.013113,-0.339785 -0.01923,-0.408985 -0.057256,-0.647647 -0.00973,-0.06106 -0.017999,-0.123584 -0.018379,-0.138942 -0.00195,-0.07872 -0.059918,-0.343496 -0.1011389,-0.46192 -0.1240556,-0.356402 -0.2666557,-0.541664 -0.4630243,-0.601546 -0.1712064,-0.05221 -0.2822953,-0.05651 -0.4571398,-0.0177 -0.053877,0.01196 -0.1097135,0.02267 -0.1240808,0.02381 -0.014367,0.0011 -0.058448,0.01292 -0.097958,0.02618 -0.071023,0.02384 -0.1803689,0.07285 -0.5093843,0.228329 -0.1893289,0.08947 -0.404692,0.238841 -0.669862,0.464602 -0.084671,0.07209 -0.1728336,0.144684 -0.195917,0.161325 -0.1451436,0.104638 -0.7408388,0.69706 -0.8035397,0.799125 -0.011033,0.01796 -0.038151,0.05029 -0.060262,0.07184 -0.022112,0.02155 -0.092379,0.0992 -0.15615,0.172548 C 1.8450251,18.316018 1.8333529,18.325403 1.7531275,18.3521 1.6505423,18.38624 1.5335106,18.38056 1.448764,18.33732 1.400846,18.31287 1.2058827,18.176412 1.1885635,18.155196 c -0.00359,-0.0044 -0.027102,-0.02207 -0.052245,-0.03927 C 0.91657782,17.965594 0.42259369,17.56036 0.12734577,17.288226 L 0,17.170843 V 8.5854213 0 L 9.9362591,8.7594562e-4 19.872518,0.00175189 19.650479,0.10952446 C 19.322281,0.26882379 18.935121,0.47704632 18.801505,0.56611981 18.372226,0.85229373 17.75644,1.3353003 17.390902,1.6725612 c -0.234057,0.2159512 -0.590717,0.586948 -0.734281,0.7637972 -0.02312,0.028484 -0.09557,0.1164411 -0.160994,0.195461 -0.146536,0.1769886 -0.154793,0.1879442 -0.205499,0.2726644 -0.01237,0.02066 -0.03798,0.055033 -0.05692,0.076385 -0.01894,0.021352 -0.05101,0.072039 -0.07127,0.1126392 -0.02026,0.0406 -0.04096,0.07677 -0.046,0.080379 -0.005,0.00361 -0.01329,0.028588 -0.01834,0.05551 -0.0076,0.04075 -0.0055,0.048949 0.01272,0.048949 0.03871,0 0.05454,-0.010846 0.273627,-0.1874626 0.02805,-0.022609 0.101515,-0.084096 0.163264,-0.1366367 0.06175,-0.052541 0.129904,-0.1101865 0.151455,-0.1281008 0.256786,-0.2134548 0.320273,-0.2649584 0.360703,-0.29262 0.02598,-0.017775 0.08182,-0.055828 0.124081,-0.084562 0.04227,-0.028735 0.08272,-0.058325 0.08991,-0.065758 0.03705,-0.03833 0.563971,-0.3667294 0.698771,-0.4355019 0.01796,-0.00916 0.08555,-0.04554 0.150203,-0.08084 0.205591,-0.1122502 0.534312,-0.2688821 0.757546,-0.3609629 0.218852,-0.090273 0.854624,-0.2988882 1.110196,-0.3642874 0.163786,-0.041912 0.294016,-0.07876 0.336038,-0.095081 0.0196,-0.00761 0.07543,-0.02048 0.124081,-0.028596 0.04865,-0.00812 0.117837,-0.0226 0.153755,-0.0321857 0.03592,-0.009586 0.109387,-0.0240767 0.163264,-0.0322022 0.05388,-0.008126 0.112652,-0.020278 0.130611,-0.0270054 0.01796,-0.006727 0.109061,-0.0211866 0.202448,-0.0321315 0.09339,-0.0109449 0.199182,-0.0254692 0.2351,-0.0322761 0.19251,-0.0364832 1.120069,-0.027006 1.289955,0.0131799 0.03044,0.0072 0.114117,0.0216953 0.185954,0.0322116 0.267434,0.0391508 0.379606,0.0589248 0.409573,0.0722008 0.01694,0.007505 0.08982,0.0250857 0.161949,0.0390685 0.07213,0.013983 0.155251,0.034007 0.184709,0.044499 0.07194,0.025623 0.363679,0.1167697 0.380088,0.1187505 0.0072,8.672e-4 0.03657,0.011768 0.0653,0.024224 0.02874,0.012456 0.064,0.027646 0.07837,0.033754 0.01437,0.00611 0.05845,0.025839 0.09796,0.043845 0.03951,0.018006 0.115917,0.051757 0.169794,0.075002 0.10934,0.047174 0.335497,0.1641502 0.365712,0.1891591 0.01078,0.00892 0.03429,0.020658 0.05224,0.026088 0.01796,0.00543 0.04667,0.020819 0.0638,0.034198 0.01713,0.013379 0.03853,0.024326 0.04754,0.024326 0.009,0 0.05183,0.026087 0.09514,0.057971 0.04331,0.031884 0.101264,0.070158 0.128783,0.085053 0.02752,0.014895 0.07942,0.047747 0.11534,0.073005 0.152167,0.1070047 0.220885,0.1572597 0.23742,0.1736328 0.0097,0.00958 0.04334,0.03603 0.0748,0.058775 0.03147,0.022745 0.0887,0.066541 0.127186,0.097323 0.03849,0.030782 0.08365,0.066047 0.100364,0.078367 0.08922,0.065762 0.616672,0.5591551 0.696983,0.6519804 0.005,0.00573 0.05277,0.057435 0.106245,0.1149036 0.114846,0.1234139 0.17862,0.1968909 0.17862,0.2057953 0,0.00733 0.02493,0.036845 0.162654,0.1925694 0.054,0.061061 0.09827,0.1151606 0.09838,0.1202218 1.04e-4,0.00506 0.01341,0.023169 0.02958,0.040238 0.01616,0.01707 0.06171,0.07673 0.101224,0.1325787 0.03951,0.055848 0.08212,0.1126794 0.09469,0.1262912 0.01257,0.013612 0.02286,0.030136 0.02286,0.036721 0,0.00658 0.0044,0.013932 0.0098,0.016326 0.01499,0.00666 0.107755,0.1311198 0.107755,0.1445721 0,0.00652 0.0073,0.020022 0.01633,0.03001 0.01542,0.017149 0.05059,0.067851 0.185437,0.26732 0.03157,0.046693 0.100018,0.1554275 0.152116,0.241631 0.108341,0.1792676 0.210954,0.3409143 0.240059,0.3781643 0.01096,0.014032 0.01994,0.031976 0.01994,0.039875 0,0.0079 0.03233,0.065849 0.07184,0.1287766 0.03951,0.062928 0.07184,0.1185871 0.07184,0.1236867 0,0.0051 0.02094,0.041071 0.04654,0.079936 0.0256,0.038865 0.05503,0.08869 0.06541,0.1107218 0.01038,0.022032 0.03605,0.069446 0.05704,0.1053639 0.02099,0.035918 0.04445,0.08 0.05213,0.097958 0.0077,0.017959 0.01992,0.041469 0.0272,0.052245 0.0073,0.010775 0.02517,0.043102 0.03975,0.071836 0.01458,0.028734 0.04063,0.075755 0.05788,0.1044892 0.09898,0.164874 0.174847,0.3526768 0.261845,0.6482192 0.0473,0.1607005 0.102694,0.3450803 0.123087,0.409733 0.03982,0.1262266 0.06613,0.2805458 0.0991,0.5812206 0.01142,0.1041626 0.03053,0.2393454 0.04246,0.3004062 0.02304,0.1179018 0.0319,0.6341697 0.01175,0.6847002 -0.0095,0.023796 -0.01118,0.023454 -0.03229,-0.00653 -0.02272,-0.032266 -0.06958,-0.115638 -0.124241,-0.2210297 -0.04536,-0.087463 -0.06496,-0.1179023 -0.09746,-0.1513918 -0.01616,-0.016652 -0.02939,-0.03931 -0.02939,-0.050351 0,-0.011041 -0.01224,-0.027471 -0.02721,-0.036512 -0.01496,-0.00904 -0.03796,-0.037008 -0.05109,-0.062151 -0.01313,-0.025143 -0.04107,-0.063347 -0.06208,-0.084897 -0.02101,-0.021551 -0.04357,-0.048981 -0.05013,-0.060956 -0.02493,-0.045479 -0.361,-0.3765921 -0.382225,-0.3765921 -0.0072,0 -0.02468,-0.014694 -0.0388,-0.032653 -0.01413,-0.017959 -0.02969,-0.032653 -0.03459,-0.032653 -0.0049,0 -0.04226,-0.025186 -0.08302,-0.05597 -0.142308,-0.1074752 -0.396601,-0.2645821 -0.492065,-0.3040068 -0.02874,-0.011867 -0.113087,-0.050778 -0.187451,-0.08647 -0.07436,-0.035692 -0.177219,-0.078871 -0.228569,-0.095953 -0.05135,-0.017082 -0.134507,-0.04635 -0.184793,-0.065038 -0.181269,-0.067368 -0.637093,-0.1767887 -0.817342,-0.1962028 -0.0257,-0.00277 -0.07566,-0.011599 -0.11102,-0.019624 -0.09959,-0.022603 -0.204066,-0.029625 -0.416935,-0.028026 -0.187567,0.00141 -0.320823,0.00963 -0.356041,0.021955 -0.009,0.00317 -0.04554,2.428e-4 -0.08109,-0.0065 -0.0987,-0.018718 -0.955981,0.036403 -1.315624,0.084591 -0.200322,0.026841 -0.328075,0.041947 -0.500291,0.059157 -0.08261,0.00826 -0.248932,0.035014 -0.369601,0.059464 -0.120669,0.02445 -0.223526,0.043299 -0.22857,0.041887 -0.005,-0.00141 -0.021,0.00402 -0.03546,0.012069 -0.01446,0.00805 -0.07323,0.026443 -0.130611,0.040875 -0.05738,0.014432 -0.148407,0.038878 -0.202285,0.054325 -0.05388,0.015447 -0.110847,0.030074 -0.126599,0.032504 -0.01575,0.00243 -0.03483,0.00824 -0.0424,0.012922 -0.0076,0.00468 -0.02631,0.010921 -0.04166,0.013877 C 22.12161,6.958338 22.08614,6.972694 22.05814,6.98729 21.95835,7.039304 21.96777,7.045779 21.596612,6.6700149 21.31086,6.3807338 20.929108,6.0122807 20.805632,5.9066077 20.78809,5.8915945 20.709391,5.8171923 20.630747,5.7412697 20.552103,5.665347 20.484339,5.6032284 20.48016,5.6032284 c -0.01199,0 -0.578887,-0.5769364 -0.608007,-0.6187714 -0.03216,-0.046201 -0.09152,-0.051164 -0.124523,-0.01041 -0.02076,0.025633 -0.05636,0.2057492 -0.04448,0.2249823 0.003,0.00493 0.01772,0.1111102 0.03261,0.2359652 0.01489,0.124855 0.03248,0.2446417 0.03908,0.2661926 0.01017,0.033178 0.0602,0.3224013 0.07005,0.4048952 0.0017,0.014367 0.0093,0.049632 0.01679,0.078367 0.0327,0.1249577 0.0438,0.1929054 0.05759,0.3526507 0.01487,0.1722116 0.02909,0.258752 0.07727,0.470201 0.02846,0.1249142 0.03055,0.1326991 0.04375,0.1632642 0.0073,0.016926 0.01685,0.057832 0.04114,0.1763254 0.0029,0.014367 0.01442,0.058449 0.0255,0.097958 0.01108,0.03951 0.02398,0.1202677 0.02866,0.1794617 l 0.0085,0.1076253 -0.07412,0.032782 c -0.04077,0.01803 -0.08278,0.032782 -0.09334,0.032782 -0.01057,0 -0.01922,0.00454 -0.01922,0.010091 0,0.011119 -0.0097,0.016188 -0.254693,0.1336357 -0.09339,0.044762 -0.199182,0.096302 -0.2351,0.1145335 -0.128494,0.065221 -0.367739,0.1902307 -0.483262,0.2525134 -0.06465,0.034856 -0.127836,0.067121 -0.140407,0.0717 -0.01257,0.00458 -0.02286,0.013591 -0.02286,0.020027 0,0.00644 -0.03157,0.025666 -0.07016,0.042732 -0.03859,0.017067 -0.0742,0.037564 -0.07914,0.045549 -0.01861,0.030103 -0.0553,0.011835 -0.122041,-0.060752 -0.138037,-0.1501329 -0.255813,-0.284256 -0.317501,-0.361571 -0.0347,-0.04349 -0.07816,-0.096705 -0.09658,-0.118256 -0.01842,-0.021551 -0.05834,-0.069138 -0.08872,-0.1057491 -0.0537,-0.06471 -0.17196,-0.1987144 -0.495335,-0.5612613 C 17.506325,7.2299163 17.44282,7.1538957 17.410494,7.1117578 17.360546,7.04665 17.077241,6.7576641 16.892855,6.5837406 16.829544,6.5240211 16.774382,6.4935128 16.688944,6.4709621 16.585089,6.4435508 16.56417,6.4596591 16.553,6.5756436 c -0.0058,0.060435 -0.0058,0.064432 0.0012,0.1704344 0.0029,0.043102 0.0082,0.087183 0.01177,0.097959 0.0055,0.016289 0.03878,0.2312679 0.05463,0.3526507 0.0077,0.058941 0.05643,0.3064866 0.06436,0.3269541 0.0043,0.01101 0.01894,0.08154 0.0326,0.1567337 0.03138,0.1726667 0.08427,0.421172 0.116553,0.5475977 0.01368,0.053578 0.02214,0.1045467 0.01879,0.1132644 -0.0033,0.00872 2.05e-4,0.027598 0.0079,0.041956 0.0077,0.014359 0.02316,0.089756 0.03438,0.1675502 0.01122,0.077794 0.02592,0.1590764 0.03266,0.1806273 0.01078,0.03446 0.05628,0.2559896 0.0711,0.3461201 0.003,0.017959 0.01509,0.064979 0.02698,0.1044892 0.02891,0.096087 0.06993,0.2859332 0.07056,0.3265284 3.89e-4,0.025229 -0.02046,0.048985 -0.0917,0.1044891 -0.05071,0.03951 -0.102231,0.080653 -0.114492,0.091428 -0.01226,0.010775 -0.03983,0.030638 -0.06126,0.044139 -0.02143,0.013501 -0.05481,0.039276 -0.07418,0.057278 -0.01937,0.018002 -0.07338,0.059853 -0.120026,0.093003 -0.116389,0.082711 -0.384281,0.2877931 -0.425145,0.3254651 -0.01842,0.01698 -0.05994,0.05576 -0.09226,0.08619 -0.03233,0.03042 -0.06844,0.06079 -0.08025,0.06748 -0.04943,0.02798 -0.291361,0.249745 -0.529789,0.485625 -0.06717,0.06645 -0.126829,0.120815 -0.132584,0.120815 -0.0058,0 -0.09889,-0.110203 -0.206973,-0.244896 -0.551379,-0.687144 -1.165618,-1.3479214 -1.321944,-1.4221031 -0.05851,-0.027763 -0.08235,-0.012571 -0.09701,0.061808 -0.0062,0.031595 -0.01563,0.060385 -0.0209,0.063977 -0.0053,0.00359 -0.02048,0.03151 -0.03379,0.06204 -0.01331,0.03053 -0.02895,0.05551 -0.03476,0.05551 -0.0058,0 -0.01055,0.00833 -0.01055,0.018503 0,0.010177 -0.0071,0.020861 -0.01572,0.023743 -0.01222,0.00407 -0.01233,0.044748 -4.82e-4,0.1827771 0.0231,0.269169 0.09283,0.546822 0.206623,0.82273 0.03176,0.077 0.05774,0.142368 0.05774,0.145258 0,0.01542 0.142618,0.260364 0.205211,0.352454 0.278536,0.409796 0.59984,0.667153 1.270697,1.017794 0.184947,0.09667 0.367915,0.168185 0.526856,0.205933 0.324416,0.07705 0.820899,0.113776 1.243024,0.09195 0.504807,-0.0261 0.763525,-0.109496 1.004543,-0.323817 0.06262,-0.05568 0.06485,-0.05651 0.08853,-0.03283 0.04329,0.04329 0.06692,0.290933 0.05825,0.610588 -0.01743,0.642751 -0.158912,1.109614 -0.549845,1.814383 -0.152347,0.27465 -0.405618,0.673764 -0.427559,0.673764 -0.006,0 -0.0946,-0.06638 -0.196932,-0.147499 -0.522295,-0.414051 -0.736096,-0.545358 -0.89381,-0.548941 -0.107653,-0.0024 -0.153583,0.02029 -0.189391,0.09374 -0.04032,0.08272 -0.03772,0.216565 0.0072,0.368717 0.0391,0.1325 0.169745,0.415037 0.334665,0.723775 0.06523,0.122122 0.134367,0.252969 0.153628,0.290771 l 0.03502,0.06873 -0.104023,0.105452 c -0.234742,0.237966 -0.639078,0.594729 -1.005242,0.886969 -0.129305,0.103199 -0.258484,0.206298 -0.287064,0.229107 l -0.05196,0.04147 -0.314303,-0.628394 c -0.328874,-0.657529 -0.432851,-0.844779 -0.569814,-1.026174 -0.244183,-0.323395 -0.4306,-0.267079 -0.625183,0.188867 -0.175497,0.411223 -0.301038,0.932784 -0.40397,1.67829 -0.02691,0.194884 -0.131359,1.036632 -0.131359,1.058589 0,0.01486 -0.43263,0.232629 -0.783668,0.394469 -0.675154,0.311268 -1.284095,0.584731 -1.289664,0.579161 -0.0034,-0.0034 -1.42e-4,-0.154944 0.0072,-0.336758 0.03971,-0.977273 -0.0971,-1.84759 -0.412303,-2.622801 -0.207027,-0.509168 -0.378593,-0.710565 -0.6040391,-0.709068 -0.1462019,9.7e-4 -0.2853198,0.0782 -0.4640481,0.257624 -0.2834526,0.28455 -0.5663574,0.72437 -0.8994753,1.398376 -0.4097715,0.829101 -0.7557035,1.683674 -1.0124923,2.501208 -0.03723,0.11853 -0.073995,0.231672 -0.0817,0.251427 -0.014865,0.03811 -0.020782,0.03911 -0.1610421,0.02703 z"
     id="path1"
     inkscape:label="goblin" /></svg>
