<?xml version="1.0" encoding="UTF-8" standalone="no"?>
<!-- Created with Inkscape (http://www.inkscape.org/) -->

<svg
   width="32.103687mm"
   height="21.543291mm"
   viewBox="0 0 32.103687 21.543293"
   version="1.1"
   id="svg1"
   inkscape:version="1.4.2 (ebf0e94, 2025-05-08)"
   sodipodi:docname="kobold.svg"
   xml:space="preserve"
   xmlns:inkscape="http://www.inkscape.org/namespaces/inkscape"
   xmlns:sodipodi="http://sodipodi.sourceforge.net/DTD/sodipodi-0.dtd"
   xmlns:xlink="http://www.w3.org/1999/xlink"
   xmlns="http://www.w3.org/2000/svg"
   xmlns:svg="http://www.w3.org/2000/svg"><sodipodi:namedview
     id="namedview1"
     pagecolor="#505050"
     bordercolor="#eeeeee"
     borderopacity="1"
     inkscape:showpageshadow="0"
     inkscape:pageopacity="0"
     inkscape:pagecheckerboard="0"
     inkscape:deskcolor="#d1d1d1"
     inkscape:document-units="mm"
     inkscape:zoom="9.1936027"
     inkscape:cx="40.299762"
     inkscape:cy="43.290972"
     inkscape:window-width="2560"
     inkscape:window-height="1440"
     inkscape:window-x="0"
     inkscape:window-y="0"
     inkscape:window-maximized="1"
     inkscape:current-layer="svg1"
     showguides="true" /><defs
     id="defs1"><linearGradient
       id="linearGradient2"
       inkscape:collect="always"><stop
         style="stop-color:#ff6d05;stop-opacity:1;"
         offset="0.29905617"
         id="stop3" /><stop
         style="stop-color:#922e12;stop-opacity:1;"
         offset="1"
         id="stop4" /></linearGradient><radialGradient
       inkscape:collect="always"
       xlink:href="#linearGradient2"
       id="radialGradient4"
       cx="6.243155"
       cy="6.751524"
       fx="6.243155"
       fy="6.751524"
       r="16.051844"
       gradientTransform="matrix(1.3585765,0,0,0.69973968,-2.4162973,3.0543136)"
       gradientUnits="userSpaceOnUse" /></defs><path
     style="display:inline;fill:url(#radialGradient4)"
     d="M 2.2567782e-4,10.771646 0,0 h 7.6767421 c 4.2222079,0 7.6767419,0.00352508 7.6767419,0.00783351 0,0.00430843 -0.04458,0.06793662 -0.09908,0.14139597 C 14.632753,0.987253 14.053097,2.126413 13.722081,3.160605 13.366374,4.2719407 13.29886,5.3231079 13.528853,6.1690584 c 0.20049,0.7374305 0.555581,1.3558579 1.084621,1.8889756 0.313759,0.316178 0.545473,0.4960549 0.912069,0.7080283 0.829536,0.4796553 1.977888,0.7745333 3.043874,0.7816169 l 0.276639,0.00184 0.110656,-0.051751 c 0.154403,-0.072211 0.230383,-0.1500302 0.285367,-0.2922733 0.09265,-0.239691 0.141537,-0.4169781 0.247994,-0.8993953 0.08858,-0.4014222 0.112136,-0.4979864 0.151886,-0.6227249 0.06251,-0.1961467 0.131152,-0.3307898 0.197688,-0.3877415 0.04955,-0.042416 0.06452,-0.047679 0.135575,-0.047679 0.191328,0 0.403235,0.1282546 0.800393,0.4844313 0.242977,0.2179041 0.466757,0.4115734 0.567111,0.4908023 0.05706,0.045046 0.113076,0.091039 0.124488,0.1022059 0.0376,0.036798 0.224624,0.1537361 0.324134,0.2026702 0.176074,0.086584 0.459396,0.097292 0.588776,0.022252 0.126339,-0.073276 0.272753,-0.1942424 0.315221,-0.2604337 0.108594,-0.169254 0.24017,-0.5073959 0.367945,-0.9455975 0.07435,-0.2549828 0.121346,-0.3674323 0.158484,-0.3792194 0.05723,-0.018165 0.193442,0.053457 0.382479,0.2011174 0.101945,0.079631 0.158387,0.1039231 0.318317,0.1370024 0.35717,0.073875 0.673308,0.030412 0.914255,-0.1256937 0.16752,-0.1085336 0.494345,-0.546704 0.724651,-0.9715315 0.06467,-0.1192815 0.182928,-0.3306939 0.262808,-0.4698054 0.103402,-0.1800767 0.176631,-0.3304542 0.254234,-0.5220766 0.05995,-0.1480307 0.180148,-0.4185319 0.267109,-0.6011139 0.204578,-0.4295294 0.212758,-0.4454133 0.250885,-0.4871888 0.01772,-0.019416 0.104237,-0.1418186 0.19226,-0.272007 0.194102,-0.2870829 0.29127,-0.4170381 0.440711,-0.5894212 0.126981,-0.1464749 0.349553,-0.3662371 0.4552,-0.4494532 0.03804,-0.029962 0.07227,-0.058552 0.07608,-0.063533 0.01436,-0.018807 0.329855,-0.2198075 0.442623,-0.2819932 0.305696,-0.1685749 0.81408,-0.3009397 1.161885,-0.3025129 0.30881,-0.0014 0.685116,0.1090939 1.037398,0.3045996 0.05706,0.031665 0.166233,0.0824 0.242613,0.1127457 0.206198,0.081921 0.302647,0.1439495 0.442669,0.2846926 0.136934,0.1376399 0.341946,0.4004683 0.445978,0.5717511 0.126636,0.2084969 0.249342,0.5718892 0.316263,0.9366067 0.0196,0.1068199 0.05274,0.2377888 0.07365,0.2910419 0.07401,0.188504 0.180488,0.541179 0.179841,0.5956569 -1.75e-4,0.01473 -0.06432,-0.097706 -0.142555,-0.2498577 -0.264333,-0.51411 -0.541073,-0.9049429 -0.8433,-1.1909699 C 30.799113,3.521491 30.501245,3.399412 30.190181,3.4429329 c -0.203053,0.028409 -0.358482,0.1141074 -0.518944,0.2861287 -0.231015,0.2476569 -0.382311,0.6638974 -0.478901,1.3175342 -0.01764,0.1193532 -0.06214,0.628243 -0.06219,0.7111181 -1.2e-5,0.018973 -0.02066,0.00937 -0.09338,-0.043436 C 28.837816,5.5698124 28.569716,5.4215285 28.323392,5.3197162 28.046665,5.2053373 27.747793,5.1477764 27.56356,5.1733772 27.344849,5.2037692 27.19102,5.3294105 27.072708,5.5742867 27.037788,5.6465587 26.979688,5.764822 26.94359,5.8370941 26.812236,6.1000918 26.73251,6.3525836 26.559248,7.0543074 26.459608,7.4578657 26.281998,8.1365606 26.273918,8.14464 26.270818,8.14779 26.185438,8.089 26.084282,8.0140011 25.712309,7.7382073 25.454207,7.5803385 25.286003,7.5257322 c -0.04881,-0.015847 -0.09078,-0.026783 -0.09326,-0.024302 -0.0025,0.00248 0.03746,0.021624 0.08875,0.042542 0.196631,0.080188 0.374824,0.2128211 0.494298,0.3679179 0.117269,0.1522354 0.245434,0.4537435 0.309578,0.7282806 l 0.02958,0.12659 -0.04777,0.1777133 c -0.05758,0.2142077 -0.121383,0.4024273 -0.205577,0.6065045 -0.09435,0.2287016 -0.206956,0.5411115 -0.335929,0.9320185 -0.108042,0.327469 -0.128456,0.3757 -0.303609,0.717316 -0.245057,0.477957 -0.628848,1.168176 -0.628787,1.130824 1.3e-5,-0.0076 -0.01581,-0.138252 -0.03517,-0.290404 C 24.500147,11.585162 24.366597,11.001105 24.238651,10.6437 24.110662,10.286177 23.901087,9.9078274 23.686085,9.6461441 23.582336,9.5198683 23.294012,9.2341664 23.282223,9.245955 c -0.0026,0.00262 0.01979,0.053653 0.0498,0.113399 0.07872,0.1567045 0.225398,0.5227317 0.292013,0.728712 0.18074,0.558869 0.25612,1.197166 0.222832,1.88689 -0.02698,0.55893 -0.0807,0.955746 -0.218763,1.615805 l -0.05225,0.249826 -0.130169,0.165133 c -0.424198,0.538141 -0.957144,1.128474 -1.621786,1.796419 -0.287174,0.288601 -0.526055,0.520808 -0.530846,0.516016 -0.0048,-0.0048 0.0014,-0.09465 0.01372,-0.199677 0.01234,-0.105031 0.02834,-0.30292 0.03557,-0.439753 0.02823,-0.534417 -0.0457,-1.281872 -0.175051,-1.76995 -0.02632,-0.0993 -0.05122,-0.197662 -0.05535,-0.218583 -0.01326,-0.06729 -0.02742,-0.04096 -0.04464,0.08299 -0.03624,0.260818 -0.203141,0.892333 -0.318947,1.206839 -0.125952,0.342058 -0.199291,0.537604 -0.215287,0.574027 -0.01002,0.02282 -0.05665,0.134861 -0.103616,0.248975 -0.293327,0.712701 -0.665151,1.314735 -1.232814,1.996097 -0.214468,0.257424 -0.892159,0.876992 -1.076751,0.984404 -0.512294,0.298095 -1.361241,0.625098 -2.065456,0.795588 -0.256488,0.0621 -0.313689,0.07156 -0.313591,0.05191 2.8e-5,-0.0057 0.02827,-0.106852 0.06277,-0.22477 0.05588,-0.191017 0.186056,-0.723232 0.22668,-0.926742 0.14014,-0.702033 0.21766,-1.270703 0.297917,-2.185451 0.06093,-0.694495 0.07321,-1.849963 0.02733,-2.572746 -0.03716,-0.585525 -0.11949,-1.398839 -0.165215,-1.632173 -0.01118,-0.05706 -0.04518,-0.250013 -0.07555,-0.428791 -0.05485,-0.322833 -0.16807,-0.895681 -0.192738,-0.975154 -0.01184,-0.03814 -0.0132,-0.03534 -0.01687,0.03458 -0.01187,0.226599 1.28e-4,0.302419 0.102922,0.650103 0.0938,0.317258 0.145736,0.568789 0.194607,0.942483 0.05212,0.398568 0.06166,0.946896 0.02222,1.277548 -0.04468,0.374576 -0.05429,0.471818 -0.06219,0.629355 -0.05577,1.112321 -0.416566,2.271111 -1.056261,3.392439 -0.157887,0.27676 -0.36224,0.602566 -0.513947,0.819395 -0.05855,0.08368 -0.256081,0.36765 -0.438958,0.631036 -0.182878,0.263386 -0.361168,0.518275 -0.3962,0.56642 -0.03503,0.04815 -0.0637,0.09415 -0.0637,0.102237 0,0.01447 -0.01792,0.026 -0.10742,0.06918 -0.07353,0.03547 -0.599354,0.04564 -0.80549,0.01557 -0.359618,-0.05245 -0.997632,-0.201792 -1.400573,-0.327845 -0.270512,-0.08462 -0.51041,-0.183 -0.968679,-0.397227 C 9.9673257,18.882845 9.7724505,18.781507 9.3780741,18.553087 8.9955378,18.331525 8.7242221,18.179827 8.5965679,18.116132 8.4461219,18.041064 8.0655072,17.88086 7.8213344,17.789829 7.6995711,17.744434 7.5223028,17.672933 7.427405,17.630937 7.1222594,17.495898 6.769822,17.380992 6.2348908,17.242139 5.4634688,17.041899 4.9566922,16.979057 4.3822061,17.012398 3.7180528,17.050943 3.2436736,17.217501 2.8078894,17.565151 2.7356174,17.622807 2.6298029,17.703452 2.572746,17.744362 2.0982977,18.084546 1.6951415,18.537653 1.1802125,19.309429 0.66625482,20.07975 0.36619187,20.632327 0.09485836,21.308149 L 4.5135564e-4,21.543292 Z M 21.121943,13.32408 c 0.0216,-0.379986 -0.01795,-0.909712 -0.09842,-1.317931 -0.149376,-0.757792 -0.35606,-1.334168 -0.564225,-1.573445 -0.08062,-0.09267 -0.191679,-0.164347 -0.274997,-0.177483 -0.0505,-0.008 -0.05879,-0.0058 -0.05879,0.0152 0,0.01346 0.04011,0.1154 0.08913,0.226537 0.30404,0.689267 0.572096,1.483878 0.686425,2.034804 0.07878,0.379635 0.123556,0.625236 0.153016,0.839352 0.01832,0.133147 0.03734,0.229366 0.04326,0.218798 0.0058,-0.01037 0.01688,-0.130001 0.0246,-0.265834 z"
     id="path2"
     inkscape:label="kobold" /></svg>
