<?xml version="1.0" encoding="UTF-8" standalone="no"?>
<!-- Created with Inkscape (http://www.inkscape.org/) -->

<svg
   width="33.207775mm"
   height="23.849182mm"
   viewBox="0 0 33.207775 23.849183"
   version="1.1"
   id="svg1"
   inkscape:version="1.4.2 (ebf0e94, 2025-05-08)"
   sodipodi:docname="naga.svg"
   xmlns:inkscape="http://www.inkscape.org/namespaces/inkscape"
   xmlns:sodipodi="http://sodipodi.sourceforge.net/DTD/sodipodi-0.dtd"
   xmlns:xlink="http://www.w3.org/1999/xlink"
   xmlns="http://www.w3.org/2000/svg"
   xmlns:svg="http://www.w3.org/2000/svg">
  <sodipodi:namedview
     id="namedview1"
     pagecolor="#505050"
     bordercolor="#eeeeee"
     borderopacity="1"
     inkscape:showpageshadow="0"
     inkscape:pageopacity="0"
     inkscape:pagecheckerboard="0"
     inkscape:deskcolor="#d1d1d1"
     inkscape:document-units="mm"
     inkscape:zoom="9.1936027"
     inkscape:cx="38.069951"
     inkscape:cy="60.368065"
     inkscape:window-width="2560"
     inkscape:window-height="1440"
     inkscape:window-x="0"
     inkscape:window-y="0"
     inkscape:window-maximized="1"
     inkscape:current-layer="svg1" />
  <defs
     id="defs1">
    <radialGradient
       inkscape:collect="always"
       xlink:href="#linearGradient54"
       id="radialGradient56"
       cx="418.24866"
       cy="767.01782"
       fx="418.24866"
       fy="767.01782"
       r="44.837948"
       gradientTransform="matrix(0.44174949,0,0,-0.26186472,-176.48575,209.3931)"
       gradientUnits="userSpaceOnUse" />
    <linearGradient
       id="linearGradient54"
       inkscape:collect="always">
      <stop
         style="stop-color:#34a9d6;stop-opacity:1;"
         offset="0.14828146"
         id="stop55" />
      <stop
         style="stop-color:#225570;stop-opacity:1;"
         offset="1"
         id="stop56" />
    </linearGradient>
  </defs>
  <path
     style="display:inline;fill:url(#radialGradient56);fill-opacity:1;stroke-width:0.352778"
     d="M 0,11.927451 V 0 h 7.0334751 c 6.8562039,0 7.0334749,7.0555e-4 7.0334749,0.0263878 0,0.0145344 -0.01538,0.10834863 -0.03415,0.20853046 -0.03655,0.19486386 -0.08094,0.55319433 -0.108437,0.87488534 -0.0297,0.3474932 0.0014,1.0632157 0.06615,1.5127287 0.02854,0.1989102 0.10988,0.5805311 0.149084,0.6996324 0.108073,0.3283726 0.31871,0.6728284 0.530437,0.8674382 0.243318,0.223647 0.446292,0.3107514 0.725854,0.3115134 0.18118,3.527e-4 0.280268,-0.024165 0.452402,-0.1126596 0.05054,-0.026 0.110307,-0.05098 0.132803,-0.055559 0.02618,-0.00533 0.07957,-0.048221 0.148442,-0.1192741 0.05915,-0.06102 0.152076,-0.150749 0.206506,-0.1993971 0.05443,-0.048652 0.150608,-0.1383383 0.21373,-0.1993124 0.06312,-0.060971 0.120414,-0.1108569 0.127321,-0.1108569 0.01693,0 0.924267,-0.9084415 0.924267,-0.9253713 0,-0.00734 0.07157,-0.087256 0.15905,-0.1775848 0.154704,-0.159759 0.279196,-0.299018 0.320972,-0.3590431 0.01129,-0.016228 0.03677,-0.04542 0.05659,-0.064862 0.01979,-0.019438 0.05476,-0.060381 0.0776,-0.090985 0.04412,-0.059076 0.22636,-0.2374335 0.252208,-0.2468386 0.0085,-0.00282 0.0404,-0.030374 0.07099,-0.060671 0.03062,-0.030304 0.07873,-0.066957 0.106945,-0.081481 0.02822,-0.014534 0.06999,-0.046059 0.09283,-0.070097 0.02286,-0.024024 0.04858,-0.043709 0.05721,-0.043709 0.0086,0 0.04054,-0.025435 0.07091,-0.05655 0.03037,-0.03108 0.06294,-0.05655 0.07238,-0.05655 0.0095,0 0.0193,-0.00533 0.02191,-0.011889 0.0063,-0.015946 0.14937,-0.1153477 0.165971,-0.1153477 0.0072,0 0.01524,-0.00497 0.01778,-0.011042 0.0074,-0.017427 0.267586,-0.1931388 0.325741,-0.2199746 0.02882,-0.0133 0.05623,-0.030374 0.06089,-0.037899 0.0047,-0.00755 0.04152,-0.029527 0.08189,-0.048825 0.04038,-0.019297 0.102044,-0.05219 0.137036,-0.073067 0.09108,-0.054342 0.277534,-0.1463922 0.296514,-0.1463922 0.0089,0 0.06611,-0.025718 0.127229,-0.057206 0.06112,-0.031468 0.151412,-0.069049 0.20066,-0.083513 0.08914,-0.026176 0.315228,-0.1036849 0.375832,-0.1288309 0.01746,-0.00727 0.04613,-0.019085 0.06362,-0.026317 0.0175,-0.00723 0.07634,-0.020567 0.130774,-0.029669 0.103089,-0.0172508 0.186518,-0.034925 0.388783,-0.0825429 0.06609,-0.0155575 0.148801,-0.0318911 0.183793,-0.0362902 0.035,-0.00441 0.09543,-0.0139347 0.134306,-0.0211314 0.03888,-0.007232 0.121582,-0.0226131 0.183787,-0.0340783 0.219809,-0.0406506 0.582172,-0.0584235 1.180493,-0.0578908 0.583784,3.4925e-4 0.936325,0.0210255 1.095668,0.0637646 0.05933,0.0159455 0.140758,0.0340783 0.247407,0.0552097 0.09404,0.0186267 0.162306,0.0361421 0.30396,0.0780168 0.06998,0.0207081 0.139965,0.0408164 0.155515,0.0447428 0.01556,0.00392 0.05372,0.018979 0.08483,0.033443 0.03108,0.014499 0.08708,0.036213 0.124404,0.048345 0.03732,0.0121 0.0914,0.033584 0.12017,0.047692 0.02879,0.014111 0.08094,0.03429 0.115934,0.044799 0.03499,0.010548 0.06966,0.024377 0.07705,0.030833 0.0074,0.00639 0.0273,0.011642 0.04422,0.011642 0.01693,0 0.0386,0.00942 0.04814,0.02092 0.01993,0.023989 0.09529,0.063916 0.120717,0.063916 0.0095,0 0.06065,0.02226 0.113788,0.049477 0.05314,0.027199 0.103293,0.049484 0.111443,0.049484 0.01947,0 0.76702,0.37414551 0.797284,0.39904811 0.01284,0.010583 0.04245,0.027446 0.06578,0.037479 0.09458,0.040696 0.335393,0.1685608 0.34628,0.1838608 0.0039,0.0055 0.04533,0.028258 0.09199,0.0505 0.04665,0.02226 0.100728,0.051407 0.12017,0.064819 0.04208,0.029034 0.131572,0.081626 0.245868,0.1444942 0.11926,0.065599 0.132684,0.07391 0.161604,0.1000831 0.01425,0.012912 0.03013,0.023495 0.03517,0.023495 0.01475,0 0.171863,0.1024749 0.177063,0.1154641 0.0025,0.00649 0.01273,0.011783 0.02258,0.011783 0.0098,0 0.02939,0.012735 0.04343,0.028293 0.01408,0.015557 0.03316,0.028293 0.04241,0.028293 0.0093,0 0.02833,0.012735 0.04242,0.028258 0.01407,0.015557 0.03312,0.028293 0.04241,0.028293 0.0093,0 0.02864,0.013017 0.04301,0.028928 0.01439,0.015946 0.04879,0.03956 0.07641,0.05255 0.02762,0.012982 0.06296,0.035588 0.0785,0.050214 0.01556,0.01464 0.06327,0.049075 0.106034,0.07656 0.04277,0.027481 0.08094,0.054236 0.08483,0.059436 0.0039,0.00519 0.03006,0.020144 0.05814,0.033232 0.02812,0.013053 0.05909,0.033408 0.06889,0.045209 0.0098,0.011818 0.02307,0.021484 0.02953,0.021484 0.01446,0 0.13685,0.081855 0.147052,0.098358 0.0041,0.00663 0.05356,0.035701 0.109933,0.064587 0.05638,0.028892 0.11255,0.06132 0.124823,0.072041 0.01228,0.010724 0.029,0.019473 0.03715,0.019473 0.0082,0 0.02265,0.00942 0.03214,0.020885 0.0095,0.011465 0.05325,0.038322 0.09716,0.059637 0.07087,0.034396 0.133015,0.068337 0.295861,0.1615475 0.02551,0.014605 0.05553,0.026529 0.06672,0.026529 0.01118,0 0.04254,0.012488 0.06967,0.027693 0.0354,0.019897 0.10825,0.033831 0.258441,0.049491 0.252191,0.026282 0.353808,0.043558 0.45653,0.077611 0.151561,0.050236 0.211064,0.060981 0.286188,0.051664 0.04088,-0.00508 0.104676,-0.013053 0.14177,-0.01778 0.0371,-0.00469 0.07087,-0.014111 0.07506,-0.020849 0.0042,-0.00677 0.02004,-0.012277 0.03524,-0.012277 0.01521,0 0.03868,-0.00593 0.05218,-0.013159 0.01351,-0.00723 0.08817,-0.033196 0.165929,-0.057789 0.07775,-0.024553 0.192271,-0.072513 0.254477,-0.1065566 0.0622,-0.034043 0.158192,-0.08454 0.2133,-0.1122045 0.05511,-0.027658 0.113379,-0.062583 0.129483,-0.07759 0.02748,-0.025576 0.157431,-0.1151784 0.218331,-0.1505021 0.0151,-0.00875 0.04484,-0.032561 0.06615,-0.053019 0.02131,-0.020391 0.04524,-0.037119 0.05318,-0.037119 0.0079,0 0.02939,-0.015946 0.04765,-0.035366 0.01824,-0.019438 0.0388,-0.035331 0.04564,-0.035331 0.0068,0 0.03277,-0.01905 0.05762,-0.042344 0.02484,-0.023319 0.0508,-0.042379 0.05766,-0.042415 0.0068,-3.52e-5 0.02279,-0.011218 0.03536,-0.024836 0.01259,-0.013617 0.05467,-0.05001 0.09355,-0.080811 0.03888,-0.030833 0.07387,-0.059782 0.07776,-0.064382 0.0039,-0.00459 0.02169,-0.018344 0.03961,-0.030586 0.01789,-0.012206 0.06667,-0.054801 0.108377,-0.094612 0.04171,-0.039807 0.08149,-0.072372 0.08839,-0.072372 0.0069,0 0.03415,-0.02226 0.06052,-0.049484 0.02635,-0.027234 0.0549,-0.049481 0.06339,-0.049481 0.0085,0 0.04676,-0.031785 0.08506,-0.070693 0.03829,-0.038876 0.07671,-0.070686 0.08536,-0.070686 0.0087,0 0.03069,-0.015945 0.04894,-0.035327 0.01824,-0.019438 0.03881,-0.035366 0.04565,-0.035366 0.0068,0 0.03277,-0.01905 0.05762,-0.042344 0.02484,-0.023319 0.05024,-0.042376 0.05643,-0.042415 0.0062,-3.18e-5 0.02713,-0.015981 0.04659,-0.035405 0.06258,-0.062583 0.08322,-0.042873 0.03119,0.02981 -0.02565,0.035846 -0.05355,0.077142 -0.06202,0.091793 -0.0085,0.014676 -0.02596,0.038329 -0.03888,0.052599 -0.01291,0.014252 -0.0235,0.032279 -0.0235,0.040047 0,0.00776 -0.01591,0.029034 -0.03533,0.047297 -0.01944,0.018239 -0.03533,0.040658 -0.03533,0.049756 0,0.00914 -0.01273,0.028081 -0.02829,0.042139 -0.01556,0.014076 -0.02829,0.03175 -0.02829,0.039359 0,0.00755 -0.02067,0.038005 -0.04595,0.067631 -0.02526,0.029633 -0.07139,0.08673 -0.102492,0.1269013 -0.104525,0.1349939 -0.176594,0.2176533 -0.332268,0.3810952 -0.08517,0.089422 -0.194698,0.2060751 -0.243399,0.2592246 -0.0487,0.053153 -0.106094,0.1070116 -0.127553,0.1196834 -0.02145,0.012665 -0.03901,0.031115 -0.03901,0.041074 0,0.00991 -0.02198,0.032385 -0.0488,0.049968 -0.02685,0.017533 -0.05541,0.046433 -0.0635,0.064142 -0.0081,0.017674 -0.02565,0.036403 -0.03909,0.041571 -0.01341,0.00515 -0.06277,0.045614 -0.109689,0.08993 -0.04691,0.044312 -0.107566,0.098732 -0.134779,0.1209287 -0.02723,0.02219 -0.05585,0.047364 -0.06362,0.055926 -0.0078,0.00857 -0.0364,0.030692 -0.06362,0.049184 -0.02724,0.01845 -0.06134,0.048447 -0.07583,0.066559 -0.02459,0.030762 -0.141189,0.1245305 -0.214835,0.1728258 -0.03425,0.022472 -0.09522,0.072034 -0.195622,0.1590464 -0.03362,0.029175 -0.0655,0.053015 -0.07081,0.053015 -0.0053,0 -0.02685,0.016404 -0.0479,0.036438 -0.02102,0.020038 -0.07583,0.062308 -0.121747,0.09391 -0.04592,0.031574 -0.09363,0.065744 -0.106031,0.075872 -0.01238,0.010089 -0.05414,0.044125 -0.09275,0.075551 -0.07544,0.061405 -0.285567,0.1690087 -0.389273,0.1993441 -0.035,0.01023 -0.06966,0.023813 -0.07705,0.030268 -0.0074,0.00642 -0.02769,0.011642 -0.04511,0.011642 -0.01743,0 -0.03514,0.00561 -0.03942,0.012524 -0.0042,0.00688 -0.02529,0.01591 -0.04678,0.020038 -0.02148,0.00413 -0.06449,0.014852 -0.0956,0.023777 -0.07394,0.021237 -0.143221,0.037063 -0.289818,0.06623 -0.175669,0.03496 -0.747536,0.034114 -0.926016,-0.00141 -0.178227,-0.035437 -0.231585,-0.046771 -0.300426,-0.063853 -0.03302,-0.00822 -0.08394,-0.020426 -0.113101,-0.027164 -0.02914,-0.00674 -0.08165,-0.022578 -0.116635,-0.035137 -0.035,-0.012594 -0.07356,-0.022966 -0.0857,-0.023072 -0.01214,-1.129e-4 -0.05032,-0.013547 -0.08483,-0.029845 -0.06694,-0.031609 -0.182333,-0.084522 -0.274799,-0.1259664 -0.09607,-0.04306 -0.44854,-0.1516521 -0.523096,-0.1611559 -0.03888,-0.00494 -0.102496,-0.01524 -0.141376,-0.02279 -0.20653,-0.040224 -0.281361,-0.045829 -0.614986,-0.046069 -0.414045,-2.963e-4 -0.765281,0.030339 -0.933084,0.0814 -0.04277,0.012982 -0.100026,0.029069 -0.127239,0.035698 -0.08047,0.019579 -0.328701,0.085556 -0.375652,0.099808 -0.02388,0.00727 -0.0525,0.01337 -0.06362,0.013617 -0.01111,2.47e-4 -0.05821,0.019332 -0.104669,0.042418 -0.04645,0.023072 -0.08969,0.041963 -0.09608,0.041963 -0.0103,0 -0.167202,0.071568 -0.34962,0.1594697 -0.035,0.016863 -0.09377,0.051499 -0.130627,0.076973 -0.03685,0.02547 -0.07266,0.046313 -0.07956,0.046313 -0.0069,0 -0.0206,0.00967 -0.03037,0.021484 -0.0098,0.011818 -0.0408,0.032244 -0.06889,0.045413 -0.02812,0.013194 -0.05821,0.030833 -0.06692,0.039324 -0.0087,0.00847 -0.05166,0.037084 -0.09543,0.063609 -0.04377,0.026529 -0.07958,0.053245 -0.07958,0.05938 0,0.00614 -0.0086,0.011148 -0.01901,0.011148 -0.01044,0 -0.03048,0.012735 -0.0446,0.028293 -0.01408,0.015557 -0.03069,0.028293 -0.03681,0.028293 -0.0224,0 -0.13427,0.084183 -0.195851,0.147387 -0.03468,0.035588 -0.0685,0.064678 -0.07517,0.064678 -0.01711,0 -0.109612,0.068732 -0.151628,0.1127231 -0.01944,0.020355 -0.06035,0.055799 -0.09092,0.078772 -0.06971,0.052395 -0.845662,0.8283046 -0.888288,0.8882309 -0.01729,0.024306 -0.07761,0.089225 -0.134031,0.1442262 -0.05643,0.055012 -0.102591,0.1064224 -0.102591,0.1142541 0,0.00787 -0.04772,0.061338 -0.106034,0.1189038 -0.05832,0.05757 -0.106084,0.1111285 -0.106155,0.1190237 -6.7e-5,0.0079 -0.02233,0.037782 -0.04948,0.066421 -0.02713,0.028645 -0.04936,0.057566 -0.04936,0.064283 0,0.0067 -0.02544,0.037063 -0.05655,0.067437 -0.03108,0.030374 -0.05655,0.061165 -0.05655,0.068439 0,0.00727 -0.02385,0.040753 -0.05302,0.074397 -0.02914,0.033655 -0.07846,0.09301 -0.109566,0.1319142 -0.03108,0.038901 -0.07415,0.090798 -0.09566,0.1153266 -0.02152,0.024518 -0.04992,0.062904 -0.06313,0.085273 -0.01323,0.022366 -0.02893,0.040668 -0.03493,0.040668 -0.006,0 -0.0284,0.027023 -0.04977,0.060085 -0.02138,0.03302 -0.0501,0.070376 -0.06382,0.082952 -0.01369,0.012594 -0.02491,0.027764 -0.02491,0.033761 0,0.006 -0.02381,0.038425 -0.05302,0.072065 -0.08958,0.1033604 -0.13691,0.1618192 -0.159043,0.1964725 -0.02215,0.034678 -0.06947,0.093109 -0.159053,0.196469 -0.02914,0.033655 -0.05302,0.065719 -0.05302,0.071275 0,0.00554 -0.0193,0.029422 -0.04288,0.052991 -0.02357,0.023566 -0.06016,0.065842 -0.08129,0.093916 -0.02113,0.028081 -0.06227,0.075858 -0.09143,0.1061861 -0.02914,0.030339 -0.05301,0.060025 -0.05301,0.065998 0,0.00596 -0.02865,0.039892 -0.06362,0.075382 -0.035,0.035514 -0.06362,0.069988 -0.06362,0.076648 0,0.021414 -0.174784,0.1871522 -0.197355,0.1871522 -0.01383,0 -0.02177,-0.012912 -0.02177,-0.035331 0,-0.019438 0.0037,-0.035327 0.0079,-0.035327 0.0043,0 0.01884,-0.00801 0.03221,-0.01778 0.02258,-0.01651 0.02025,-0.027164 -0.03129,-0.1460359 C 20.065851,8.4166849 19.958184,8.2010142 19.909137,8.123322 19.889134,8.0916778 19.843326,8.0145359 19.8073,7.9519355 19.600915,7.5932663 19.230699,7.2375217 18.886932,7.0675428 18.57219,6.9119184 18.340055,6.858776 17.961906,6.8557703 c -0.09331,-7.056e-4 -0.226914,-0.00624 -0.296894,-0.012206 -0.128143,-0.010936 -0.346022,0.00176 -0.516023,0.030127 -0.160482,0.026776 -0.53166,0.1626376 -0.777561,0.2846 -0.465014,0.230639 -0.755925,0.4661429 -1.131019,0.9155923 -0.197249,0.2363505 -0.303019,0.352358 -0.328694,0.3605036 -0.0164,0.00522 -0.02364,0.016651 -0.01873,0.029492 0.0044,0.011536 -0.01002,0.047544 -0.03207,0.080014 -0.183381,0.269748 -0.257327,0.534617 -0.18736,0.6710574 0.08164,0.1591909 0.30619,0.2298664 0.595785,0.187519 0.118018,-0.017286 0.36165,-0.087711 0.480053,-0.1388251 0.04792,-0.020708 0.0714,-0.023989 0.09513,-0.01337 0.02304,0.010336 0.05343,0.00734 0.1131,-0.011077 0.04487,-0.013864 0.08795,-0.030021 0.09572,-0.035846 0.01362,-0.010266 0.07641,-0.027728 0.30396,-0.084462 0.114829,-0.028646 0.364257,-0.062368 0.466542,-0.063101 0.173863,-0.00106 0.643382,0.022472 0.709506,0.035846 0.358948,0.072577 0.538346,0.1188508 0.812363,0.2095253 0.260555,0.086222 0.3853,0.1384476 0.488752,0.2046256 0.04421,0.02829 0.08461,0.05143 0.08977,0.05143 0.02004,0 0.21742,0.137551 0.343588,0.239416 0.07286,0.05883 0.154506,0.124001 0.18143,0.144833 0.149041,0.1153186 0.720016,0.6739146 0.943948,0.9234796 0.07674,0.08553 0.166388,0.184143 0.199207,0.219135 0.03281,0.035 0.09342,0.104973 0.134673,0.155515 0.04126,0.05054 0.07882,0.09507 0.08347,0.09896 0.0047,0.0039 0.0447,0.05478 0.089,0.1131 0.0443,0.05832 0.08995,0.11593 0.101445,0.128034 0.01147,0.0121 0.03858,0.0479 0.06019,0.07956 0.02163,0.03165 0.0711,0.09407 0.109975,0.138695 0.03887,0.04463 0.08659,0.104013 0.106031,0.131953 0.01944,0.02797 0.06784,0.08605 0.107541,0.12912 0.03971,0.04307 0.123719,0.134941 0.186693,0.204153 0.169725,0.186545 0.198138,0.207133 0.412168,0.298668 0.06583,0.02815 0.160916,0.08001 0.211304,0.115232 0.09457,0.06611 0.198236,0.0944 0.303251,0.08277 0.02438,-0.0025 0.08254,-0.0092 0.129187,-0.01432 0.08774,-0.0097 0.229694,-0.04525 0.254476,-0.06362 0.0078,-0.0058 0.0332,-0.01499 0.05655,-0.02053 0.06152,-0.01457 0.417907,-0.195629 0.516025,-0.262177 0.01944,-0.01319 0.04489,-0.02829 0.05655,-0.03359 0.01164,-0.0053 0.04786,-0.02699 0.08044,-0.04825 0.110458,-0.07207 0.387329,-0.243646 0.393174,-0.243646 0.0035,0 0.03819,-0.01905 0.07775,-0.04241 0.03956,-0.02332 0.07537,-0.04242 0.07957,-0.04242 0.01418,0 -0.08462,0.119303 -0.227405,0.274599 -0.163727,0.178072 -0.234399,0.246176 -0.357787,0.344802 -0.04871,0.03894 -0.105964,0.08932 -0.12724,0.111978 -0.02127,0.02268 -0.05776,0.05322 -0.08109,0.06793 -0.02335,0.01471 -0.07422,0.05241 -0.113104,0.08379 -0.03888,0.03136 -0.08149,0.06342 -0.0947,0.07119 -0.01323,0.0078 -0.0482,0.03094 -0.07776,0.05139 -0.178368,0.123642 -0.475319,0.30492 -0.703231,0.429288 -0.057,0.03108 -0.112317,0.06373 -0.122929,0.07251 -0.05161,0.04271 -0.323352,0.09007 -0.516773,0.09007 -0.195538,0 -0.528571,-0.08733 -0.675944,-0.177257 -0.03108,-0.01894 -0.07109,-0.04087 -0.08886,-0.04863 -0.07078,-0.03094 -0.271911,-0.173292 -0.350732,-0.248207 -0.126672,-0.120403 -0.33776,-0.266323 -0.509633,-0.352291 -0.158309,-0.07918 -0.428177,-0.165884 -0.598848,-0.192395 -0.05054,-0.0079 -0.126883,-0.01968 -0.169654,-0.02628 -0.04276,-0.0066 -0.125469,-0.0095 -0.183787,-0.0063 -0.05832,0.0028 -0.160111,0.0081 -0.226201,0.01097 -0.126203,0.0056 -0.214725,0.02081 -0.332239,0.057 -0.03888,0.01196 -0.08245,0.02187 -0.09682,0.02194 -0.01436,8.4e-5 -0.04619,0.0094 -0.07069,0.02064 -0.02452,0.01125 -0.136804,0.06229 -0.249552,0.113404 -0.112744,0.05112 -0.230441,0.110508 -0.261542,0.131978 -0.03111,0.02148 -0.07564,0.04808 -0.09896,0.05913 -0.02335,0.01104 -0.05514,0.03108 -0.07069,0.04456 -0.01556,0.01344 -0.04656,0.0339 -0.06891,0.04547 -0.04718,0.02438 -0.513126,0.390542 -0.637971,0.501297 -0.04665,0.04139 -0.125123,0.111407 -0.174381,0.155586 -0.04926,0.04419 -0.376897,0.367404 -0.728084,0.718269 -0.351194,0.350859 -0.65333,0.6425 -0.671407,0.648085 -0.04464,0.01379 -0.05469,-7.06e-4 -0.02406,-0.0344 0.02071,-0.0229 0.0236,-0.04162 0.0157,-0.102584 -0.02159,-0.166906 -0.137248,-0.593168 -0.206456,-0.761002 -0.160732,-0.389773 -0.415678,-0.691564 -0.696619,-0.824625 -0.184651,-0.08744 -0.505457,-0.186485 -0.688559,-0.21257 -0.119708,-0.01707 -0.387272,0.02667 -0.61499,0.100447 -0.348107,0.112814 -0.648745,0.351839 -0.906696,0.72088 -0.167178,0.239183 -0.196038,0.347027 -0.196038,0.732638 0,0.294979 0.01072,0.372541 0.08673,0.625771 0.08866,0.295459 0.0832,0.287955 0.533572,0.734202 0.221266,0.21924 0.443647,0.44983 0.494186,0.512423 0.08671,0.107397 0.151641,0.230943 0.131804,0.25078 -0.0049,0.0049 -0.05713,-0.0014 -0.116,-0.01457 -0.190468,-0.04185 -0.445135,-0.05743 -0.627902,-0.03841 -0.260664,0.02709 -0.403098,0.06606 -0.637029,0.17411 -0.0584,0.02699 -0.121987,0.05387 -0.141287,0.05975 -0.109707,0.03344 -0.474684,0.232526 -0.666725,0.3637 -0.180115,0.123017 -0.38668,0.306666 -0.577145,0.513111 -0.151881,0.164613 -0.484099,0.557432 -0.536561,0.634418 -0.01129,0.01662 -0.05302,0.06831 -0.092723,0.11496 -0.1048667,0.123218 -0.2727995,0.337037 -0.4256828,0.541972 -0.4200384,0.563065 -0.729615,0.909581 -1.0996718,1.230898 -0.4760101,0.413311 -0.7922331,0.603914 -1.1671194,0.703475 -0.3959508,0.105156 -0.5737649,0.139364 -0.8771255,0.168726 -0.2627736,0.02543 -0.6900051,0.02173 -0.8765293,-0.0076 -0.050546,-0.0079 -0.1396118,-0.02148 -0.197926,-0.03006 -0.2835893,-0.04173 -0.5574154,-0.11153 -0.989607,-0.252281 -0.120523,-0.03925 -0.2700302,-0.08793 -0.3322355,-0.108176 -0.062205,-0.02025 -0.1353643,-0.0455 -0.1625847,-0.05612 -0.080497,-0.03144 -0.4514215,-0.144208 -0.5584331,-0.169795 -0.1790523,-0.04281 -0.2819294,-0.06423 -0.3393016,-0.07068 -0.3455917,-0.03883 -0.6006747,-0.0021 -0.8501239,0.121624 -0.1677106,0.08334 -0.300288,0.192137 -0.4646789,0.381339 -0.062205,0.0716 -0.1608667,0.185067 -0.2192514,0.252158 -0.2349147,0.269981 -0.4069997,0.507072 -0.58621081,0.807667 -0.12884503,0.216101 -0.33760833,0.629451 -0.42310402,0.837724 -0.0279753,0.06807 -0.10810522,0.238227 -0.17812808,0.378114 -0.0700264,0.139887 -0.15027275,0.310035 -0.17832916,0.378114 -0.0280811,0.06808 -0.0534846,0.126418 -0.0565079,0.129664 -0.002822,0.0032 -0.005503,-5.361464 -0.005503,-11.921564 z"
     id="path54"
     inkscape:label="naga" />
</svg>
