<?xml version="1.0" encoding="UTF-8" standalone="no"?>
<!-- Created with Inkscape (http://www.inkscape.org/) -->

<svg
   width="33.226078mm"
   height="19.881727mm"
   viewBox="0 0 33.226078 19.881728"
   version="1.1"
   id="svg1"
   inkscape:version="1.4.2 (ebf0e94, 2025-05-08)"
   sodipodi:docname="naga.svg"
   xmlns:inkscape="http://www.inkscape.org/namespaces/inkscape"
   xmlns:sodipodi="http://sodipodi.sourceforge.net/DTD/sodipodi-0.dtd"
   xmlns:xlink="http://www.w3.org/1999/xlink"
   xmlns="http://www.w3.org/2000/svg"
   xmlns:svg="http://www.w3.org/2000/svg">
  <sodipodi:namedview
     id="namedview1"
     pagecolor="#505050"
     bordercolor="#eeeeee"
     borderopacity="1"
     inkscape:showpageshadow="0"
     inkscape:pageopacity="0"
     inkscape:pagecheckerboard="0"
     inkscape:deskcolor="#d1d1d1"
     inkscape:document-units="mm"
     inkscape:zoom="4.5968014"
     inkscape:cx="31.869987"
     inkscape:cy="61.347006"
     inkscape:window-width="2560"
     inkscape:window-height="1440"
     inkscape:window-x="0"
     inkscape:window-y="0"
     inkscape:window-maximized="1"
     inkscape:current-layer="svg1"
     showgrid="false" />
  <defs
     id="defs1">
    <radialGradient
       inkscape:collect="always"
       xlink:href="#linearGradient41"
       id="radialGradient44"
       cx="416.65384"
       cy="762.89893"
       fx="416.65384"
       fy="762.89893"
       r="47.092117"
       gradientTransform="matrix(0.3827229,0,0,-0.22637178,-152.03044,181.63238)"
       gradientUnits="userSpaceOnUse" />
    <linearGradient
       id="linearGradient41"
       inkscape:collect="always">
      <stop
         style="stop-color:#34a9d6;stop-opacity:1;"
         offset="0.24164358"
         id="stop43" />
      <stop
         style="stop-color:#225570;stop-opacity:1;"
         offset="1"
         id="stop44" />
    </linearGradient>
  </defs>
  <path
     style="display:inline;fill:url(#radialGradient44);stroke-width:0.352778"
     d="M 1.67e-5,9.9476633 V 0 H 7.0377884 14.07556 l -4.2e-5,0.0389043 c -2.5e-5,0.0213783 -0.01305,0.10574513 -0.02893,0.18743788 -0.0425,0.21866578 -0.09651,0.69184667 -0.11267,0.98711802 -0.03624,0.6621075 0.06133,1.6114042 0.215512,2.09677 0.160422,0.5050155 0.469173,0.9134898 0.827101,1.0942425 0.266136,0.1344014 0.631067,0.1284782 0.87848,-0.014288 0.03337,-0.019262 0.09209,-0.044337 0.130465,-0.055735 0.04906,-0.01457 0.08088,-0.035288 0.10723,-0.069836 0.03489,-0.045748 0.439953,-0.4278666 0.554337,-0.5229401 0.07494,-0.062297 0.931069,-0.9244648 1.120677,-1.1285961 0.169421,-0.1823931 0.289567,-0.3191757 0.3247,-0.3696652 0.01132,-0.016263 0.03679,-0.045452 0.05663,-0.064904 0.01983,-0.019438 0.05478,-0.06042 0.07765,-0.091041 0.04415,-0.059108 0.226494,-0.2375747 0.252363,-0.2469903 0.0085,-0.00318 0.04036,-0.030339 0.0709,-0.060569 0.03055,-0.030233 0.07552,-0.065186 0.09993,-0.077646 0.02441,-0.012453 0.07305,-0.047131 0.108056,-0.077043 0.03499,-0.029915 0.08982,-0.076803 0.121789,-0.1042035 0.03196,-0.027411 0.06486,-0.049819 0.07309,-0.049819 0.0082,0 0.01707,-0.00536 0.01968,-0.011889 0.0063,-0.015946 0.149458,-0.1154253 0.166073,-0.1154253 0.0072,0 0.01524,-0.00529 0.01782,-0.011748 0.0091,-0.022719 0.408926,-0.2821905 0.48569,-0.3152034 0.02335,-0.010054 0.05836,-0.0288919 0.0778,-0.0419279 0.06903,-0.046221 0.276902,-0.150375 0.346583,-0.1736584 0.0389,-0.012982 0.09938,-0.040128 0.134391,-0.060286 0.035,-0.020144 0.171877,-0.073265 0.304147,-0.1180112 0.132267,-0.044746 0.265557,-0.092015 0.296199,-0.1050396 0.03066,-0.013053 0.107033,-0.032773 0.169757,-0.043886 0.06272,-0.0111125 0.187244,-0.0370593 0.276719,-0.0576721 0.174851,-0.0402766 0.170406,-0.0393876 0.31829,-0.0635176 0.05447,-0.00889 0.159502,-0.0278342 0.233419,-0.0421464 0.24789,-0.0479178 0.542548,-0.063239 1.216575,-0.063239 0.709253,0 0.854552,0.009772 1.18829,0.0799042 0.241067,0.0506624 0.647774,0.1609689 0.728532,0.1975943 0.08592,0.038964 0.226399,0.094174 0.367803,0.144533 0.07002,0.024941 0.14419,0.056684 0.164814,0.070538 0.02064,0.013829 0.06837,0.036668 0.106094,0.050701 0.18143,0.06749 1.346835,0.65069855 1.416117,0.70867755 0.01394,0.011677 0.05703,0.036202 0.09575,0.054508 0.03871,0.018309 0.130863,0.06979 0.204777,0.1143952 0.07391,0.044609 0.175768,0.1045916 0.226342,0.13329 0.132422,0.075152 0.317496,0.1949627 0.323007,0.2091092 0.0025,0.00667 0.01002,0.0121 0.01651,0.0121 0.0065,0 0.06044,0.033408 0.119902,0.074267 0.05946,0.040848 0.134793,0.089888 0.167403,0.1089872 0.0326,0.019085 0.0752,0.049459 0.09465,0.06749 0.01944,0.018027 0.06879,0.053082 0.109636,0.077911 0.04084,0.0248 0.07427,0.050147 0.07427,0.056286 0,0.00614 0.0084,0.011148 0.01873,0.011148 0.0103,0 0.07751,0.039786 0.149338,0.088417 0.07183,0.048627 0.176392,0.1150303 0.232364,0.1475599 0.05597,0.032526 0.136769,0.080818 0.179561,0.1072974 0.115495,0.071459 0.474108,0.2650172 0.491013,0.2650172 0.008,0 0.04252,0.012171 0.07657,0.027058 0.03947,0.017251 0.141415,0.035482 0.281189,0.050303 0.216856,0.023001 0.349405,0.047011 0.431133,0.078108 0.02318,0.00882 0.08553,0.025153 0.138606,0.036325 0.08358,0.017568 0.112992,0.017639 0.219598,0 0.17727,-0.028892 0.537167,-0.1521213 0.681079,-0.2331685 0.06657,-0.03749 0.160094,-0.087849 0.207825,-0.1119081 0.04773,-0.02406 0.09602,-0.05298 0.107315,-0.064273 0.01129,-0.011289 0.05499,-0.04324 0.09712,-0.07099 0.04213,-0.027764 0.102048,-0.069561 0.133171,-0.092911 0.06515,-0.048884 0.156894,-0.1144976 0.188887,-0.1350998 0.01206,-0.00776 0.04137,-0.031609 0.06508,-0.052984 0.02371,-0.021378 0.04872,-0.038865 0.05559,-0.038901 0.0068,-3.52e-5 0.02279,-0.011254 0.03536,-0.024871 0.0126,-0.013653 0.05471,-0.050038 0.09361,-0.080857 0.0389,-0.030833 0.07391,-0.059817 0.07781,-0.064424 0.0039,-0.00462 0.0206,-0.017604 0.03717,-0.028892 0.01655,-0.011289 0.06892,-0.055478 0.116364,-0.098206 0.04745,-0.042728 0.115538,-0.099967 0.151321,-0.1271975 0.03578,-0.027235 0.098,-0.07849 0.138267,-0.1139014 0.06548,-0.057587 0.105922,-0.088106 0.177095,-0.1336569 0.01214,-0.00776 0.0415,-0.031609 0.06521,-0.052984 0.02371,-0.021378 0.04817,-0.038865 0.05436,-0.038904 0.0062,-3.53e-5 0.02716,-0.015981 0.04662,-0.035429 0.01944,-0.019438 0.04464,-0.035366 0.05597,-0.035366 0.01288,0 -0.01789,0.056152 -0.08199,0.1497577 -0.05642,0.082367 -0.125134,0.1834233 -0.15269,0.2245607 -0.02755,0.041141 -0.06758,0.096294 -0.08894,0.1225585 -0.02138,0.026282 -0.06248,0.077463 -0.09137,0.1137638 -0.148004,0.1860303 -0.206816,0.2536966 -0.349589,0.4022372 -0.08558,0.089048 -0.193805,0.203701 -0.240488,0.2547973 -0.04668,0.0511 -0.102383,0.1032581 -0.123779,0.1159087 -0.02138,0.012665 -0.0389,0.031115 -0.0389,0.041035 0,0.00991 -0.02198,0.03242 -0.04883,0.049999 -0.02685,0.017568 -0.05544,0.046461 -0.06354,0.064184 -0.0081,0.017709 -0.02568,0.036445 -0.03911,0.041589 -0.01341,0.00515 -0.06281,0.045646 -0.10976,0.089987 -0.04694,0.044344 -0.107633,0.098795 -0.134864,0.1210063 -0.02723,0.02219 -0.05588,0.047396 -0.06366,0.055958 -0.0078,0.00857 -0.03344,0.028716 -0.057,0.04481 -0.02357,0.016087 -0.07159,0.056847 -0.106712,0.090607 -0.03514,0.033761 -0.0954,0.084889 -0.133971,0.1136227 -0.126016,0.093892 -0.190927,0.1449423 -0.252843,0.1988503 -0.03351,0.029175 -0.06527,0.053047 -0.07057,0.053047 -0.0053,0 -0.02688,0.016404 -0.04793,0.036474 -0.02106,0.020073 -0.07588,0.062353 -0.121821,0.093969 -0.04594,0.031609 -0.09369,0.065786 -0.106098,0.075918 -0.01242,0.010125 -0.05439,0.044341 -0.09329,0.076031 -0.139256,0.1134181 -0.394572,0.2200875 -0.758085,0.316731 -0.238735,0.063468 -0.326774,0.072827 -0.684833,0.072827 -0.358891,0 -0.418285,-0.00642 -0.721462,-0.077992 C 28.168082,4.4619427 28.041911,4.4210311 27.855803,4.3366185 27.64886,4.2427545 27.335209,4.1379587 27.196197,4.1162241 c -0.05446,-0.0085 -0.143584,-0.024553 -0.198046,-0.035634 -0.162923,-0.033161 -0.529011,-0.048405 -0.808228,-0.03369 -0.366067,0.019332 -0.554729,0.046676 -0.829543,0.120329 -0.134027,0.035923 -0.292364,0.077107 -0.351857,0.091518 -0.05949,0.014393 -0.14225,0.041945 -0.183903,0.061182 -0.04165,0.019226 -0.148935,0.067656 -0.23841,0.1075972 -0.229959,0.1026583 -0.240436,0.1082039 -0.392367,0.2076732 -0.07511,0.049174 -0.144335,0.089405 -0.153843,0.089405 -0.0095,0 -0.0194,0.00533 -0.02201,0.011783 -0.0025,0.00649 -0.04236,0.035715 -0.08837,0.064964 -0.04601,0.029245 -0.09124,0.060554 -0.10051,0.069561 -0.0093,0.009 -0.05403,0.038657 -0.09948,0.065888 -0.04544,0.027234 -0.121165,0.084808 -0.168268,0.1279454 -0.0471,0.043138 -0.11429,0.096326 -0.149299,0.1181982 -0.03503,0.021872 -0.07957,0.056885 -0.09903,0.077812 -0.01944,0.02092 -0.06039,0.056864 -0.09098,0.079855 -0.0683,0.051336 -0.8457,0.8281493 -0.887451,0.886781 -0.01655,0.023248 -0.0769,0.088911 -0.134116,0.1459477 -0.05722,0.05703 -0.104034,0.1093646 -0.104034,0.1162967 0,0.00695 -0.04179,0.053467 -0.09287,0.1034133 -0.05109,0.04995 -0.101649,0.1067329 -0.112374,0.1261815 -0.01072,0.019438 -0.03895,0.055711 -0.06273,0.080574 -0.02378,0.024871 -0.04324,0.049615 -0.04324,0.055002 0,0.0054 -0.02388,0.037342 -0.05305,0.071011 -0.02917,0.033655 -0.07851,0.093306 -0.109633,0.1325245 -0.07922,0.099833 -0.172625,0.2144748 -0.202029,0.2479604 -0.01365,0.015557 -0.04032,0.050571 -0.05923,0.077802 -0.01891,0.027234 -0.04218,0.054324 -0.05169,0.060209 -0.0095,0.00589 -0.03178,0.034537 -0.04949,0.063659 -0.01771,0.029139 -0.04367,0.063257 -0.05769,0.07584 -0.01404,0.012594 -0.02547,0.027799 -0.02547,0.033796 0,0.006 -0.02388,0.038319 -0.05305,0.071833 -0.02917,0.033514 -0.07533,0.090089 -0.102559,0.125737 -0.02723,0.035645 -0.07498,0.096301 -0.106098,0.1347893 -0.03111,0.038488 -0.07886,0.098831 -0.106094,0.1340873 -0.02724,0.035278 -0.07099,0.087951 -0.09723,0.117087 -0.02625,0.029139 -0.06444,0.07506 -0.08488,0.1020586 -0.02043,0.026988 -0.06103,0.073921 -0.09021,0.104267 -0.02917,0.030339 -0.05305,0.060064 -0.05305,0.066036 0,0.00596 -0.02865,0.039917 -0.06366,0.075431 -0.03499,0.035514 -0.06366,0.070026 -0.06366,0.076694 0,0.022401 -0.175419,0.1872615 -0.199246,0.1872615 -0.0157,0 -0.02357,-0.011783 -0.02357,-0.035366 0,-0.019438 0.0043,-0.035366 0.0097,-0.035366 0.0053,0 0.02057,-0.00797 0.03387,-0.01771 0.0223,-0.016298 0.01877,-0.030021 -0.04471,-0.1732915 C 20.050578,8.3661566 19.970861,8.2064753 19.921063,8.1275871 19.901166,8.0960841 19.855408,8.0190445 19.819361,7.9564051 19.614256,7.5999585 19.24543,7.2444996 18.906488,7.0766092 18.616932,6.9331768 18.452975,6.8922898 18.093078,6.873762 c -0.151719,-0.00783 -0.340745,-0.019226 -0.420056,-0.0254 -0.07931,-0.00617 -0.184344,-0.00635 -0.233412,-3.528e-4 -0.04906,0.00593 -0.147863,0.01771 -0.219555,0.026106 -0.183426,0.021555 -0.572523,0.1562876 -0.852738,0.2952609 -0.450536,0.2234458 -0.745998,0.4637793 -1.117638,0.9090942 -0.197373,0.2364951 -0.303202,0.3525696 -0.328899,0.3607258 -0.0164,0.00522 -0.02371,0.016616 -0.01877,0.029492 0.0044,0.011536 -0.0099,0.047572 -0.03189,0.080063 -0.133021,0.1966736 -0.203873,0.3811304 -0.204709,0.5329731 -7.06e-4,0.1547671 0.0424,0.2230296 0.179821,0.2838203 0.164409,0.072725 0.418017,0.062431 0.706748,-0.028681 0.09438,-0.029775 0.193424,-0.063631 0.220112,-0.075216 0.03457,-0.015028 0.05934,-0.017286 0.08614,-0.00794 0.02903,0.010125 0.05992,0.00466 0.135385,-0.023954 0.150986,-0.057259 0.435677,-0.128337 0.599952,-0.149793 0.195548,-0.025541 0.572622,-0.024448 0.843322,0.00247 0.297836,0.029633 0.904462,0.193488 1.21496,0.3281997 0.187378,0.081295 0.426113,0.2297571 0.619848,0.3854731 0.07744,0.06224 0.16275,0.130224 0.189579,0.151066 0.15065,0.1170617 0.721022,0.6751887 0.944316,0.9240487 0.07679,0.08558 0.16649,0.184256 0.199326,0.219269 0.03284,0.035 0.09348,0.105036 0.134758,0.155606 0.04128,0.05058 0.07887,0.09513 0.08352,0.09902 0.0047,0.0039 0.04474,0.05482 0.08906,0.113171 0.04433,0.05835 0.09,0.116004 0.101505,0.128112 0.0115,0.0121 0.0386,0.04793 0.06023,0.0796 0.02163,0.03168 0.07114,0.09413 0.110042,0.138786 0.0389,0.04466 0.08665,0.104077 0.106098,0.132034 0.01944,0.02798 0.06788,0.0861 0.107608,0.129195 0.03973,0.0431 0.123797,0.135022 0.186803,0.204279 0.155335,0.170723 0.190757,0.19752 0.359272,0.271762 0.08007,0.03528 0.193326,0.0952 0.251679,0.133174 0.07747,0.05041 0.127543,0.07238 0.185589,0.08142 0.216941,0.03376 0.514766,-0.04361 0.852668,-0.221555 0.176491,-0.09295 0.235913,-0.128048 0.576551,-0.340607 0.141284,-0.08816 0.334614,-0.198646 0.347599,-0.198646 0.02166,0 -0.303216,0.365619 -0.434611,0.489116 -0.035,0.03291 -0.103533,0.09171 -0.152273,0.130662 -0.04874,0.03896 -0.106031,0.08938 -0.127318,0.112049 -0.02131,0.02268 -0.0578,0.05326 -0.08114,0.06797 -0.02335,0.01471 -0.07427,0.05273 -0.113167,0.08447 -0.06507,0.05309 -0.110032,0.08382 -0.353656,0.241649 -0.142882,0.09256 -0.418924,0.256586 -0.523413,0.311012 -0.05447,0.02836 -0.109764,0.06104 -0.122887,0.07261 -0.04706,0.04148 -0.224345,0.0765 -0.428819,0.08469 -0.221834,0.0089 -0.393393,-0.0169 -0.580499,-0.08731 -0.195905,-0.0737 -0.484685,-0.251061 -0.623256,-0.382774 -0.296404,-0.281739 -0.705404,-0.474712 -1.169032,-0.551565 -0.159702,-0.02646 -0.192849,-0.02769 -0.449393,-0.01644 -0.267148,0.01171 -0.498725,0.07109 -0.794826,0.203789 -0.122047,0.0547 -0.26,0.124114 -0.306571,0.154266 -0.04657,0.03016 -0.130778,0.08347 -0.187138,0.118481 -0.10361,0.06437 -0.538825,0.402089 -0.672662,0.521977 -0.03997,0.0358 -0.115334,0.10329 -0.167481,0.149973 -0.05215,0.04668 -0.379586,0.369746 -0.72764,0.717924 -0.348054,0.348174 -0.639886,0.633045 -0.648515,0.633045 -0.01877,0 -0.02544,-0.02071 -0.04565,-0.141464 -0.03298,-0.197185 -0.133004,-0.563774 -0.200529,-0.734892 -0.147451,-0.373655 -0.411903,-0.692076 -0.680357,-0.819203 -0.182873,-0.0866 -0.564003,-0.201824 -0.73123,-0.221068 -0.04461,-0.0052 -0.320019,0.02882 -0.399405,0.04927 -0.121602,0.03129 -0.331449,0.103787 -0.400657,0.138412 -0.252754,0.126457 -0.493359,0.346566 -0.696436,0.637107 -0.156277,0.22359 -0.190546,0.354598 -0.191244,0.73111 -3.53e-4,0.287655 0.01651,0.404442 0.0953,0.653274 0.07297,0.230435 0.100287,0.282586 0.207172,0.39551 0.05344,0.05647 0.09717,0.108797 0.09717,0.116297 0,0.01679 0.175081,0.148537 0.290001,0.218214 0.04668,0.02829 0.138988,0.06829 0.20512,0.08887 0.06614,0.02057 0.132326,0.04186 0.147097,0.04731 0.04873,0.01799 -0.18857,0.165086 -0.34617,0.214601 -0.403821,0.126859 -0.9141,0.240732 -0.989916,0.220906 -0.01739,-0.0046 -0.03947,-3e-6 -0.04971,0.01023 -0.01012,0.01012 -0.0459,0.02275 -0.07949,0.02808 -0.134669,0.02127 -0.508924,0.15204 -0.662287,0.231415 -0.169351,0.08765 -0.304532,0.177299 -0.4829,0.320241 -0.115672,0.0927 -1.0622096,1.035883 -1.1511456,1.147061 -0.195414,0.244291 -0.708406,0.69753 -0.976898,0.863102 -0.378777,0.233588 -0.493758,0.291395 -0.757375,0.380771 -0.192281,0.06519 -0.286096,0.07581 -0.691719,0.07829 -0.814106,0.005 -1.444862,-0.162299 -2.355297,-0.624583 -0.09337,-0.04741 -0.221759,-0.117203 -0.285323,-0.155105 -0.06356,-0.0379 -0.152682,-0.08522 -0.198046,-0.105163 -0.04536,-0.01993 -0.158869,-0.07384 -0.252239,-0.119786 -0.206717,-0.101724 -0.63536,-0.245675 -0.815502,-0.273876 -0.397733,-0.06227 -0.770414,-0.05249 -1.094243,0.02872 -0.119415,0.02995 -0.433666,0.141426 -0.553057,0.196208 -0.5020519,0.230368 -0.9910054,0.63596 -1.3562574,1.125033 -0.037768,0.05057 -0.074006,0.098 -0.080529,0.105393 C 0.005323,19.889117 0,15.418711 0,9.9474952 Z"
     id="path41"
     inkscape:label="naga" />
</svg>
