<?xml version="1.0" encoding="UTF-8" standalone="no"?>
<!-- Created with Inkscape (http://www.inkscape.org/) -->

<svg
   width="80"
   height="15"
   id="svg2279"
   sodipodi:version="0.32"
   inkscape:version="1.4.2 (ebf0e94, 2025-05-08)"
   version="1.0"
   sodipodi:docname="license.svg"
   inkscape:output_extension="org.inkscape.output.svg.inkscape"
   xmlns:inkscape="http://www.inkscape.org/namespaces/inkscape"
   xmlns:sodipodi="http://sodipodi.sourceforge.net/DTD/sodipodi-0.dtd"
   xmlns="http://www.w3.org/2000/svg"
   xmlns:svg="http://www.w3.org/2000/svg"
   xmlns:rdf="http://www.w3.org/1999/02/22-rdf-syntax-ns#"
   xmlns:cc="http://creativecommons.org/ns#"
   xmlns:dc="http://purl.org/dc/elements/1.1/">
  <defs
     id="defs2281">
    <clipPath
       clipPathUnits="userSpaceOnUse"
       id="clipPath3442">
      <rect
         style="fill:#000000;fill-opacity:1;stroke:none;stroke-width:0.92243534;stroke-miterlimit:4;stroke-dasharray:none;stroke-opacity:1"
         id="rect3444"
         width="20.614058"
         height="12.483703"
         x="171.99832"
         y="239.1203" />
    </clipPath>
  </defs>
  <sodipodi:namedview
     id="base"
     pagecolor="#ffffff"
     bordercolor="#999999"
     borderopacity="1"
     gridtolerance="10000"
     guidetolerance="10"
     objecttolerance="10"
     inkscape:pageopacity="0.0"
     inkscape:pageshadow="2"
     inkscape:zoom="7.7312017"
     inkscape:cx="20.04863"
     inkscape:cy="12.158524"
     inkscape:document-units="px"
     inkscape:current-layer="layer1"
     width="80px"
     height="15px"
     showborder="true"
     inkscape:showpageshadow="false"
     inkscape:window-width="2560"
     inkscape:window-height="1440"
     inkscape:window-x="0"
     inkscape:window-y="0"
     inkscape:pagecheckerboard="0"
     inkscape:deskcolor="#d1d1d1"
     inkscape:window-maximized="0" />
  <metadata
     id="metadata2284">
    <rdf:RDF>
      <cc:Work
         rdf:about="">
        <dc:format>image/svg+xml</dc:format>
        <dc:type
           rdf:resource="http://purl.org/dc/dcmitype/StillImage" />
      </cc:Work>
    </rdf:RDF>
  </metadata>
  <g
     inkscape:label="Layer 1"
     inkscape:groupmode="layer"
     id="layer1">
    <g
       id="BY"
       transform="matrix(0.9875019,0,0,0.9333518,-323.90064,-271.87688)">
      <g
         transform="translate(158,54)"
         id="g3693"
         style="display:inline">
        <rect
           y="237.86218"
           x="170.5"
           height="15"
           width="80"
           id="rect3695"
           style="display:inline;fill:#ffffff;fill-opacity:1;stroke:#4d4d4d;stroke-width:1.04162;stroke-miterlimit:4;stroke-dasharray:none;stroke-opacity:1" />
        <rect
           style="display:inline;fill:#4d4d4d;fill-opacity:1;stroke:none;stroke-width:0.922435;stroke-miterlimit:4;stroke-dasharray:none;stroke-opacity:1"
           id="rect3697"
           width="77"
           height="12"
           x="172"
           y="239.36218" />
        <path
           sodipodi:nodetypes="cccscc"
           id="path3699"
           d="m 171.99996,239.37505 v 12 h 20.33478 c 1.30865,-1.75031 2.19178,-3.78448 2.19178,-6 0,-2.20074 -0.86793,-4.25715 -2.16053,-6 z"
           style="display:inline;fill:#9a9a9a;fill-opacity:1;stroke:none;stroke-width:1;stroke-miterlimit:4;stroke-dasharray:none;stroke-opacity:0.469136" />
        <g
           clip-path="url(#clipPath3442)"
           transform="matrix(0.9612533,0,0,0.9612533,6.8341566,9.5069994)"
           id="g3701"
           style="display:inline">
          <path
             style="opacity:1;fill:#ffffff"
             d="m 190.06417,245.36206 c 0.002,3.89199 -3.15091,7.04866 -7.04264,7.05117 -3.89174,0.002 -7.04891,-3.15067 -7.05117,-7.04263 0,-0.003 0,-0.006 0,-0.009 -0.002,-3.89199 3.1509,-7.04866 7.04264,-7.05093 3.89224,-0.002 7.04891,3.15068 7.05117,7.04267 0,0.002 0,0.005 0,0.008 z"
             rx="22.939548"
             type="arc"
             cy="264.3577"
             ry="22.939548"
             cx="296.35416"
             id="path3703" />
          <path
             style="display:inline;opacity:1;fill:#4d4d4d;fill-opacity:1"
             id="path3705"
             d="m 188.74576,239.62226 c 1.56267,1.56266 2.34412,3.47643 2.34412,5.7398 0,2.26386 -0.76791,4.15707 -2.30373,5.67959 -1.62988,1.60356 -3.5562,2.40507 -5.77893,2.40507 -2.1959,0 -4.08885,-0.795 -5.67835,-2.38498 -1.58975,-1.58976 -2.38451,-3.48948 -2.38451,-5.69968 0,-2.20971 0.79476,-4.12298 2.38451,-5.7398 1.54912,-1.56316 3.44207,-2.34462 5.67835,-2.34462 2.26338,0 4.1759,0.78145 5.73854,2.34462 z m -10.36483,1.05129 c -1.32115,1.33445 -1.98148,2.89761 -1.98148,4.69074 0,1.79265 0.65381,3.34253 1.96117,4.64964 1.3076,1.3076 2.86425,1.96116 4.67043,1.96116 1.80619,0 3.37611,-0.66007 4.71056,-1.98097 1.26699,-1.22687 1.90073,-2.76945 1.90073,-4.62983 0,-1.8463 -0.64403,-3.41345 -1.93133,-4.70075 -1.28705,-1.28705 -2.84695,-1.93084 -4.67996,-1.93084 -1.83301,1e-5 -3.38338,0.64705 -4.65012,1.94085 z m 3.47668,3.90204 c -0.20188,-0.44014 -0.50407,-0.66034 -0.9071,-0.66034 -0.71249,0 -1.06861,0.47976 -1.06861,1.43879 0,0.95924 0.35612,1.43851 1.06861,1.43851 0.47049,0 0.80654,-0.23347 1.00818,-0.70144 l 0.9876,0.5259 c -0.47074,0.83638 -1.17695,1.25467 -2.11866,1.25467 -0.72627,0 -1.3081,-0.22269 -1.74498,-0.66759 -0.43763,-0.44539 -0.65581,-1.05932 -0.65581,-1.84203 0,-0.76893 0.2252,-1.37935 0.67587,-1.8315 0.45067,-0.45218 1.01192,-0.67816 1.68479,-0.67816 0.99538,0 1.70811,0.39225 2.13897,1.17595 z m 4.64637,0 c -0.20214,-0.44014 -0.49831,-0.66034 -0.88881,-0.66034 -0.72678,0 -1.09043,0.47976 -1.09043,1.43879 0,0.95924 0.36365,1.43851 1.09043,1.43851 0.47125,0 0.80127,-0.23347 0.98963,-0.70144 l 1.00967,0.5259 c -0.46999,0.83638 -1.17521,1.25467 -2.11516,1.25467 -0.72528,0 -1.30585,-0.22269 -1.74248,-0.66759 -0.43587,-0.44539 -0.65429,-1.05932 -0.65429,-1.84203 0,-0.76893 0.22168,-1.37935 0.66483,-1.8315 0.44289,-0.45218 1.00667,-0.67816 1.69183,-0.67816 0.99362,0 1.70535,0.39225 2.1347,1.17595 z" />
        </g>
      </g>
      <path
         id="text3707"
         d="M 357.4197,298.68502 C 357.66518,298.68503 357.85131,298.63145 357.9781,298.52427 C 358.10488,298.41711 358.16827,298.25904 358.16828,298.05007 C 358.16827,297.84377 358.10488,297.68704 357.9781,297.57987 C 357.85131,297.47003 357.66518,297.41511 357.4197,297.4151 L 356.55784,297.4151 L 356.55784,298.68502 L 357.4197,298.68502 M 357.4723,301.30928 C 357.78522,301.30928 358.0199,301.24363 358.17637,301.11235 C 358.33552,300.98108 358.4151,300.78282 358.4151,300.51758 C 358.4151,300.2577 358.33686,300.06346 358.18041,299.93486 C 358.02396,299.80358 357.78792,299.73795 357.4723,299.73794 L 356.55784,299.73794 L 356.55784,301.30928 L 357.4723,301.30928 M 358.92089,299.15121 C 359.25538,299.24766 359.51434,299.42582 359.69779,299.6857 C 359.88121,299.94558 359.97293,300.26439 359.97294,300.64216 C 359.97293,301.22086 359.776,301.6522 359.38217,301.9362 C 358.98833,302.22019 358.38947,302.36218 357.5856,302.36218 L 355.00001,302.36218 L 355.00001,296.36218 L 357.33878,296.36218 C 358.17771,296.36219 358.78466,296.48811 359.15962,296.73995 C 359.53727,296.9918 359.7261,297.39501 359.7261,297.94959 C 359.7261,298.24163 359.65732,298.49079 359.51975,298.69708 C 359.38217,298.9007 359.18255,299.05208 358.92089,299.15121 M 359.83746,296.36218 L 361.54096,296.36218 L 362.91671,298.50016 L 364.29245,296.36218 L 366,296.36218 L 363.69764,299.83439 L 363.69764,302.36218 L 362.13982,302.36218 L 362.13982,299.83439 L 359.83746,296.36218"
         style="font-size:8.25858784px;font-style:normal;font-weight:bold;fill:#ffffff;fill-opacity:1;stroke:none;stroke-width:1px;stroke-linecap:butt;stroke-linejoin:miter;stroke-opacity:1;font-family:'Bitstream Vera Sans'" />
    </g>
  </g>
</svg>
