<?xml version="1.0" encoding="UTF-8" standalone="no"?>
<!-- Created with Inkscape (http://www.inkscape.org/) -->

<svg
   width="31.475138mm"
   height="31.055885mm"
   viewBox="0 0 31.475138 31.055886"
   version="1.1"
   id="svg1"
   inkscape:version="1.4.2 (ebf0e94, 2025-05-08)"
   sodipodi:docname="arachnae.svg"
   xmlns:inkscape="http://www.inkscape.org/namespaces/inkscape"
   xmlns:sodipodi="http://sodipodi.sourceforge.net/DTD/sodipodi-0.dtd"
   xmlns:xlink="http://www.w3.org/1999/xlink"
   xmlns="http://www.w3.org/2000/svg"
   xmlns:svg="http://www.w3.org/2000/svg">
  <sodipodi:namedview
     id="namedview1"
     pagecolor="#505050"
     bordercolor="#eeeeee"
     borderopacity="1"
     inkscape:showpageshadow="0"
     inkscape:pageopacity="0"
     inkscape:pagecheckerboard="0"
     inkscape:deskcolor="#d1d1d1"
     inkscape:document-units="mm"
     inkscape:zoom="9.1936027"
     inkscape:cx="38.505036"
     inkscape:cy="64.936459"
     inkscape:window-width="2560"
     inkscape:window-height="1440"
     inkscape:window-x="0"
     inkscape:window-y="0"
     inkscape:window-maximized="1"
     inkscape:current-layer="svg1" />
  <defs
     id="defs1">
    <radialGradient
       inkscape:collect="always"
       xlink:href="#linearGradient16685"
       id="radialGradient16687"
       cx="51.758484"
       cy="518.1402"
       fx="51.758484"
       fy="518.1402"
       r="40.918346"
       gradientTransform="matrix(0.30983732,0,0,-0.32575892,64.106276,250.66707)"
       gradientUnits="userSpaceOnUse" />
    <linearGradient
       inkscape:collect="always"
       id="linearGradient16685">
      <stop
         style="stop-color:#cf66d4;stop-opacity:1;"
         offset="0"
         id="stop16681" />
      <stop
         style="stop-color:#4d3059;stop-opacity:1;"
         offset="1"
         id="stop16683" />
    </linearGradient>
  </defs>
  <path
     style="display:inline;fill:url(#radialGradient16687);fill-opacity:1;stroke-width:0.352777"
     d="m 74.878334,105.43537 c 0,-0.33662 0.0769,-1.00545 0.160223,-1.39358 0.05805,-0.2704 0.190952,-0.74643 0.278468,-0.99743 0.269073,-0.7717 0.575928,-1.36371 1.074951,-2.0739 0.263836,-0.37548 0.412524,-0.56064 0.767018,-0.95518 0.134897,-0.150138 0.263804,-0.294512 0.286462,-0.320823 l 0.0412,-0.04784 0.189707,0.0087 c 0.227463,0.01051 0.509504,0.05052 0.672502,0.09551 0.123694,0.03415 0.319824,0.109424 0.37434,0.143686 0.01732,0.0109 0.03143,0.0145 0.03136,0.0079 -0.001,-0.09461 -0.374804,-1.266391 -0.482938,-1.513945 -0.104812,-0.239935 -0.205316,-0.374739 -0.435668,-0.584349 -0.171398,-0.155959 -0.2178,-0.200448 -0.402191,-0.385579 -0.139892,-0.140458 -0.30248,-0.255037 -0.488714,-0.344413 -0.167441,-0.08035 -0.304585,-0.119648 -0.47839,-0.137061 -0.373144,-0.03738 -0.660745,0.08146 -0.869919,0.359452 -0.269806,0.358578 -0.455223,1.034415 -0.529224,1.929003 -0.0623,0.753181 -0.06494,1.887679 -0.0062,2.660129 l 0.01512,0.19883 -0.04802,0.10969 c -0.114961,0.26263 -0.228606,0.58546 -0.39822,1.13124 -0.01058,0.0341 -0.01533,-4.130838 -0.01635,-14.332466 l -0.0014,-14.38046 13.850612,0.0021 c 7.617836,0.0014 13.645957,0.0067 13.395807,0.01185 -0.51288,0.01062 -0.67501,0.02431 -0.96559,0.08167 -0.1116,0.02205 -0.28163,0.0528 -0.37784,0.06836 -1.065719,0.172427 -1.772552,0.448846 -2.553919,0.998731 -0.352658,0.248187 -0.80499,0.723167 -0.959909,1.007968 -0.04046,0.07439 -0.04426,0.09181 -0.04179,0.191971 0.0014,0.06058 0.0121,0.1498 0.02356,0.198254 0.02307,0.09753 0.15644,0.367118 0.324976,0.65696 0.06052,0.104087 0.13003,0.226268 0.154467,0.271523 0.07371,0.136454 0.478504,0.483037 1.084467,0.9285 0.999448,0.734723 1.669738,1.065417 2.454758,1.211097 0.14068,0.02614 0.27294,0.04757 0.29391,0.0477 0.0407,2.57e-4 0.0968,0.01154 0.43696,0.08796 0.36873,0.08283 0.57609,0.10584 0.95859,0.106337 0.18472,2.4e-4 0.40198,-0.007 0.4828,-0.01605 0.32829,-0.0369 0.73509,-0.134278 1.01456,-0.242898 0.27929,-0.108557 0.68394,-0.330747 0.95951,-0.526863 0.0916,-0.06521 0.092,-0.06533 0.14685,-0.04687 0.0342,0.01154 0.0636,0.01397 0.0779,0.0065 0.0218,-0.0114 0.20005,0.05235 0.4326,0.154728 0.0616,0.02713 0.24488,0.131036 0.27931,0.158366 0.0204,0.01616 -0.0853,0.07527 -0.18582,0.103882 -0.26167,0.07448 -0.36188,0.105559 -0.53487,0.165912 -0.27052,0.09437 -0.60152,0.202667 -0.85364,0.279301 -0.12315,0.03742 -0.26128,0.08155 -0.30694,0.09804 -0.0457,0.01651 -0.15272,0.03893 -0.2379,0.04986 -0.56969,0.07314 -1.08165,0.198427 -1.47755,0.361594 -0.46207,0.19044 -0.79224,0.390207 -1.17075,0.708363 -0.0706,0.05938 -0.16666,0.138808 -0.21337,0.176516 -0.25952,0.209508 -0.62721,0.69958 -0.84598,1.127587 -0.445519,0.871584 -0.702335,1.880225 -0.791697,3.109423 -0.01923,0.264435 -0.03848,0.82018 -0.03302,0.952983 0.0332,0.80802 0.04803,1.004291 0.110286,1.460327 0.05401,0.395605 0.152802,0.861518 0.26428,1.246276 0.02681,0.09251 0.06435,0.277576 0.0848,0.417851 0.04062,0.27874 0.0587,0.345129 0.168121,0.617283 0.18045,0.448864 0.28975,0.698207 0.33127,0.755714 0.15593,0.215984 0.42412,0.491581 0.68293,0.701802 0.32875,0.267035 0.9133,0.664771 1.28045,0.871241 0.23011,0.129399 0.66236,0.34327 0.81584,0.403648 0.30829,0.121292 0.6417,0.206573 0.93833,0.240002 l 0.10286,0.01161 -0.0448,0.05485 c -0.0756,0.09262 -0.0966,0.149049 -0.13386,0.3594 -0.0198,0.111534 -0.051,0.279915 -0.0694,0.374191 -0.036,0.184108 -0.14025,0.561047 -0.16085,0.58148 -0.007,0.0074 -0.0228,-0.0059 -0.0376,-0.03281 -0.11493,-0.207003 -0.44373,-0.63718 -0.67107,-0.877969 -0.78926,-0.835949 -2.02413,-1.544479 -3.223387,-1.849483 -0.501925,-0.127656 -0.84092,-0.169058 -1.672287,-0.204251 -0.376587,-0.01595 -0.997842,0.0133 -1.413397,0.06651 -0.421284,0.05394 -0.649331,0.109072 -1.16228,0.280967 -0.569234,0.190746 -0.778971,0.270975 -1.131737,0.432897 -0.730673,0.335382 -1.286922,0.671858 -1.839218,1.11253 -0.498195,0.39751 -0.909202,0.802139 -1.316743,1.296307 l -0.17297,0.209737 -0.0465,-0.04416 c -0.03843,-0.03652 -0.04358,-0.0479 -0.0297,-0.06576 0.102212,-0.131421 0.762362,-0.796385 1.097702,-1.105708 0.605848,-0.558839 1.726062,-1.418915 2.44825,-1.879713 0.767312,-0.489596 1.643829,-0.933461 2.419662,-1.225314 0.47632,-0.179179 1.088055,-0.341319 1.632362,-0.432646 0.117846,-0.01979 0.216024,-0.03761 0.218169,-0.03967 0.0021,-0.0018 -0.104906,-0.10511 -0.237896,-0.229033 -0.798392,-0.743963 -1.228294,-1.031621 -2.158989,-1.444629 -0.123148,-0.05465 -0.330957,-0.149056 -0.461802,-0.209786 -0.225269,-0.104553 -0.685869,-0.294496 -0.892202,-0.367926 -0.052,-0.01852 -0.173439,-0.07388 -0.269872,-0.12306 -0.121771,-0.0621 -0.21548,-0.09916 -0.30676,-0.12131 -0.07228,-0.01753 -0.137488,-0.03558 -0.144897,-0.04004 -0.03519,-0.02131 -0.247063,-0.05319 -0.519161,-0.07812 -0.164818,-0.0151 -0.30373,-0.02992 -0.308693,-0.03292 -0.01701,-0.01027 -0.34321,0.07312 -0.511161,0.130733 -0.919979,0.315545 -1.96251,0.950129 -2.827242,1.720913 -0.09261,0.08254 -0.198599,0.165086 -0.235544,0.183431 -0.07178,0.03564 -0.344766,0.304842 -0.344766,0.339986 0,0.04288 0.394533,0.486 0.638405,0.717035 0.27671,0.262131 0.587084,0.511033 0.963914,0.773006 0.582177,0.404721 0.894738,0.638052 0.825649,0.616356 -0.03455,-0.01087 -0.718905,-0.335139 -1.609316,-0.762586 -0.369443,-0.177359 -0.819702,-0.388327 -1.000574,-0.46882 -0.180873,-0.0805 -0.334608,-0.151889 -0.341633,-0.158637 -0.0076,-0.0073 -0.04055,0.02639 -0.08154,0.08335 -0.03782,0.0526 -0.07387,0.09254 -0.08012,0.08876 -0.0062,-0.0038 -0.02567,0.02854 -0.04315,0.07183 -0.01749,0.04329 -0.08666,0.171256 -0.153706,0.284385 -0.639875,1.079574 -1.209942,2.8228 -1.349168,4.125655 -0.01199,0.112215 -0.022,0.214023 -0.02223,0.226247 -0.0011,0.05767 -0.02563,-0.02776 -0.04085,-0.142322 -0.02072,-0.155941 -0.06281,-0.352294 -0.105831,-0.493631 -0.01836,-0.06033 -0.04912,-0.181201 -0.06835,-0.268594 -0.14742,-0.669886 -0.582441,-1.10023 -1.162952,-1.150447 -0.167144,-0.0145 -0.37772,0.0014 -0.525134,0.03981 -0.47652,0.123817 -1.09276,0.531911 -1.651187,1.093473 -0.119434,0.120103 -0.279677,0.295236 -0.356094,0.389188 -0.07642,0.09394 -0.177063,0.210972 -0.223658,0.26005 -0.419645,0.442062 -1.017717,1.433936 -1.240114,2.056684 -0.01751,0.04903 -0.03756,0.09652 -0.04457,0.105562 -0.01341,0.01729 -0.152263,0.06179 -0.162254,0.052 -0.0095,-0.0093 0.118469,-0.388867 0.228417,-0.677873 0.196954,-0.517719 0.462861,-1.092644 0.940878,-2.034297 0.17153,-0.337904 0.311873,-0.625965 0.311873,-0.640154 0,-0.06189 -0.425391,-0.515672 -0.671714,-0.716537 -0.390703,-0.318604 -0.840242,-0.535277 -1.301748,-0.627429 -0.270595,-0.05403 -0.756809,-0.06097 -0.971358,-0.01386 -0.03601,0.0079 -0.151703,0.0236 -0.257102,0.03485 -0.340909,0.03648 -0.54785,0.08564 -0.86335,0.205126 -0.704438,0.266802 -1.409426,0.738113 -1.739926,1.163207 -0.45607,0.58661 -0.552848,1.134142 -0.305883,1.73058 0.03426,0.08274 0.0701,0.175126 0.07964,0.205288 0.03311,0.104659 0.194052,0.412147 0.293581,0.560896 0.303848,0.454106 0.717361,0.858537 1.14039,1.115338 0.150564,0.0914 0.426398,0.223298 0.553184,0.26452 0.24803,0.08065 0.571955,0.115972 0.872268,0.09512 0.162036,-0.01125 0.666868,-0.08154 0.786027,-0.109443 0.141828,-0.0332 0.966954,-0.05853 1.355246,-0.0416 0.279311,0.01217 0.714146,0.05601 0.732308,0.0738 0.0028,0.0025 -0.14149,0.0092 -0.320568,0.0145 -0.636887,0.01866 -1.097387,0.07662 -1.658274,0.208699 -1.109122,0.261186 -2.239341,0.854255 -3.159415,1.657868 -0.336308,0.29374 -0.918762,0.8802 -1.177671,1.18578 -0.640999,0.75653 -1.095479,1.54591 -1.365764,2.37217 -0.03824,0.1169 -0.11298,0.34062 -0.166093,0.49716 -0.126531,0.37293 -0.199845,0.6196 -0.251493,0.84616 -0.02316,0.10155 -0.04493,0.18743 -0.0484,0.19082 -0.0035,0.004 -0.0063,-0.10156 -0.0063,-0.23323 z m 0.517118,-8.664615 c 0.371685,-0.05153 0.938132,-0.299702 1.097367,-0.480772 0.145553,-0.165513 0.157313,-0.300052 0.04514,-0.516456 -0.107026,-0.206488 -0.275167,-0.356549 -0.547101,-0.48828 -0.283086,-0.137128 -0.979497,-0.334638 -1.107925,-0.314219 -0.04394,0.007 -0.04664,0.01041 -0.03966,0.05022 0.0041,0.02349 0.03879,0.403694 0.07704,0.844878 0.03825,0.441184 0.07314,0.822529 0.07753,0.847435 0.009,0.05085 0.01843,0.05635 0.122008,0.07086 0.07783,0.0109 0.109886,0.0093 0.2756,-0.01365 z m 2.600318,-2.633786 c 0.860589,-0.558563 1.233823,-0.808125 1.234189,-0.825249 2.89e-4,-0.01348 -0.01186,-0.04831 -0.02698,-0.07737 -0.11772,-0.226102 -0.807746,-0.468055 -1.462963,-0.512981 -0.405297,-0.02776 -0.661852,0.0194 -0.915754,0.168268 -0.161268,0.09458 -0.276377,0.228148 -0.372739,0.432505 -0.06215,0.131798 -0.08754,0.230481 -0.102458,0.398057 -0.02802,0.314907 0.04393,0.631649 0.22288,0.98105 0.10226,0.199669 0.136749,0.250106 0.165921,0.242627 0.01333,-0.0035 0.579389,-0.366526 1.257904,-0.806909 z m -1.956142,0.217414 c -5.99e-4,-0.04611 -0.164034,-1.039647 -0.172396,-1.047842 -0.01563,-0.01528 -0.165062,-0.0067 -0.27433,0.01584 -0.341686,0.07043 -0.631124,0.23617 -0.670786,0.384115 -0.04915,0.183335 0.13957,0.375158 0.518139,0.526665 0.233652,0.09351 0.599948,0.167594 0.599373,0.121229 z m 8.872441,-0.454135 c 0.473348,-0.138969 0.882675,-0.258766 0.909614,-0.266202 0.02694,-0.0074 0.344953,-0.100789 0.706699,-0.207451 0.987657,-0.291204 1.116074,-0.328715 1.158008,-0.338233 0.03001,-0.0068 0.03849,-0.01672 0.03853,-0.04497 2.7e-5,-0.01993 0.04146,-0.134948 0.09208,-0.255612 0.198322,-0.47274 0.229783,-0.600897 0.256191,-1.043573 0.01265,-0.212122 6e-4,-0.564272 -0.02734,-0.798467 -0.03091,-0.259076 -0.09171,-0.408397 -0.182666,-0.448589 -0.07065,-0.03122 -0.265912,-0.0308 -0.390372,7.06e-4 -0.189076,0.048 -0.515412,0.225023 -0.790489,0.428801 -0.220572,0.1634 -0.291275,0.225312 -0.559763,0.490185 -0.575201,0.567447 -1.036744,1.132463 -1.58147,1.936009 -0.157389,0.23217 -0.329238,0.483831 -0.381887,0.559245 -0.09488,0.135904 -0.155813,0.257168 -0.123725,0.246214 0.0088,-0.0028 0.403249,-0.119158 0.876598,-0.258135 z m -0.778846,-0.837589 c 0.48692,-0.458467 0.639124,-0.60941 0.636007,-0.630753 -0.01842,-0.126132 -0.701817,-0.296555 -1.193593,-0.29766 -0.375053,-7.05e-4 -0.537414,0.06515 -0.628739,0.255531 -0.0938,0.195549 -0.06237,0.445714 0.09651,0.76823 0.0766,0.155487 0.168749,0.291218 0.3103,0.457035 0.07864,0.09213 0.08238,0.09459 0.110406,0.07283 0.01595,-0.01235 0.317053,-0.29373 0.66911,-0.625214 z m -4.021114,0.233076 c 0.311718,-0.04164 0.590403,-0.07941 0.619301,-0.08393 l 0.05254,-0.0082 -0.05643,-0.106275 c -0.137939,-0.259796 -0.393917,-0.46931 -0.574323,-0.470086 -0.08941,-3.43e-4 -0.171326,0.04456 -0.279015,0.153105 -0.115288,0.116202 -0.224861,0.271219 -0.293844,0.415713 -0.06511,0.136388 -0.08146,0.191421 -0.05404,0.181977 0.01047,-0.0038 0.274092,-0.04063 0.585808,-0.08227 z m -4.855654,-0.858364 c 0.225067,-0.0606 0.426918,-0.184249 0.475946,-0.291543 0.04197,-0.09186 0.0016,-0.169757 -0.144101,-0.277714 -0.162716,-0.1206 -0.375523,-0.202963 -0.484084,-0.187353 -0.03624,0.0052 -0.04251,0.01129 -0.03674,0.03561 0.0054,0.02282 0.0624,0.694383 0.06268,0.738907 9.5e-5,0.01478 0.01008,0.01341 0.126293,-0.01789 z m 23.676484,-2.270986 c 0.03027,-0.144614 0.05165,-0.275735 0.04748,-0.29138 -0.0042,-0.01566 -0.0014,-0.02847 0.0059,-0.02847 0.0074,0 0.01736,-0.05707 0.02208,-0.126834 0.0048,-0.06976 0.02738,-0.278013 0.05035,-0.462777 0.08489,-0.682869 0.09395,-0.808786 0.112962,-1.570024 0.02903,-1.162363 0.0837,-1.887354 0.217597,-2.886381 0.09596,-0.715854 0.142198,-1.135648 0.182005,-1.652295 0.01986,-0.257415 0.06556,-0.725251 0.0928,-0.949512 0.01672,-0.137608 0.02628,-0.254233 0.02127,-0.259158 -0.01944,-0.01901 -0.40621,-0.03013 -0.646335,-0.01845 -0.337619,0.01637 -0.700913,0.06358 -1.215711,0.157985 -0.390483,0.07161 -0.767803,0.199993 -1.114298,0.379148 -0.550954,0.284864 -0.993431,0.584048 -1.375329,0.929918 -0.157034,0.142223 -0.477337,0.465522 -0.551523,0.556683 -0.03743,0.04599 -0.0789,0.09425 -0.09216,0.107245 -0.01326,0.01298 -0.02415,0.0278 -0.02418,0.03291 0,0.0051 -0.0207,0.03133 -0.04592,0.05821 -0.04736,0.05053 -0.09067,0.11062 -0.250313,0.347373 -0.05136,0.07617 -0.09859,0.144653 -0.104955,0.152203 -0.03156,0.03738 -0.178785,0.34908 -0.236404,0.500482 -0.07591,0.199482 -0.106408,0.358531 -0.109099,0.569048 -0.0038,0.298507 0.03835,0.484025 0.155087,0.682473 l 0.06269,0.10656 -0.02178,0.05333 c -0.02132,0.0522 -0.02095,0.05443 0.01752,0.105971 0.06027,0.08075 0.273321,0.274704 0.421279,0.383529 0.138891,0.102161 0.225859,0.162585 0.62776,0.436164 0.408815,0.278296 0.605914,0.419851 0.663736,0.476698 0.01377,0.01355 0.02953,0.02466 0.03498,0.02469 0.0055,4.6e-5 0.03245,0.02007 0.05994,0.04457 0.0275,0.02448 0.115655,0.09633 0.195916,0.159678 0.08026,0.06335 0.152222,0.121966 0.159921,0.130266 0.0077,0.0083 0.09271,0.07961 0.188918,0.158479 0.09621,0.07887 0.196967,0.163043 0.223905,0.187064 0.03799,0.03387 0.63137,0.53722 0.825641,0.70038 0.01923,0.01612 0.110557,0.09318 0.202921,0.171161 0.09236,0.07797 0.186331,0.157201 0.208813,0.176053 0.02244,0.01884 0.05099,0.04354 0.06335,0.05485 0.01238,0.01129 0.08528,0.07272 0.162034,0.136465 0.07675,0.06374 0.149596,0.125445 0.161872,0.137122 0.09815,0.09335 0.534339,0.415776 0.540812,0.399771 0.0018,-0.0046 0.02815,-0.126647 0.05844,-0.271265 z m -7.846836,-1.547051 1.84086,-0.987259 -0.02437,-0.03429 c -0.0134,-0.01884 -0.0446,-0.07373 -0.06934,-0.121951 -0.140828,-0.274536 -1.014387,-0.963105 -1.553896,-1.22482 -0.383798,-0.186186 -0.614917,-0.245915 -0.951595,-0.245929 -0.232792,-10e-6 -0.392959,0.02388 -0.580753,0.08649 -0.167317,0.05581 -0.37775,0.162543 -0.509038,0.258163 -0.470035,0.34236 -0.785435,1.001028 -0.860256,1.796521 -0.01716,0.182443 -0.01655,0.211254 0.0074,0.349659 0.05786,0.334419 0.126126,0.537563 0.26057,0.77536 0.07414,0.131124 0.195197,0.29791 0.296402,0.408358 l 0.05437,0.05934 0.124391,-0.06619 c 0.06842,-0.03641 0.95278,-0.510462 1.965253,-1.053458 z m 2.02526,-2.366412 c 0.04166,-0.0069 0.07697,-0.01407 0.07847,-0.01598 0.0015,-0.0018 0.01623,-0.04331 0.03275,-0.09198 0.02402,-0.07078 0.06368,-0.404445 0.198001,-1.666007 0.09238,-0.867629 0.171298,-1.593236 0.175372,-1.612459 0.0067,-0.03147 -7.4e-4,-0.03878 -0.07355,-0.07278 -0.113681,-0.05311 -0.219242,-0.06437 -0.388831,-0.04147 -0.268288,0.03623 -0.536038,0.127727 -0.823223,0.281305 -0.532976,0.285013 -0.853051,0.615781 -1.063907,1.09945 -0.110719,0.253971 -0.156473,0.509654 -0.133569,0.7464 0.01622,0.16764 0.04391,0.26145 0.128313,0.434682 0.114274,0.234551 0.215617,0.360525 0.403727,0.501855 0.298975,0.224627 0.73564,0.39353 1.145805,0.443198 0.147019,0.01778 0.179034,0.01718 0.320643,-0.0062 z m -2.055905,-0.616384 c 0,-0.03493 -0.04679,-0.117115 -0.122555,-0.215282 -0.11201,-0.145126 -0.153979,-0.206689 -0.285121,-0.418239 -0.147994,-0.238739 -0.203348,-0.308773 -0.271036,-0.342932 -0.156099,-0.07876 -0.304247,0.0063 -0.467564,0.268485 -0.125185,0.20096 -0.304082,0.560857 -0.34362,0.691268 l -0.0094,0.03087 h 0.749624 c 0.505973,0 0.749625,-0.0046 0.749625,-0.01415 z m -0.304977,-2.063965 c 0.04392,-0.01041 0.135234,-0.04621 0.202913,-0.07952 0.105488,-0.05192 0.265892,-0.175613 1.123629,-0.866419 0.550316,-0.443208 1.004624,-0.811889 1.009571,-0.819287 0.0094,-0.01411 -0.185062,-0.592314 -0.344619,-1.024414 -0.303939,-0.823101 -0.548711,-1.310195 -0.90338,-1.797727 -0.09154,-0.125836 -0.09855,-0.132084 -0.156773,-0.139908 -0.108824,-0.01464 -0.337143,0.02731 -0.498327,0.09147 -0.121263,0.04828 -0.316436,0.163989 -0.414433,0.245692 -0.348694,0.290721 -0.727501,0.945074 -1.142303,1.97322 l -0.08123,0.201345 -0.0231,0.333417 c -0.02943,0.424744 -0.02953,0.776319 -2.65e-4,0.922898 0.03146,0.157561 0.08427,0.303823 0.168046,0.465364 0.169161,0.326213 0.368001,0.490488 0.623567,0.515154 0.133533,0.01288 0.333791,0.0028 0.436709,-0.02127 z m 4.888028,-1.734753 c 0.547505,-0.03561 1.466674,-0.164609 2.099106,-0.294576 0.05388,-0.01104 0.192419,-0.03921 0.307869,-0.06254 0.115454,-0.02335 0.26344,-0.05351 0.328863,-0.06705 0.06542,-0.01358 0.181921,-0.03731 0.25889,-0.05283 0.07697,-0.01552 0.250144,-0.05039 0.384838,-0.07753 0.32742,-0.06598 0.59183,-0.124393 0.685705,-0.1515 0.04233,-0.01217 0.09272,-0.02353 0.111957,-0.02512 0.05371,-0.0044 0.103008,-0.02381 0.122389,-0.04808 0.01605,-0.02011 0.01916,-0.01997 0.03623,0.0014 0.01027,0.01291 0.02445,0.01849 0.03147,0.01231 0.007,-0.0062 0.0412,-0.01834 0.0758,-0.02695 0.16073,-0.04028 0.47835,-0.126252 0.56676,-0.153409 0.0539,-0.01654 0.11842,-0.03313 0.14344,-0.03682 0.0521,-0.0077 0.0506,-0.0051 0.0292,-0.05119 -0.0172,-0.03693 -0.0262,-0.04043 -0.23432,-0.09047 -0.594829,-0.143038 -1.1666,-0.436644 -1.77153,-0.909673 -0.541076,-0.423108 -1.183495,-1.102099 -1.405703,-1.485738 -0.09591,-0.16558 -0.248588,-0.365435 -0.451209,-0.59061 -0.147666,-0.164098 -0.282336,-0.258797 -0.567271,-0.398889 -0.397448,-0.195411 -0.721317,-0.283065 -1.190051,-0.322069 -0.337382,-0.02808 -0.573914,0.01743 -0.957678,0.184316 -0.359092,0.156143 -0.620726,0.312357 -0.927747,0.553918 -0.295287,0.232329 -0.478439,0.432742 -0.62868,0.687938 -0.07702,0.130824 -0.179248,0.357134 -0.178978,0.396233 3.07e-4,0.04451 0.08358,0.327585 0.159337,0.541619 0.230162,0.650321 0.514896,1.20298 0.879535,1.707145 0.07636,0.105586 0.190705,0.269099 0.254097,0.363375 0.13305,0.197859 0.135934,0.199852 0.417305,0.288442 0.389717,0.122703 0.762163,0.151094 1.420396,0.108267 z m -6.059662,-1.531715 c 0.03835,-0.118597 0.111228,-0.340617 0.161945,-0.493377 0.104154,-0.313715 0.106022,-0.287211 -0.02478,-0.35143 -0.167495,-0.08224 -0.424603,-0.07136 -0.621634,0.02632 -0.108977,0.05402 -0.154963,0.124855 -0.154535,0.238058 4.59e-4,0.126351 0.07649,0.265938 0.312689,0.574195 0.130713,0.170586 0.185718,0.220857 0.242584,0.221689 0.0077,1.2e-4 0.04537,-0.09682 0.08373,-0.215427 z m 1.468573,-1.54819 c 0.558053,-0.260893 0.66273,-0.305527 0.688998,-0.293807 0.02646,0.01182 0.03168,0.0095 0.03579,-0.0163 0.0096,-0.06033 -0.03429,-0.178495 -0.162973,-0.438414 -0.142977,-0.288802 -0.221348,-0.402865 -0.39555,-0.575705 -0.116667,-0.115757 -0.164375,-0.149828 -0.252401,-0.180259 -0.05373,-0.01859 -0.0591,-0.01771 -0.126215,0.01983 -0.180046,0.10075 -0.408312,0.56673 -0.51543,1.052202 -0.06575,0.297977 -0.09701,0.674599 -0.06316,0.761019 l 0.01492,0.03809 0.059,-0.02949 c 0.03245,-0.01619 0.355112,-0.167929 0.717026,-0.337125 z m 6.168073,-2.621252 0.511408,-0.31327 -0.04759,-0.05614 c -0.09563,-0.112808 -0.341407,-0.26283 -0.529445,-0.323173 -0.269988,-0.08664 -0.56092,-0.03108 -0.663219,0.126601 -0.103042,0.158853 -0.09988,0.385915 0.0083,0.597571 0.0506,0.09897 0.176385,0.281442 0.194098,0.281569 0.0083,6e-5 0.245142,-0.140857 0.526419,-0.313161 z m -7.792787,28.041347 c -0.104071,-0.17156 -0.163047,-0.28819 -0.243929,-0.48233 -0.292234,-0.70147 -0.779875,-1.43486 -1.376937,-2.07086 -0.05388,-0.0574 -0.148171,-0.16255 -0.209543,-0.23368 -0.319127,-0.36989 -0.910178,-0.90321 -1.271661,-1.14745 -0.04454,-0.0301 -0.0874,-0.0785 -0.132018,-0.14906 -0.146146,-0.231153 -0.286839,-0.39014 -0.499879,-0.564849 -0.06927,-0.05682 -0.132244,-0.108712 -0.139941,-0.115337 -0.02527,-0.02173 0.08149,0.02716 0.216908,0.09942 0.22379,0.11938 0.382652,0.213878 0.662387,0.394031 0.14752,0.09503 0.324894,0.203135 0.394164,0.240305 0.265445,0.14243 0.608824,0.38406 0.840229,0.59124 l 0.112538,0.10076 0.03929,-0.41151 c 0.04962,-0.519673 0.06544,-0.936243 0.04986,-1.312583 -0.01398,-0.337495 -0.03568,-0.538191 -0.105307,-0.97378 -0.112994,-0.706896 -0.167344,-1.133224 -0.141534,-1.110191 0.01491,0.0133 0.203959,0.868747 0.401412,1.816354 0.225595,1.082671 0.328643,1.53153 0.448329,1.95287 l 0.06006,0.21145 0.03401,-0.14974 c 0.04883,-0.21499 0.158155,-0.5628 0.23913,-0.76076 0.08816,-0.215507 0.142949,-0.33197 0.15201,-0.32309 0.0039,0.0038 -0.0062,0.06758 -0.02239,0.141728 -0.05755,0.263352 -0.101908,0.752332 -0.08992,0.991192 0.03076,0.61309 0.08997,1.01787 0.22867,1.56317 0.03485,0.13705 0.06194,0.28803 0.07625,0.42508 0.05178,0.49585 0.119004,0.7676 0.320312,1.29493 0.01997,0.0523 0.03482,0.0966 0.03299,0.0984 -0.0019,0.002 -0.0358,-0.0503 -0.07549,-0.1157 z m 0.317346,-5.398767 c 0,-0.05027 0.05058,-0.236633 0.126795,-0.46765 0.142714,-0.432558 0.562705,-1.537388 0.643176,-1.69194 0.0482,-0.09258 0.01496,-0.09446 0.617312,0.03482 0.302438,0.0649 0.551757,0.119831 0.554038,0.122068 0.0023,0.0021 -0.03843,0.03189 -0.09047,0.06598 -0.202539,0.132521 -0.401923,0.303262 -0.732175,0.626989 -0.48452,0.474948 -0.688949,0.714156 -0.961335,1.124895 -0.156902,0.236598 -0.157381,0.237159 -0.157336,0.184856 z m 7.155955,-1.772839 c -0.169478,-0.109488 -0.424335,-0.303848 -0.928639,-0.708188 -1.237536,-0.992258 -1.703676,-1.336131 -2.249542,-1.659509 -0.08659,-0.05129 -0.157434,-0.09843 -0.157434,-0.104746 0,-0.01397 0.579257,-0.299562 0.607583,-0.299562 0.01104,0 0.09769,0.08022 0.192544,0.178248 0.167973,0.173602 0.589154,0.569172 0.928139,0.87169 0.932709,0.832372 1.421093,1.31621 1.669008,1.653458 0.129995,0.176851 0.12114,0.186701 -0.06166,0.06861 z"
     id="path13781"
     inkscape:label="arachnae"
     transform="translate(-74.61245,-74.612484)" />
</svg>
