<?xml version="1.0" encoding="UTF-8" standalone="no"?>
<!-- Created with Inkscape (http://www.inkscape.org/) -->

<svg
   width="32.119129mm"
   height="21.433783mm"
   viewBox="0 0 32.119129 21.433784"
   version="1.1"
   id="svg1"
   inkscape:version="1.4.2 (ebf0e94, 2025-05-08)"
   sodipodi:docname="kobold.svg"
   xmlns:inkscape="http://www.inkscape.org/namespaces/inkscape"
   xmlns:sodipodi="http://sodipodi.sourceforge.net/DTD/sodipodi-0.dtd"
   xmlns:xlink="http://www.w3.org/1999/xlink"
   xmlns="http://www.w3.org/2000/svg"
   xmlns:svg="http://www.w3.org/2000/svg">
  <sodipodi:namedview
     id="namedview1"
     pagecolor="#505050"
     bordercolor="#eeeeee"
     borderopacity="1"
     inkscape:showpageshadow="0"
     inkscape:pageopacity="0"
     inkscape:pagecheckerboard="0"
     inkscape:deskcolor="#d1d1d1"
     inkscape:document-units="mm"
     inkscape:zoom="9.1936027"
     inkscape:cx="42.638345"
     inkscape:cy="25.887566"
     inkscape:window-width="2560"
     inkscape:window-height="1440"
     inkscape:window-x="0"
     inkscape:window-y="0"
     inkscape:window-maximized="1"
     inkscape:current-layer="svg1"
     showguides="true" />
  <defs
     id="defs1">
    <radialGradient
       inkscape:collect="always"
       xlink:href="#linearGradient1838"
       id="radialGradient1840"
       cx="225.52222"
       cy="769.77313"
       fx="225.52222"
       fy="769.77313"
       r="42.224899"
       gradientTransform="matrix(0.33534933,0,0,-0.29080859,-70.129185,230.20291)"
       gradientUnits="userSpaceOnUse" />
    <linearGradient
       inkscape:collect="always"
       id="linearGradient1838">
      <stop
         style="stop-color:#ff6d05;stop-opacity:1;"
         offset="0.28639841"
         id="stop1834" />
      <stop
         style="stop-color:#922e12;stop-opacity:1;"
         offset="1"
         id="stop1836" />
    </linearGradient>
  </defs>
  <path
     style="display:inline;fill:url(#radialGradient1840);fill-opacity:1;stroke-width:0.352778"
     d="M 1.34e-4,10.061774 0,0 h 8.2725046 7.0206224 c 0,0 -0.83242,0.9624303 -1.500624,2.8420004 -0.378252,1.0639813 -0.492344,2.1253878 -0.320548,2.9821438 0.183885,0.917045 0.720933,1.819377 1.432094,2.406163 0.806768,0.6656769 1.955751,1.0983199 3.196689,1.2037089 0.650102,0.05521 1.109454,0.04156 1.667542,-0.04956 0.190274,-0.03104 0.370074,-0.05646 0.399556,-0.05643 0.05319,5.7e-5 0.05394,-7.05e-4 0.101286,-0.103177 0.07634,-0.165237 0.134105,-0.360126 0.218567,-0.7374569 0.08169,-0.364963 0.153179,-0.622021 0.201669,-0.72517 0.0585,-0.124467 0.135607,-0.160066 0.270559,-0.124915 0.152855,0.03981 0.260646,0.117676 0.707482,0.511041 0.307142,0.270386 0.389043,0.335467 0.526528,0.41838 0.187886,0.113309 0.38941,0.1441699 0.516932,0.07917 0.09448,-0.04817 0.247177,-0.174315 0.281139,-0.232265 0.07683,-0.131096 0.2705,-0.617435 0.2705,-0.679267 0,-0.04286 0.08772,-0.289549 0.111371,-0.313207 0.02642,-0.02642 0.02812,-0.02646 0.09468,-0.0011 0.03727,0.01415 0.1198,0.0632 0.183403,0.108984 0.06361,0.04579 0.12864,0.0899 0.144522,0.09804 0.04717,0.0242 0.301586,0.0716 0.384087,0.0716 0.157035,0 0.331858,-0.05244 0.469731,-0.14092 0.09543,-0.06124 0.337269,-0.372004 0.407634,-0.523819 0.02984,-0.06442 0.166317,-0.313295 0.303248,-0.553046 0.136924,-0.239755 0.282078,-0.498189 0.322555,-0.574301 0.04048,-0.07611 0.112861,-0.204837 0.160846,-0.286057 0.123169,-0.208477 0.159039,-0.282984 0.284318,-0.590627 0.06091,-0.149546 0.156337,-0.365319 0.212068,-0.479485 0.05573,-0.11417 0.13636,-0.280751 0.179169,-0.3701842 0.047,-0.098182 0.08587,-0.1625988 0.09811,-0.1625988 0.01115,0 0.03235,-0.023671 0.0471,-0.05256 0.039,-0.076461 0.334349,-0.5010679 0.449393,-0.6460913 0.427757,-0.5392067 0.973631,-0.9523341 1.455416,-1.1014815 0.205469,-0.063609 0.548097,-0.1323799 0.774362,-0.1554374 0.0605,-0.00617 0.262459,0.018803 0.415156,0.051266 0.198755,0.042284 0.463186,0.14865 0.733439,0.295014 0.05328,0.028857 0.143577,0.069444 0.200656,0.090205 0.226748,0.082462 0.367231,0.1945323 0.58396,0.4658537 0.344301,0.4310168 0.452106,0.6706093 0.572262,1.2717465 0.02632,0.1316 0.05777,0.262371 0.06994,0.290608 0.05091,0.118145 0.199207,0.599182 0.199207,0.646179 0,0.006 -0.0365,-0.06317 -0.08103,-0.153723 C 31.787842,4.5107552 31.507186,4.0975541 31.194371,3.7770626 30.989365,3.5670222 30.779624,3.4265532 30.570124,3.3589751 30.466922,3.3257434 30.441801,3.3229494 30.285697,3.3281776 l -0.171232,0.00575 -0.128961,0.06441 C 29.77413,3.5038923 29.6426,3.6322998 29.515262,3.8573932 c -0.132077,0.233486 -0.224815,0.532695 -0.294168,0.949142 -0.04223,0.253527 -0.05901,0.409392 -0.07195,0.668154 -0.0052,0.104895 -0.01323,0.188927 -0.01778,0.186739 -0.0046,-0.0021 -0.09189,-0.05942 -0.194098,-0.127194 -0.303502,-0.201213 -0.667022,-0.369139 -0.95261,-0.440058 -0.09006,-0.02237 -0.164916,-0.0302 -0.293832,-0.0308 -0.166515,-7.05e-4 -0.176449,7.06e-4 -0.265973,0.04324 -0.120446,0.05706 -0.178964,0.104483 -0.244472,0.198117 -0.05936,0.08484 -0.281312,0.530126 -0.345898,0.693924 -0.09005,0.228399 -0.212926,0.687529 -0.299255,1.118242 -0.0205,0.102373 -0.04335,0.202011 -0.05073,0.221414 -0.0074,0.0194 -0.06027,0.197189 -0.117531,0.39508 -0.125035,0.432142 -0.256308,0.946859 -0.398816,1.5637509 -0.05802,0.251167 -0.118293,0.506324 -0.133942,0.567016 -0.04369,0.1694879 -0.767225,1.5820069 -1.123703,2.1937589 -0.364543,0.625595 -0.794784,1.26087 -1.217578,1.797822 l -0.135276,0.171807 0.0096,-0.254836 c 0.01524,-0.405257 -0.03105,-1.16682 -0.09924,-1.630716 -0.05328,-0.362683 -0.164137,-0.824392 -0.247787,-1.032012 -0.05169,-0.128277 -0.152298,-0.320516 -0.198494,-0.379261 -0.01676,-0.02134 -0.03425,-0.0302 -0.04872,-0.02462 -0.04296,0.01644 -0.02921,0.433232 0.04129,1.254975 0.02946,0.342763 0.0296,0.953731 3.07e-4,1.20395 -0.02445,0.209038 -0.07927,0.518696 -0.120848,0.682688 -0.129854,0.512149 -0.462689,1.285036 -0.734046,1.704538 -0.09893,0.152936 -0.848176,0.870024 -1.547936,1.481483 -0.460336,0.402244 -0.744516,0.631955 -1.149766,0.929372 l -0.07728,0.05672 0.05249,-0.142304 c 0.154422,-0.418676 0.256755,-0.864259 0.309051,-1.345681 0.02494,-0.229627 0.02886,-0.874501 0.0069,-1.131895 -0.06513,-0.762842 -0.254499,-1.586991 -0.554502,-2.413245 -0.129095,-0.355548 -0.379458,-0.922384 -0.423576,-0.958999 -0.0272,-0.02251 -0.03267,-0.0083 -0.01746,0.04481 0.07487,0.261069 0.09461,1.018279 0.04129,1.583774 -0.108035,1.145618 -0.496666,2.361862 -1.134234,3.549569 -0.478508,0.891406 -1.043689,1.818002 -1.304103,2.138038 -0.117962,0.144974 -0.103798,0.138381 -0.444337,0.206707 -0.672698,0.134972 -1.344207,0.184069 -2.036897,0.148925 -0.2055,-0.01041 -0.375451,-0.02078 -0.377656,-0.02293 -0.0021,-0.0021 0.0115,-0.09662 0.03051,-0.20985 0.186821,-1.113786 0.576369,-4.144669 0.558878,-4.348349 -0.0039,-0.04516 -0.0072,-0.04071 -0.05147,0.06818 -0.318812,0.784931 -1.215838,2.255594 -1.95756,3.2094 -0.367062,0.47202 -0.634182,0.795771 -0.674272,0.817227 -0.03468,0.01852 -0.346022,-0.103801 -0.674465,-0.265067 -0.13959,-0.06854 -0.351321,-0.165174 -0.470514,-0.214735 -0.1191856,-0.04957 -0.252391,-0.106084 -0.2960049,-0.125593 -0.076302,-0.03411 -0.08067,-0.03457 -0.1154853,-0.01171 -0.034466,0.02258 -0.037574,0.02244 -0.066001,-0.0028 C 9.447611,18.470008 8.6569196,18.119238 8.0609156,17.917061 7.7751903,17.820131 7.2024168,17.654937 6.9346338,17.59223 5.7841338,17.3228 5.0557359,17.165771 4.7866617,17.12916 3.8520193,17.00198 3.0100199,17.24908 2.3041081,17.857692 1.9453825,18.166972 1.5929045,18.588859 1.1940752,19.18631 0.6866432,19.946461 0.355949,20.554816 0.08146,21.233123 l -0.0812,0.20066 z m 13.985148,4.795343 c 0.105227,-0.290689 0.17345,-0.587745 0.20586,-0.896352 0.02508,-0.23889 0.0266,-0.735439 0.0025,-0.815361 -0.0472,-0.156393 -0.0932,-0.0068 -0.154153,0.501142 -0.04065,0.338783 -0.130355,1.186194 -0.140194,1.324437 -0.0067,0.0947 -0.0064,0.096 0.01552,0.05785 0.01235,-0.02145 0.04405,-0.09874 0.07046,-0.171718 z"
     id="path655"
     inkscape:label="kobold"
     sodipodi:nodetypes="ccccsscscscscssscssccscssccsscsssccsscsccccscscccccccccsccsccccscssccccccccsssscsscscccssscccccscscccccccscscccccscccc" />
</svg>
