<?xml version="1.0" encoding="UTF-8" standalone="no"?>
<!-- Created with Inkscape (http://www.inkscape.org/) -->

<svg
   width="32.050739mm"
   height="30.756428mm"
   viewBox="0 0 32.05074 30.756428"
   version="1.1"
   id="svg1"
   inkscape:version="1.4.2 (ebf0e94, 2025-05-08)"
   sodipodi:docname="tiefling.svg"
   xmlns:inkscape="http://www.inkscape.org/namespaces/inkscape"
   xmlns:sodipodi="http://sodipodi.sourceforge.net/DTD/sodipodi-0.dtd"
   xmlns:xlink="http://www.w3.org/1999/xlink"
   xmlns="http://www.w3.org/2000/svg"
   xmlns:svg="http://www.w3.org/2000/svg">
  <sodipodi:namedview
     id="namedview1"
     pagecolor="#505050"
     bordercolor="#eeeeee"
     borderopacity="1"
     inkscape:showpageshadow="0"
     inkscape:pageopacity="0"
     inkscape:pagecheckerboard="0"
     inkscape:deskcolor="#d1d1d1"
     inkscape:document-units="mm"
     inkscape:zoom="9.1936027"
     inkscape:cx="35.676982"
     inkscape:cy="65.697858"
     inkscape:window-width="2560"
     inkscape:window-height="1440"
     inkscape:window-x="0"
     inkscape:window-y="0"
     inkscape:window-maximized="1"
     inkscape:current-layer="svg1" />
  <defs
     id="defs1">
    <radialGradient
       inkscape:collect="always"
       xlink:href="#linearGradient25237"
       id="radialGradient25239"
       cx="232.16243"
       cy="519.44409"
       fx="232.16243"
       fy="519.44409"
       r="43.621212"
       gradientTransform="matrix(0.27062645,0,0,-0.31621329,-56.778939,169.44691)"
       gradientUnits="userSpaceOnUse" />
    <linearGradient
       inkscape:collect="always"
       id="linearGradient25237">
      <stop
         style="stop-color:#fdcc27;stop-opacity:1;"
         offset="0.29365209"
         id="stop25233" />
      <stop
         style="stop-color:#df8000;stop-opacity:1;"
         offset="1"
         id="stop25235" />
    </linearGradient>
  </defs>
  <path
     style="display:inline;fill:url(#radialGradient25239);fill-opacity:1;stroke-width:0.352778"
     d="M 3.0283958,30.716643 C 2.9611775,30.659852 2.923201,30.597065 2.8786099,30.468993 2.8189375,30.297603 2.8000251,30.152417 2.7860586,29.758583 2.7437676,28.565891 2.7432984,28.559925 2.6535059,28.07106 2.568871,27.610297 2.5368105,27.417497 2.5379535,27.37625 l 0.00106,-0.03835 0.018203,0.03792 c 0.031997,0.06664 0.2504193,0.710596 0.3408715,1.004929 0.1017658,0.331153 0.216655,0.758476 0.2548784,0.948048 0.065059,0.322647 0.1013496,0.746051 0.088837,1.036532 -0.014922,0.34598 -0.084374,0.460336 -0.2134164,0.351307 z M 2.4355245,27.047168 C 2.4052562,26.970693 2.3502969,26.800044 2.3133611,26.66795 2.0345079,25.670626 1.7388625,24.779527 1.5416985,24.342072 1.4197821,24.071576 1.312393,23.781649 1.0360233,22.976885 0.7943141,22.273048 0.0088121,21.073565 0.00829,20.972487 L 0,0.0136172 21.00303,0 23.574547,0.2751843 c 0.318411,0.0340783 0.849913,0.10057342 1.182257,0.13774914 l 0.60427,0.0675958 0.312078,0.14515747 0.312081,0.14515747 0.239642,-0.0481612 c 0.131801,-0.0264936 0.313531,-0.0661917 0.403846,-0.0882368 0.118117,-0.0288572 0.182636,-0.0383611 0.229884,-0.0339372 0.07293,0.006809 0.38329,0.0570336 0.413057,0.0668443 0.0127,0.004198 -0.04376,0.0671019 -0.170773,0.19030597 l -0.189741,0.18404769 -0.505746,-0.00815 c -1.191969,-0.019156 -2.507798,0.063211 -4.33898,0.271614 -1.779178,0.2024839 -2.923751,0.4139459 -3.792347,0.7006413 -0.719931,0.2376311 -1.373215,0.593912 -1.910344,1.0418374 -0.457888,0.3818467 -0.862383,1.0282167 -1.044967,1.6698454 -0.185144,0.6506104 -0.178392,1.3483978 0.02043,2.1134704 0.102323,0.3936895 0.362148,1.0015255 0.620328,1.4511902 0.140896,0.2453957 0.179585,0.2940967 0.412538,0.5192924 0.530681,0.51302 1.151411,0.9697685 1.803475,1.327048 0.130048,0.07125 0.29471,0.165855 0.365918,0.210231 0.168709,0.105131 0.246176,0.142024 0.486192,0.231528 0.109332,0.04077 0.325885,0.126054 0.48122,0.189522 0.155335,0.06347 0.368141,0.149783 0.472902,0.191813 0.104761,0.04203 0.217079,0.08917 0.249591,0.104761 0.05025,0.02406 0.467296,0.185624 0.96551,0.373965 0.07225,0.02731 0.217078,0.07764 0.321839,0.111838 0.104761,0.03418 0.267325,0.08749 0.361248,0.118434 0.09392,0.03097 0.204583,0.06672 0.245907,0.07949 0.04133,0.01281 0.0732,0.02508 0.07083,0.02737 -0.0045,0.0043 -0.116907,-0.02304 -0.185382,-0.04511 -0.02166,-0.007 -0.169456,-0.04483 -0.328404,-0.0841 -0.158951,-0.03928 -0.37471,-0.09331 -0.479471,-0.120082 -0.779713,-0.199231 -2.163487,-0.48455 -2.752044,-0.567439 -0.546382,-0.07696 -1.443905,-0.123441 -1.957299,-0.101385 -0.824992,0.03545 -1.74092,0.241734 -2.43677,0.548817 -0.628192,0.277223 -1.240215,0.699844 -1.672347,1.154807 -0.899929,0.947476 -1.492186,2.404406 -1.571946,3.866924 -0.02124,0.389541 -0.02201,0.44499 -0.01087,0.761277 0.02177,0.615893 0.07656,1.023207 0.222366,1.653046 0.03585,0.154845 0.06202,0.286456 0.05816,0.29246 -0.0038,0.006 -0.02925,0.01482 -0.05642,0.01954 -0.0272,0.0048 -0.198596,0.04806 -0.380943,0.09623 -0.182348,0.04819 -0.339143,0.0876 -0.348439,0.0876 -0.02092,0 -0.154319,-0.13106 -0.3560273,-0.349758 -0.189096,-0.205024 -0.45134,-0.427122 -0.672726,-0.56975 -0.649379,-0.418356 -1.30871,-0.711567 -1.8675312,-0.830502 -0.2694975,-0.05736 -0.4339519,-0.07315 -0.758698,-0.07285 -0.5413763,3.38e-4 -0.9213638,0.06747 -1.3821621,0.243586 -0.4393918,0.167929 -0.7665332,0.368705 -1.0151992,0.623054 -0.061412,0.06282 -0.183328,0.182782 -0.2709263,0.266598 -0.1658231,0.158666 -0.2622796,0.269064 -0.3909765,0.447506 -0.085199,0.118131 -0.2244443,0.343503 -0.2921212,0.472803 -0.024553,0.04693 -0.050497,0.08532 -0.05763,0.08532 -0.00716,0 -0.012947,0.0087 -0.012947,0.01937 0,0.01785 -0.089224,0.193329 -0.1057804,0.208022 -0.00402,0.0035 -0.019861,0.03489 -0.035278,0.06964 -0.015416,0.03475 -0.056081,0.120085 -0.090382,0.189611 -0.03429,0.06952 -0.063243,0.132094 -0.064325,0.139044 -0.0073,0.04702 -0.024589,0.09481 -0.034255,0.09481 -0.00631,0 -0.011465,0.0127 -0.011465,0.02822 0,0.03157 -0.053675,0.165407 -0.068965,0.171951 -0.00543,0.0025 -0.00984,0.02166 -0.00984,0.04294 0,0.04225 -0.051393,0.190419 -0.068418,0.197252 -0.00582,0.0025 -0.00787,0.0085 -0.00455,0.01358 0.00317,0.0052 -0.00212,0.0402 -0.011853,0.07792 -0.00981,0.03772 -0.033302,0.127748 -0.052176,0.200067 -0.1047044,0.400784 -0.2647138,1.572059 -0.3351777,2.45352 -0.059376,0.742714 -0.034325,2.011906 0.051594,2.61661 0.0387,0.272281 0.120015,0.97506 0.1154536,0.99781 -0.00212,0.01087 -0.028716,-0.04281 -0.058974,-0.119284 z M 24.870357,12.90218 c -0.703404,-0.356693 -1.285371,-0.654748 -1.293266,-0.662344 -0.01835,-0.01764 0.01259,-0.01771 0.241155,-3.38e-4 0.135029,0.01016 0.220836,0.02512 0.363965,0.0634 0.103004,0.02755 0.404484,0.104451 0.669946,0.170858 0.434125,0.108599 1.144143,0.291638 1.328391,0.342462 l 0.07069,0.01947 -0.0085,0.07763 c -0.0047,0.04269 -0.01729,0.188549 -0.02808,0.324118 -0.02212,0.278077 -0.02826,0.316551 -0.05005,0.314724 -0.0084,-7.06e-4 -0.590885,-0.293134 -1.294289,-0.649828 z m 5.22165,-11.7777503 c 0.07328,-0.073388 0.189805,-0.19883258 0.25895,-0.27875791 0.148526,-0.17167578 0.180943,-0.19845514 0.240224,-0.19845514 0.02438,0 0.158048,0.0280458 0.297081,0.0622935 0.139026,0.0342547 0.347356,0.0796008 0.462954,0.10073922 0.496182,0.0907309 0.55621,0.0994093 0.61384,0.0886813 0.106585,-0.0198261 0.107654,-0.0178153 0.03669,0.0690809 -0.03622,0.0443406 -0.08413,0.11822643 -0.106483,0.16418633 l -0.04064,0.083566 -0.691769,-0.00106 c -0.421764,-7.056e-4 -0.750726,0.00437 -0.842832,0.013017 -0.08308,0.00776 -0.198353,0.01778 -0.256156,0.022225 l -0.105089,0.00804 0.13323,-0.1334453 z m -1.308922,0.053061 c -0.111989,-0.012418 -0.307061,-0.032385 -0.433497,-0.044302 -0.126435,-0.011924 -0.233955,-0.025153 -0.238932,-0.029457 -0.005,-0.00427 -0.0181,-0.061828 -0.02914,-0.12787133 -0.01104,-0.0660506 -0.02416,-0.13942483 -0.0291,-0.16306094 l -0.009,-0.0429648 0.08414,0.007126 c 0.341814,0.0289983 0.639816,0.0650205 0.665311,0.0804227 0.02283,0.0137936 0.183141,0.23003227 0.2448,0.33019647 0.01189,0.019297 0.0092,0.019226 -0.254547,-0.010125 z"
     id="path24679"
     inkscape:label="tiefling"
     sodipodi:nodetypes="ssssscsssssscssssccsscccssssscssssssssssssscssssssssssssscsscssssscssssssscssssscsccccssccccscssscssscccsssssssccccccccsssccssscc" />
</svg>
